<svg width="423" height="160" viewBox="0 0 423 160" fill="none" xmlns="http://www.w3.org/2000/svg">
<path d="M341.096 0C346.775 0 351.071 1.67462 353.983 5.02386C357.041 8.37303 359.153 13.1057 360.318 19.2216C361.628 25.3376 362.356 32.6185 362.502 41.0643C362.647 49.5099 362.721 58.8295 362.721 69.0231L363.375 68.5861C370.657 63.6349 377.719 59.4124 384.563 55.9172C391.407 52.2769 397.668 50.4564 403.348 50.4564C407.571 50.4564 411.065 51.4762 413.832 53.5145C416.745 55.4077 418.929 57.8829 420.385 60.9411C421.841 63.8534 422.569 66.8389 422.569 69.8964C422.569 75.4305 420.604 80.4537 416.672 84.968C412.74 89.4822 407.644 94.0691 401.382 98.7293C403.129 100.913 404.804 103.316 406.406 105.937C408.153 108.413 409.974 111.18 411.867 114.237C414.342 118.023 416.38 121.955 417.982 126.033C419.584 130.11 420.385 133.823 420.385 137.172C420.385 141.104 419.439 144.235 417.545 146.565C415.652 148.749 413.323 150.351 410.556 151.37C407.789 152.244 405.022 152.608 402.255 152.462C398.033 152.171 393.81 150.132 389.587 146.346C385.364 142.56 381.287 138.119 377.355 133.022C375.607 130.838 373.86 128.581 372.113 126.251C370.511 123.775 368.982 121.373 367.526 119.043C365.342 119.916 363.23 120.645 361.191 121.227C360.172 132.003 358.134 139.939 355.076 145.036C352.163 149.987 347.503 152.462 341.096 152.462C331.34 152.462 324.569 146.492 320.782 134.551C320.102 132.379 319.483 129.969 318.924 127.321C314.891 132.1 309.961 136.126 304.133 139.397C295.833 143.911 286.295 146.314 275.519 146.605C264.744 146.751 255.278 144.567 247.123 140.052C241.311 136.671 236.382 132.445 232.333 127.377C228.309 132.131 223.394 136.138 217.589 139.397C209.289 143.911 199.751 146.314 188.976 146.605C178.2 146.751 168.734 144.567 160.58 140.052C152.571 135.393 146.237 129.131 141.577 121.268C140.432 119.237 139.423 117.155 138.55 115.021C137.576 116.894 136.534 118.741 135.425 120.56C137.463 123.036 139.211 125.439 140.667 127.769C142.269 129.953 143.434 131.919 144.162 133.666C146.055 138.471 146.565 142.84 145.691 146.772C144.817 150.558 142.997 153.616 140.23 155.946C137.463 158.276 134.187 159.586 130.401 159.877C126.761 160.314 123.047 159.586 119.261 157.693C114.602 155.363 109.941 152.524 105.282 149.175C100.331 151.796 95.1615 153.907 89.7733 155.509C84.5316 156.965 79.1434 157.693 73.61 157.693C63.2712 157.548 53.6604 155.582 44.7776 151.796C36.0405 147.864 28.3228 142.476 21.6243 135.632C15.0715 128.788 9.90204 120.852 6.11596 111.823C2.32988 102.65 0.291227 92.7477 0 82.1172C0.291227 71.3414 2.32988 61.4396 6.11596 52.411C9.90204 43.2372 15.0715 35.2282 21.6243 28.3842C28.3228 21.5402 36.1133 16.2251 44.996 12.439C53.8789 8.65294 63.417 6.68709 73.61 6.54148C83.9488 6.68709 93.5595 8.72575 102.442 12.6574C111.325 16.4435 119.116 21.7586 125.814 28.6026C132.513 35.4467 137.755 43.4557 141.541 52.6295C142.989 55.9545 144.19 59.3888 145.144 62.931C149.293 57.8365 154.438 53.6192 160.58 50.2791C168.88 45.7647 178.346 43.5077 188.976 43.5077C199.46 43.362 208.707 45.5463 216.716 50.0607C222.702 53.3746 227.786 57.5513 231.967 62.5915C236.066 57.6488 241.119 53.5446 247.123 50.2791C255.424 45.7647 264.889 43.5077 275.519 43.5077C286.004 43.362 295.25 45.5463 303.26 50.0607C307.811 52.5798 311.84 55.598 315.348 59.1154C315.592 50.9863 316.02 43.5131 316.632 36.6958C317.652 25.192 319.981 16.2364 323.622 9.82923C327.408 3.27643 333.233 0 341.096 0ZM75.3572 62.8957C69.9696 62.8957 64.9458 64.2792 60.2856 67.0456C55.772 69.8127 52.131 73.453 49.3646 77.9673C46.5978 82.4815 45.2144 87.4321 45.2144 92.8203C45.2144 98.2079 46.5978 103.232 49.3646 107.892C52.131 112.406 55.772 116.047 60.2856 118.813C64.9458 121.58 69.9696 122.963 75.3572 122.963C76.0853 122.963 76.8134 122.89 77.5414 122.745C74.9202 119.396 72.6634 115.973 70.7703 112.479C68.0039 107.236 66.9115 102.431 67.4944 98.0627C68.2224 93.5484 70.0423 89.9081 72.9545 87.141C76.0127 84.2288 79.653 82.5541 83.8762 82.1172C88.0987 81.6802 92.3945 82.8452 96.7636 85.6123C99.2389 87.2136 102.079 89.3252 105.282 91.9464C105.136 86.7041 103.607 81.8987 100.695 77.5303C97.9279 73.016 94.2876 69.4483 89.7733 66.8271C85.4049 64.2059 80.5996 62.8957 75.3572 62.8957ZM189.631 84.3537C185.699 84.3537 182.277 85.8825 179.365 88.9406C176.453 91.8529 174.996 95.348 174.996 99.4253C174.996 103.503 176.453 107.07 179.365 110.128C182.277 113.186 185.699 114.715 189.631 114.715C193.562 114.715 196.984 113.186 199.897 110.128C202.809 107.07 204.266 103.503 204.266 99.4253C204.266 95.348 202.809 91.8529 199.897 88.9406C196.984 85.8825 193.562 84.3537 189.631 84.3537ZM276.175 84.3537C272.243 84.3537 268.821 85.8825 265.909 88.9406C262.996 91.8529 261.54 95.348 261.54 99.4253C261.54 103.503 262.996 107.07 265.909 110.128C268.821 113.186 272.243 114.715 276.175 114.715C280.106 114.715 283.528 113.186 286.44 110.128C289.353 107.07 290.809 103.503 290.809 99.4253C290.809 95.348 289.353 91.8529 286.44 88.9406C283.528 85.8825 280.106 84.3537 276.175 84.3537Z" fill="white"/>
</svg>
