<svg width="2296" height="972" viewBox="0 0 2296 972" fill="none" xmlns="http://www.w3.org/2000/svg">
<path d="M495.894 147V825L665.393 716.588V255.412L495.894 147Z" fill="#00D692"/>
<path d="M372.25 147L202.75 255.412V401.251H118V570.749H202.75H457V401.251H372.25V147Z" fill="#00D692"/>
<path d="M202.75 716.587L372.25 824.999V655.499H202.75V716.587Z" fill="#00D692"/>
<path d="M866.878 522.029V677.663H780V313.807H864.035V454.872H867.055C873.214 438.053 883.282 424.906 897.258 415.431C911.353 405.955 928.586 401.218 948.959 401.218C968.146 401.218 984.847 405.482 999.06 414.01C1013.27 422.419 1024.29 434.323 1032.11 449.72C1040.04 465.118 1043.95 483.121 1043.83 503.73V677.663H956.953V520.786C957.072 505.625 953.282 493.781 945.583 485.253C937.884 476.725 927.047 472.461 913.07 472.461C903.95 472.461 895.896 474.475 888.908 478.502C882.038 482.41 876.649 488.036 872.741 495.38C868.951 502.723 866.996 511.606 866.878 522.029Z" fill="#403B3B"/>
<path d="M1185.42 682.815C1156.76 682.815 1132.12 676.953 1111.52 665.227C1091.03 653.382 1075.21 636.919 1064.08 615.836C1053.06 594.635 1047.56 570.058 1047.56 542.105C1047.56 514.034 1053.06 489.458 1064.08 468.375C1075.21 447.174 1091.03 430.71 1111.52 418.984C1132.12 407.14 1156.76 401.218 1185.42 401.218C1214.09 401.218 1238.66 407.14 1259.15 418.984C1279.76 430.71 1295.58 447.174 1306.59 468.375C1317.72 489.458 1323.29 514.034 1323.29 542.105C1323.29 570.058 1317.72 594.635 1306.59 615.836C1295.58 636.919 1279.76 653.382 1259.15 665.227C1238.66 676.953 1214.09 682.815 1185.42 682.815ZM1185.96 617.257C1196.38 617.257 1205.2 614.059 1212.43 607.663C1219.65 601.268 1225.16 592.384 1228.95 581.014C1232.86 569.643 1234.81 556.496 1234.81 541.572C1234.81 526.412 1232.86 513.146 1228.95 501.776C1225.16 490.405 1219.65 481.522 1212.43 475.126C1205.2 468.73 1196.38 465.532 1185.96 465.532C1175.18 465.532 1166.06 468.73 1158.6 475.126C1151.25 481.522 1145.63 490.405 1141.72 501.776C1137.93 513.146 1136.03 526.412 1136.03 541.572C1136.03 556.496 1137.93 569.643 1141.72 581.014C1145.63 592.384 1151.25 601.268 1158.6 607.663C1166.06 614.059 1175.18 617.257 1185.96 617.257Z" fill="#403B3B"/>
<path d="M1566.02 488.096L1486.25 490.227C1485.42 484.542 1483.17 479.508 1479.5 475.126C1475.83 470.625 1471.03 467.131 1465.11 464.644C1459.3 462.038 1452.55 460.735 1444.85 460.735C1434.79 460.735 1426.2 462.749 1419.09 466.776C1412.1 470.803 1408.67 476.251 1408.79 483.121C1408.67 488.451 1410.8 493.07 1415.18 496.979C1419.68 500.887 1427.68 504.026 1439.17 506.395L1491.76 516.344C1519 521.556 1539.25 530.202 1552.52 542.283C1565.9 554.364 1572.65 570.354 1572.77 590.252C1572.65 608.966 1567.09 625.252 1556.07 639.11C1545.17 652.968 1530.25 663.746 1511.3 671.445C1492.35 679.025 1470.67 682.815 1446.27 682.815C1407.31 682.815 1376.57 674.821 1354.07 658.831C1331.68 642.723 1318.89 621.166 1315.69 594.161L1401.5 592.029C1403.4 601.978 1408.31 609.559 1416.25 614.77C1424.18 619.982 1434.31 622.587 1446.63 622.587C1457.76 622.587 1466.82 620.515 1473.81 616.369C1480.8 612.224 1484.35 606.716 1484.47 599.846C1484.35 593.687 1481.63 588.772 1476.3 585.1C1470.97 581.31 1462.62 578.349 1451.25 576.217L1403.63 567.156C1376.27 562.181 1355.9 553.002 1342.52 539.618C1329.13 526.116 1322.5 508.941 1322.62 488.096C1322.5 469.855 1327.36 454.28 1337.19 441.37C1347.02 428.341 1361 418.392 1379.12 411.522C1397.24 404.653 1418.62 401.218 1443.25 401.218C1480.21 401.218 1509.35 408.976 1530.66 424.492C1551.98 439.889 1563.77 461.091 1566.02 488.096Z" fill="#403B3B"/>
<path d="M1729.55 404.771V468.73H1557.4V404.771H1729.55ZM1593.46 339.391H1680.34V591.851C1680.34 597.181 1681.17 601.504 1682.83 604.821C1684.61 608.019 1687.15 610.328 1690.47 611.75C1693.78 613.053 1697.75 613.704 1702.37 613.704C1705.69 613.704 1709.18 613.408 1712.85 612.816C1716.64 612.105 1719.49 611.513 1721.38 611.039L1734.53 673.755C1730.38 674.939 1724.52 676.419 1716.94 678.196C1709.48 679.973 1700.54 681.098 1690.11 681.572C1669.74 682.519 1652.27 680.15 1637.7 674.465C1623.25 668.661 1612.18 659.66 1604.48 647.46C1596.9 635.261 1593.23 619.922 1593.46 601.445V339.391Z" fill="#403B3B"/>
<path d="M1733.86 677.663V404.771H1820.74V677.663H1733.86ZM1777.39 372.969C1765.19 372.969 1754.7 368.942 1745.94 360.888C1737.17 352.715 1732.79 342.885 1732.79 331.396C1732.79 320.025 1737.17 310.313 1745.94 302.259C1754.7 294.086 1765.19 290 1777.39 290C1789.7 290 1800.19 294.086 1808.83 302.259C1817.6 310.313 1821.98 320.025 1821.98 331.396C1821.98 342.885 1817.6 352.715 1808.83 360.888C1800.19 368.942 1789.7 372.969 1777.39 372.969Z" fill="#403B3B"/>
<path d="M1944.82 404.774V447.413H1824.5V404.774H1944.82ZM1832.89 677.666V373.149C1832.89 356.094 1836.62 341.94 1844.08 330.688C1851.55 319.317 1861.44 310.849 1873.75 305.282C1886.07 299.597 1899.46 296.754 1913.91 296.754C1924.57 296.754 1933.69 297.642 1941.27 299.419C1948.85 301.077 1954.47 302.617 1958.14 304.038L1945.71 347.033C1943.22 346.322 1940.02 345.493 1936.11 344.546C1932.2 343.48 1927.47 342.947 1921.9 342.947C1908.99 342.947 1899.75 346.145 1894.18 352.54C1888.74 358.936 1886.01 368.175 1886.01 380.256V677.666H1832.89Z" fill="#5B5555"/>
<path d="M1978.17 780C1970.24 780 1963.01 779.349 1956.5 778.046C1949.98 776.862 1945.13 775.559 1941.93 774.137L1954.72 730.61C1964.43 733.216 1973.08 734.341 1980.66 733.985C1988.24 733.63 1994.93 730.787 2000.74 725.458C2006.66 720.128 2011.87 711.422 2016.37 699.341L2022.94 681.219L1923.1 404.774H1979.95L2049.06 616.549H2051.9L2121.02 404.774H2178.05L2065.58 714.087C2060.37 728.3 2053.74 740.322 2045.69 750.153C2037.63 760.102 2028.04 767.564 2016.9 772.538C2005.77 777.513 1992.86 780 1978.17 780Z" fill="#5B5555"/>
</svg>
