<svg width="2383" height="795" viewBox="0 0 2383 795" fill="none" xmlns="http://www.w3.org/2000/svg">
<path d="M1451.54 597.215C1429.65 610.829 1370.02 644.592 1349.71 660.416C1301.68 697.873 1258.32 741.354 1220.83 789.901C1201.41 792.729 1181.57 794.219 1161.36 794.219C1146.01 794.219 1130.87 793.334 1115.96 791.686C1171.81 744.938 1232.11 704.211 1295.85 670.075C1333.76 649.787 1411.4 612.78 1451.54 597.215ZM1440.75 585.492C1400.12 601.268 1325.8 633.745 1287.44 654.271C1217.79 691.572 1152.26 736.505 1092.18 788.349C1066.59 783.984 1041.83 777.231 1018.1 768.353C1089.41 718.515 1166.32 677.792 1246.94 646.889C1298.61 627.09 1386.5 597.056 1440.75 585.492ZM1462.62 608.303C1447.84 620.734 1433.86 634.045 1420.75 648.153C1388.19 683.166 1372.69 715.085 1349.55 748.404C1317.78 764.922 1283.57 777.378 1247.6 785.103C1306.9 712.648 1380.01 652.49 1462.62 608.303ZM1409.54 580.712C1351.85 592.594 1295.32 609.146 1240.55 630.143C1154.94 662.946 1073.49 706.63 998.31 760.378C981.283 752.956 964.847 744.434 949.125 734.854C1029.8 679.327 1118.57 638.067 1211.59 612.141C1275.94 594.219 1342.36 583.622 1409.54 580.712ZM1514.09 591.901C1481.14 648.145 1435.1 695.8 1380.17 730.696C1395.78 705.483 1413.76 681.918 1433.83 660.325C1457.79 634.559 1484.7 611.571 1514.09 591.901ZM810.474 595.027C843.078 605.639 875.298 617.605 907.074 630.924C940.952 645.111 974.168 660.764 1006.6 677.827C981.344 692.078 956.713 707.599 932.797 724.355C883.151 690.781 841.31 646.585 810.474 595.027ZM838.619 586.79C912.236 594.352 1011.15 617.192 1081.39 640.111C1062.43 648.581 1043.74 657.731 1025.37 667.534C961.548 633.183 905.849 611.398 838.619 586.79ZM1743.25 415.417L1869.45 147.312H1967.87L1754.72 538.602C1737.81 567.948 1719.58 591.253 1699.77 608.644C1680.08 625.913 1656.9 634.607 1630.33 634.607C1625.5 634.607 1620.18 634.49 1614.39 634.248C1608.47 634.127 1602.67 633.643 1596.88 633.039C1591.08 632.435 1585.53 631.588 1580.57 630.38C1575.5 629.172 1571.15 627.482 1567.53 625.55L1579 550.071C1581.06 551.641 1585.16 553.091 1591.44 554.299C1597.6 555.506 1605.57 555.625 1615.23 554.9C1634.19 552.847 1649.65 545.724 1661.49 533.406C1673.32 521.088 1680.69 505.992 1683.46 487.877L1598.93 147.312H1696.15L1743.25 415.417ZM800.685 117.748C798.269 130.187 795.975 142.503 793.801 154.579C791.506 166.656 789.21 178.857 786.795 191.417C783.655 191.417 779.912 191.536 775.686 192.019C771.459 192.381 766.871 193.586 762.04 195.639C756.485 197.571 751.652 199.869 747.546 202.284C743.561 204.699 740.181 206.871 737.282 208.924C739.335 212.064 741.388 216.534 743.32 222.21C745.373 227.765 746.821 234.406 747.546 242.135V254.454C747.546 256.748 747.427 258.805 746.944 260.857C745.012 279.335 738.974 295.997 728.829 310.609C718.806 325.343 705.881 337.783 690.182 348.048C674.482 358.313 656.609 366.165 636.44 371.6C616.393 377.034 595.259 379.809 573.038 379.809C560.237 379.809 548.766 378.843 538.984 377.031C529.082 375.22 519.539 372.927 510.24 370.149C509.033 370.149 506.979 370.513 503.96 371.358C500.941 372.083 497.558 373.17 493.936 374.619C490.313 376.068 487.175 377.876 484.276 380.05C481.499 382.224 479.926 385.243 479.443 388.866C478.719 398.89 488.864 406.503 509.998 411.816C531.132 417.009 560.843 419.665 599.005 419.665C652.142 419.665 692.478 428.12 719.771 445.269C747.185 462.417 759.623 487.655 757.208 521.107C756 539.585 748.995 555.647 736.073 569.414C723.272 583.061 706.85 594.535 686.924 603.834C666.997 613.012 644.655 620.013 619.897 624.603C595.14 629.312 570.02 631.608 544.659 631.608C515.313 631.608 489.588 629.192 467.367 624.361C445.267 619.531 426.91 613.014 412.418 605.043C397.926 596.952 387.3 587.531 380.416 576.903C373.653 566.276 370.634 555.045 371.358 543.451C372.204 530.529 375.825 520.142 382.226 512.292C388.747 504.442 395.513 498.283 402.759 493.936C411.212 489.105 420.872 485.846 431.741 484.276C424.133 480.653 417.492 475.939 411.816 470.384C406.986 465.553 402.758 459.396 398.894 451.908C395.029 444.541 393.578 435.363 394.303 424.494C395.148 413.625 397.807 404.084 402.517 396.113C407.106 388.022 412.902 381.141 419.665 375.586C426.549 369.91 434.156 364.959 442.609 360.732C451.063 356.506 459.518 352.756 467.972 349.616C453.117 339.109 442.006 326.43 434.519 311.576C427.031 296.601 424.497 279.697 426.912 260.857C428.965 241.535 435.004 224.507 445.027 209.773C455.172 195.04 467.972 182.718 483.672 172.694C499.372 162.55 517.244 155.063 537.171 149.991C557.097 145.04 578.111 142.503 600.211 142.503C625.572 142.503 648.035 145.521 667.6 151.56C687.164 157.598 703.347 167.019 716.148 179.941C718.564 174.265 722.064 167.863 726.411 160.617C732.449 152.164 739.336 145.16 746.944 139.726C754.673 134.291 762.038 130.066 769.284 127.047C776.53 124.028 783.053 121.854 788.608 120.404C794.284 118.955 798.269 118.11 800.685 117.748ZM889.496 578.569C924.711 576.925 959.967 577.288 995.062 579.648C1052.62 583.526 1109.84 592.768 1165.9 607.321C1145.71 613.999 1125.74 621.401 1106.05 629.509C1055.83 612.072 1004.45 598.39 952.378 588.543C931.544 584.605 910.568 581.277 889.496 578.569ZM1049.89 558.166C1121.76 558.497 1193.68 566.059 1264.5 580.828C1245.13 584.87 1225.89 589.548 1206.84 594.855C1203.77 595.712 1200.69 596.592 1197.63 597.476C1131.79 578.263 1064.24 566.326 996.267 561.751L973.896 560.512C999.198 558.835 1024.54 558.055 1049.89 558.166ZM563.376 488.498C544.053 488.498 527.147 488.862 512.413 489.707C497.68 490.432 485.242 492.367 474.977 495.386C464.712 498.405 456.741 502.875 451.065 508.672C445.51 514.589 442.006 522.314 440.799 531.976C439.229 544.052 447.321 554.321 465.315 563.017C483.189 571.712 512.535 576.055 553.112 576.055C591.033 576.055 620.502 571.712 641.636 563.017C662.77 554.321 674.12 544.052 675.69 531.976C676.536 525.937 674.482 520.262 669.41 515.069C664.338 509.756 656.972 505.168 647.069 501.183C637.167 497.077 625.09 493.934 610.84 491.76C596.589 489.586 580.766 488.498 563.376 488.498ZM201.68 142.503C221.848 142.503 240.808 146.488 258.439 154.579C276.192 162.55 291.17 173.297 303.488 186.581C315.806 199.865 324.862 215.086 330.9 232.477C336.939 249.746 338.146 267.861 334.523 286.821C330.9 306.506 328.123 321.842 326.07 332.952C324.138 344.063 322.327 353.847 320.637 362.301C319.067 370.754 317.495 379.209 316.167 387.663C314.718 396.117 312.785 407.346 310.37 421.476C308.8 429.446 309.767 435.484 313.39 439.59C317.013 443.575 321.724 446.113 327.279 447.079C332.955 448.166 338.873 448.045 345.152 446.837C351.432 445.629 356.263 443.816 359.886 441.4L350.828 492.125C342.858 498.163 334.766 502.751 326.675 506.012C318.704 509.152 308.439 510.842 295.879 510.842C283.802 510.842 273.657 508.546 265.445 503.836C257.113 499.247 250.471 493.696 245.157 487.296C239.964 480.775 235.979 474.127 233.443 467.364C230.786 460.481 229.336 454.806 228.853 450.458C221.244 458.912 213.274 466.764 205.062 474.252C196.729 481.739 187.428 488.141 176.922 493.575C166.536 499.01 154.823 503.235 141.901 506.254C129.1 509.273 114.125 510.842 97.2178 510.842C83.5712 510.842 70.7707 508.424 58.9355 503.594C47.1006 498.763 36.714 492.247 28.1396 484.276C19.4444 476.185 12.5608 466.764 7.60938 456.137C2.5372 445.509 0 434.277 0 422.684C4.29168e-05 402.153 3.86444 385.244 11.4727 371.96C19.2017 358.676 29.7096 347.81 43.2354 339.356C56.6405 330.903 72.4602 324.138 90.5752 319.065C108.69 314.114 128.256 309.284 149.148 304.937C170.162 300.468 189.243 296.967 206.513 294.311C223.903 291.654 240.326 288.752 256.025 285.612C257.233 277.521 257.233 269.066 256.025 260.25C254.818 251.313 251.798 243.343 246.726 236.097C241.653 228.851 234.77 222.812 225.833 217.981C217.017 213.151 205.786 210.734 192.019 210.734C179.217 210.734 168.349 212.788 159.774 217.015C151.079 221.241 143.833 226.559 138.036 232.718C132.119 238.998 127.53 246.003 124.148 253.853C120.767 261.702 117.99 269.309 115.938 276.555L76.084 272.935C62.7998 271.727 49.5147 270.64 36.2305 269.915C41.5442 251.8 48.9119 234.891 58.5732 219.433C68.2346 203.974 80.0689 190.447 93.957 178.975C107.845 167.502 123.786 158.568 141.659 152.167C159.533 145.646 179.58 142.503 201.68 142.503ZM1433.48 26.5488C1436.74 26.5488 1441.93 26.6703 1449.18 27.1533C1456.42 27.5156 1464.4 28.9626 1473.09 31.3779C1481.67 33.7932 1490.6 37.4182 1499.66 42.4902C1508.72 47.5624 1516.81 54.6853 1524.05 63.9844C1533.35 75.578 1539.51 89.4686 1542.53 105.289C1545.55 121.23 1545.43 138.619 1542.17 157.579C1537.82 182.94 1533.84 204.922 1530.46 223.641C1526.95 242.359 1524.05 258.785 1521.64 272.915C1519.22 286.924 1517.17 299.479 1515.36 310.348C1513.55 321.217 1511.74 331.604 1509.92 341.748L1504.49 371.939C1502.68 381.963 1500.51 393.437 1498.09 406.359C1497.37 409.499 1497 413.367 1497.24 417.835C1497.49 422.182 1499.18 426.407 1502.32 430.513C1505.94 435.343 1511.37 438.123 1518.38 438.969C1525.38 439.693 1532.75 439.693 1540.36 438.969C1548.09 438.123 1555.45 436.549 1562.7 434.375C1569.94 432.201 1575.38 430.511 1579 429.304L1567.53 491.498C1559.92 496.329 1551.83 499.956 1543.14 502.613C1534.44 505.27 1526.47 507.202 1519.22 508.41C1510.41 509.98 1501.71 510.821 1493.26 510.821C1489.63 510.821 1484.68 510.458 1478.16 509.854C1471.76 509.251 1465 507.924 1457.99 505.992C1450.99 503.939 1443.86 500.802 1436.86 496.575C1429.86 492.348 1423.82 486.549 1418.75 479.062C1413.67 471.695 1410.17 462.398 1408.12 451.287C1406.19 440.177 1406.55 426.65 1409.33 410.588C1417.42 365.421 1425.27 321.22 1432.87 277.744C1440.6 234.268 1448.46 189.946 1456.43 144.9C1458.48 132.824 1455.94 122.8 1448.94 114.95C1441.93 107.1 1432.27 103.233 1420.2 103.233C1413.43 103.233 1407.03 103.961 1401.23 105.651C1395.32 107.221 1390.24 109.877 1385.78 113.5C1381.43 117.123 1377.93 121.711 1375.27 127.387C1372.61 132.942 1370.68 138.617 1369.47 144.293C1368.75 149.124 1368.02 152.87 1367.42 155.769C1366.82 158.546 1366.33 160.963 1365.85 163.016C1365.49 164.948 1365 167.364 1364.4 170.263C1363.8 173.04 1363.07 176.902 1362.23 181.732H1413.55L1403.29 236.685H1351.96C1343.99 281.73 1335.9 326.654 1327.81 371.338C1319.84 416.022 1311.75 460.825 1303.65 505.992H1216.7L1264.41 236.685H1224.55L1234.21 181.732H1274.07C1274.55 179.317 1275.03 176.418 1275.64 172.916C1276.24 169.535 1277.09 165.553 1278.29 161.205C1279.5 156.737 1281.07 150.574 1282.88 142.725C1284.69 134.875 1287.47 126.302 1291.34 117.124C1295.2 107.825 1300.27 98.2828 1306.67 88.3799C1313.2 78.5978 1321.41 69.4185 1331.43 60.9648C1341.58 52.8737 1351.48 46.4748 1361.38 41.8857C1371.16 37.2967 1380.58 33.9147 1389.4 31.6201C1398.34 29.4464 1406.55 27.9984 1414.16 27.3945C1421.89 26.7907 1428.29 26.5488 1433.48 26.5488ZM1043.79 142.744C1052.84 142.623 1060.58 143.105 1066.98 144.312C1073.5 145.52 1077.72 146.247 1079.65 146.73L1067.58 213.152C1065.16 212.669 1060.45 212.306 1053.45 211.943C1046.44 211.46 1037.87 212.066 1028.09 213.395C1018.19 214.844 1007.19 217.742 995.118 222.21C983.042 226.558 970.964 233.198 958.888 242.135C947.656 250.588 938.72 259.162 932.078 268.099C925.436 276.915 920.242 284.404 916.619 290.442C910.219 326.672 903.819 362.539 897.298 398.165C890.897 433.791 884.496 469.782 877.975 506.012H788.608L853.217 147.332H939.566L926.886 219.19C930.146 213.514 935.821 205.181 943.792 194.07C951.883 182.96 963.6 172.696 978.816 163.035C990.893 155.306 1002.49 150.11 1013.6 147.332C1024.71 144.434 1034.73 142.986 1043.79 142.744ZM1139.44 506.012H1051.88L1115.88 150.352H1204.04L1139.44 506.012ZM2186.45 444.016C2188.32 444.016 2189.84 444.187 2191.02 444.531C2192.25 444.875 2193.35 445.268 2194.33 445.71L2192.27 450.276C2191.44 449.785 2190.4 449.417 2189.18 449.172C2187.95 448.877 2186.62 448.729 2185.2 448.729C2183.53 448.729 2181.88 449.294 2180.26 450.424C2178.69 451.553 2177.29 453.052 2176.06 454.918C2174.84 456.735 2173.85 458.847 2173.12 461.253C2172.38 463.61 2172.01 466.041 2172.01 468.546C2172.01 471.738 2172.68 474.096 2174 475.618C2175.33 477.14 2177.12 477.901 2179.38 477.901C2180.85 477.901 2182.4 477.582 2184.02 476.943C2185.64 476.256 2186.94 475.568 2187.92 474.881L2189.32 478.564C2188.05 479.645 2186.52 480.553 2184.76 481.29C2183.04 481.978 2181.39 482.42 2179.82 482.616L2177.98 484.899C2179.31 485.047 2180.39 485.538 2181.22 486.373C2182.1 487.257 2182.55 488.484 2182.55 490.056C2182.55 492.118 2181.76 493.813 2180.19 495.139C2178.67 496.465 2176.36 497.128 2173.27 497.128C2172.68 497.128 2172.04 497.079 2171.35 496.98C2170.71 496.931 2170.05 496.858 2169.36 496.76L2170.61 493.887C2170.86 493.936 2171.1 493.96 2171.35 493.96H2172.16C2173.19 493.96 2174.05 493.862 2174.74 493.666C2175.43 493.47 2175.97 493.223 2176.36 492.929C2176.75 492.683 2177.02 492.389 2177.17 492.045C2177.32 491.701 2177.39 491.382 2177.39 491.088C2177.39 490.155 2176.88 489.466 2175.84 489.024C2174.81 488.582 2173.44 488.362 2171.72 488.362L2175.92 482.616C2173.95 482.42 2172.33 481.904 2171.06 481.069C2169.78 480.234 2168.77 479.252 2168.04 478.122C2167.3 476.944 2166.78 475.716 2166.49 474.439C2166.24 473.163 2166.12 471.959 2166.12 470.829C2166.12 466.655 2166.69 462.922 2167.81 459.632C2168.94 456.293 2170.44 453.469 2172.31 451.161C2174.22 448.853 2176.41 447.084 2178.86 445.856C2181.32 444.629 2183.85 444.016 2186.45 444.016ZM1970.93 443.941C1972.31 443.941 1973.98 444.113 1975.94 444.457C1977.96 444.752 1979.82 445.17 1981.54 445.71L1976.9 467.22C1976.51 469.037 1976.24 470.879 1976.09 472.745C1975.94 474.611 1975.87 476.354 1975.87 477.975V480.111C1975.87 480.75 1975.92 481.339 1976.02 481.879H1971.89L1970.86 475.471H1970.57C1969.98 476.306 1969.24 477.165 1968.36 478.049C1967.52 478.884 1966.59 479.645 1965.56 480.332C1964.53 481.02 1963.42 481.56 1962.24 481.953C1961.06 482.395 1959.81 482.616 1958.49 482.616C1952.64 482.616 1949.72 478.81 1949.72 471.198C1949.72 468.055 1950.11 464.862 1950.9 461.621C1951.73 458.38 1952.98 455.458 1954.65 452.855C1956.37 450.253 1958.56 448.116 1961.21 446.446C1963.91 444.777 1967.15 443.941 1970.93 443.941ZM2082.48 444.016C2084.54 444.016 2086.28 444.359 2087.71 445.047C2089.18 445.685 2090.36 446.594 2091.24 447.772C2092.18 448.902 2092.84 450.228 2093.23 451.75C2093.62 453.223 2093.82 454.77 2093.82 456.391C2093.82 460.074 2093.33 463.512 2092.35 466.704C2091.41 469.896 2090.09 472.671 2088.37 475.028C2086.7 477.386 2084.73 479.252 2082.48 480.627C2080.22 481.953 2077.76 482.616 2075.11 482.616C2072.9 482.616 2071.03 482.272 2069.51 481.585C2068.04 480.848 2066.81 479.891 2065.83 478.712C2064.89 477.533 2064.21 476.207 2063.76 474.733C2063.37 473.26 2063.17 471.763 2063.17 470.24C2063.17 466.361 2063.67 462.824 2064.65 459.632C2065.68 456.391 2067.08 453.617 2068.85 451.309C2070.62 449 2072.65 447.208 2074.96 445.931C2077.32 444.654 2079.82 444.016 2082.48 444.016ZM2151.07 443.941C2152.44 443.941 2154.11 444.113 2156.08 444.457C2158.09 444.752 2159.96 445.17 2161.68 445.71L2157.04 467.22C2156.64 469.037 2156.37 470.879 2156.23 472.745C2156.08 474.611 2156 476.354 2156 477.975V480.111C2156 480.75 2156.05 481.339 2156.15 481.879H2152.03L2151 475.471H2150.7C2150.11 476.306 2149.38 477.165 2148.49 478.049C2147.66 478.884 2146.72 479.645 2145.69 480.332C2144.66 481.02 2143.56 481.56 2142.38 481.953C2141.2 482.395 2139.95 482.616 2138.62 482.616C2132.78 482.616 2129.85 478.81 2129.85 471.198C2129.85 468.055 2130.25 464.862 2131.03 461.621C2131.87 458.38 2133.12 455.458 2134.79 452.855C2136.51 450.253 2138.69 448.116 2141.35 446.446C2144.05 444.777 2147.29 443.941 2151.07 443.941ZM2215.74 443.941C2217.12 443.941 2218.79 444.113 2220.75 444.457C2222.77 444.752 2224.63 445.17 2226.35 445.71L2221.71 467.22C2221.32 469.037 2221.05 470.879 2220.9 472.745C2220.75 474.611 2220.68 476.354 2220.68 477.975V480.111C2220.68 480.75 2220.73 481.339 2220.83 481.879H2216.7L2215.67 475.471H2215.37C2214.78 476.305 2214.05 477.165 2213.16 478.049C2212.33 478.884 2211.4 479.645 2210.37 480.332C2209.33 481.02 2208.23 481.56 2207.05 481.953C2205.87 482.395 2204.62 482.616 2203.29 482.616C2197.45 482.616 2194.53 478.81 2194.53 471.198C2194.53 468.055 2194.92 464.862 2195.71 461.621C2196.54 458.38 2197.79 455.458 2199.46 452.855C2201.18 450.253 2203.37 448.116 2206.02 446.446C2208.72 444.777 2211.96 443.941 2215.74 443.941ZM2250.09 444.016C2252.16 444.016 2253.9 444.359 2255.32 445.047C2256.8 445.685 2257.98 446.594 2258.86 447.772C2259.79 448.902 2260.46 450.228 2260.85 451.75C2261.24 453.223 2261.44 454.77 2261.44 456.391C2261.44 460.074 2260.95 463.512 2259.96 466.704C2259.03 469.896 2257.71 472.671 2255.99 475.028C2254.32 477.386 2252.35 479.252 2250.09 480.627C2247.83 481.953 2245.38 482.616 2242.73 482.616C2240.52 482.616 2238.65 482.272 2237.13 481.585C2235.65 480.848 2234.43 479.891 2233.44 478.712C2232.51 477.533 2231.82 476.207 2231.38 474.733C2230.99 473.26 2230.79 471.762 2230.79 470.24C2230.79 466.361 2231.28 462.824 2232.27 459.632C2233.3 456.391 2234.7 453.617 2236.46 451.309C2238.23 449 2240.27 447.208 2242.58 445.931C2244.94 444.654 2247.44 444.016 2250.09 444.016ZM2269 474.07C2270.27 474.07 2271.3 474.463 2272.09 475.249C2272.87 475.986 2273.27 477.018 2273.27 478.344C2273.27 479.62 2272.87 480.652 2272.09 481.438C2271.3 482.223 2270.27 482.616 2269 482.616C2267.72 482.616 2266.69 482.223 2265.9 481.438C2265.11 480.652 2264.72 479.62 2264.72 478.344C2264.72 477.018 2265.11 475.986 2265.9 475.249C2266.69 474.463 2267.72 474.07 2269 474.07ZM2109.03 466.483L2109.69 473.481H2109.84L2113.01 466.336L2125.46 444.899H2131.79L2108.81 482.542H2106.45L2099.31 444.899H2105.2L2109.03 466.483ZM1921.92 451.234H1922.22C1922.86 450.449 1923.62 449.639 1924.5 448.804C1925.44 447.969 1926.49 447.207 1927.67 446.52C1928.85 445.783 1930.13 445.194 1931.5 444.752C1932.88 444.261 1934.37 444.016 1936 444.016C1938.4 444.016 1940.29 444.605 1941.67 445.783C1943.04 446.913 1943.73 449 1943.73 452.045C1943.73 454.108 1943.41 456.588 1942.77 459.485L1938.06 481.732H1932.53L1936.95 460.737C1937.25 459.264 1937.49 457.963 1937.69 456.833C1937.89 455.654 1937.98 454.623 1937.98 453.739C1937.98 451.922 1937.62 450.645 1936.88 449.908C1936.14 449.123 1934.99 448.729 1933.42 448.729C1932.14 448.729 1930.84 449.073 1929.51 449.761C1928.19 450.399 1926.91 451.234 1925.68 452.266C1924.45 453.297 1923.35 454.452 1922.37 455.729C1921.43 457.005 1920.72 458.233 1920.23 459.411L1915.59 481.732H1910.07L1920.97 430.166H1926.49L1921.92 451.234ZM2011.44 481.732H2005.92L2013.73 444.899H2019.25L2011.44 481.732ZM2048.85 444.016C2051.31 444.016 2053.25 444.605 2054.67 445.783C2056.09 446.962 2056.81 449.024 2056.81 451.971C2056.81 453.444 2056.58 455.213 2056.14 457.275L2050.91 481.732H2045.39L2050.32 458.454C2050.52 457.57 2050.69 456.71 2050.84 455.875C2050.99 454.991 2051.06 454.206 2051.06 453.519C2051.06 452.094 2050.72 450.94 2050.03 450.056C2049.39 449.172 2048.16 448.73 2046.35 448.729C2045.07 448.729 2043.82 449.025 2042.59 449.614C2041.36 450.204 2040.21 450.964 2039.13 451.897C2038.05 452.781 2037.06 453.789 2036.18 454.918C2035.34 455.998 2034.63 457.079 2034.04 458.159L2029.18 481.732H2023.66L2031.46 444.899H2035.3L2035 451.234H2035.3C2035.93 450.449 2036.7 449.638 2037.58 448.804C2038.46 447.92 2039.45 447.134 2040.53 446.446C2041.66 445.759 2042.91 445.194 2044.28 444.752C2045.66 444.261 2047.18 444.016 2048.85 444.016ZM1969.46 448.656C1967.2 448.656 1965.21 449.32 1963.49 450.646C1961.78 451.971 1960.33 453.714 1959.15 455.875C1957.97 457.987 1957.09 460.394 1956.5 463.095C1955.91 465.796 1955.61 468.497 1955.61 471.198C1955.61 473.064 1955.98 474.66 1956.72 475.986C1957.45 477.263 1958.61 477.901 1960.18 477.901C1961.36 477.901 1962.49 477.631 1963.57 477.091C1964.65 476.502 1965.66 475.79 1966.59 474.955C1967.57 474.12 1968.43 473.236 1969.17 472.303C1969.9 471.321 1970.49 470.412 1970.93 469.577L1975.06 449.688C1973.59 449 1971.72 448.656 1969.46 448.656ZM2081.37 448.729C2079.75 448.73 2078.2 449.294 2076.73 450.424C2075.26 451.504 2073.93 452.978 2072.75 454.844C2071.62 456.71 2070.71 458.871 2070.03 461.326C2069.39 463.733 2069.07 466.262 2069.07 468.914C2069.07 471.812 2069.61 474.047 2070.69 475.618C2071.77 477.14 2073.49 477.901 2075.85 477.901C2077.47 477.901 2078.99 477.337 2080.41 476.207C2081.89 475.028 2083.16 473.457 2084.24 471.492C2085.37 469.528 2086.26 467.294 2086.9 464.789C2087.58 462.235 2087.93 459.583 2087.93 456.833C2087.93 454.328 2087.46 452.364 2086.53 450.939C2085.64 449.466 2083.92 448.729 2081.37 448.729ZM2149.6 448.656C2147.34 448.656 2145.35 449.32 2143.63 450.646C2141.91 451.971 2140.46 453.715 2139.28 455.875C2138.1 457.987 2137.22 460.394 2136.63 463.095C2136.04 465.796 2135.75 468.497 2135.75 471.198C2135.75 473.064 2136.12 474.66 2136.85 475.986C2137.59 477.263 2138.74 477.901 2140.31 477.901C2141.49 477.901 2142.62 477.631 2143.7 477.091C2144.78 476.502 2145.79 475.79 2146.72 474.955C2147.71 474.12 2148.57 473.236 2149.3 472.303C2150.04 471.321 2150.63 470.412 2151.07 469.577L2155.19 449.688C2153.72 449 2151.86 448.656 2149.6 448.656ZM2214.27 448.656C2212.01 448.656 2210.02 449.32 2208.3 450.646C2206.58 451.971 2205.13 453.714 2203.96 455.875C2202.78 457.987 2201.89 460.394 2201.3 463.095C2200.71 465.796 2200.42 468.497 2200.42 471.198C2200.42 473.064 2200.79 474.66 2201.53 475.986C2202.26 477.263 2203.42 477.901 2204.99 477.901C2206.17 477.901 2207.3 477.631 2208.38 477.091C2209.46 476.502 2210.46 475.79 2211.4 474.955C2212.38 474.12 2213.24 473.236 2213.97 472.303C2214.71 471.321 2215.3 470.412 2215.74 469.577L2219.87 449.688C2218.4 449 2216.53 448.656 2214.27 448.656ZM2248.99 448.729C2247.37 448.729 2245.82 449.294 2244.35 450.424C2242.87 451.504 2241.55 452.978 2240.37 454.844C2239.24 456.71 2238.33 458.871 2237.64 461.326C2237.01 463.733 2236.69 466.262 2236.69 468.914C2236.69 471.812 2237.23 474.047 2238.31 475.618C2239.39 477.14 2241.11 477.901 2243.46 477.901C2245.08 477.901 2246.61 477.336 2248.03 476.207C2249.5 475.028 2250.78 473.457 2251.86 471.492C2252.99 469.528 2253.87 467.293 2254.51 464.789C2255.2 462.235 2255.54 459.583 2255.54 456.833C2255.54 454.328 2255.08 452.364 2254.14 450.939C2253.26 449.466 2251.54 448.73 2248.99 448.729ZM246.968 334.521C230.06 338.868 212.429 342.617 193.831 345.636C175.354 348.655 158.326 352.395 142.868 356.863C127.289 361.211 114.606 367.007 104.462 374.012C94.4384 381.137 89.3662 390.682 89.3662 402.759C89.3662 413.628 92.5064 422.561 98.7861 429.565C104.945 436.57 113.037 441.403 122.939 443.818C132.842 446.234 143.714 446.233 155.549 444.06C167.384 441.886 178.977 437.178 190.208 429.932C199.145 423.893 206.633 417.61 212.913 411.209C219.193 404.688 224.505 397.683 228.853 390.074C233.321 382.345 236.946 374.012 239.724 364.954C242.622 355.897 245.036 345.752 246.968 334.521ZM1981.25 430.24L1972.19 439.669H1968.95L1975.43 428.692H1981.62L1981.25 430.24ZM2018.88 429.577C2020.01 429.577 2020.97 429.97 2021.76 430.756C2022.54 431.542 2022.94 432.499 2022.94 433.629C2022.94 434.758 2022.54 435.715 2021.76 436.501C2020.97 437.238 2020.01 437.606 2018.88 437.606C2017.75 437.606 2016.8 437.238 2016.01 436.501C2015.27 435.715 2014.91 434.758 2014.91 433.629C2014.91 432.5 2015.27 431.542 2016.01 430.756C2016.8 429.97 2017.75 429.577 2018.88 429.577ZM2214.49 429.135C2215.23 429.135 2215.89 429.307 2216.48 429.65C2217.07 429.945 2217.63 430.289 2218.17 430.682C2218.76 431.025 2219.33 431.345 2219.87 431.64C2220.46 431.934 2221.1 432.081 2221.78 432.081C2222.91 432.081 2224.24 431.492 2225.76 430.313L2226.87 433.481C2225.44 434.906 2224.21 435.888 2223.18 436.428C2222.15 436.968 2221.22 437.238 2220.38 437.238C2219.65 437.238 2218.98 437.091 2218.39 436.796C2217.81 436.501 2217.22 436.183 2216.63 435.839C2216.09 435.446 2215.52 435.101 2214.93 434.807C2214.34 434.512 2213.68 434.365 2212.94 434.365C2212.3 434.365 2211.62 434.537 2210.88 434.881C2210.14 435.175 2209.28 435.715 2208.3 436.501L2207.34 433.407C2208.92 431.787 2210.27 430.682 2211.4 430.093C2212.58 429.454 2213.61 429.135 2214.49 429.135ZM2327.38 359.386C2328.55 359.386 2329.66 359.582 2330.69 359.975C2331.72 360.318 2332.63 360.932 2333.42 361.816C2334.2 362.651 2334.81 363.781 2335.26 365.205C2335.75 366.629 2335.99 368.373 2335.99 370.436C2335.99 374.757 2335.4 378.637 2334.23 382.074C2333.05 385.463 2331.5 388.336 2329.58 390.693C2327.67 393.051 2325.51 394.868 2323.1 396.145C2320.75 397.372 2318.39 397.986 2316.03 397.986C2314.31 397.986 2312.79 397.814 2311.46 397.471C2310.19 397.176 2309.33 396.856 2308.88 396.513L2305.64 411.835H2300.12L2311.09 360.27H2314.93L2314.56 366.604H2314.85C2315.54 365.721 2316.3 364.861 2317.14 364.026C2318.02 363.142 2318.98 362.356 2320.01 361.669C2321.04 360.982 2322.17 360.442 2323.4 360.049C2324.63 359.607 2325.95 359.386 2327.38 359.386ZM2379.04 389.957C2380.27 389.957 2381.2 390.374 2381.84 391.209C2382.53 392.044 2382.87 393.002 2382.87 394.082C2382.87 395.604 2382.6 397.078 2382.06 398.502C2381.57 399.975 2380.86 401.326 2379.93 402.554C2378.99 403.781 2377.89 404.862 2376.61 405.795C2375.39 406.777 2374.03 407.538 2372.56 408.078L2371.38 405.205C2373.25 404.518 2374.75 403.437 2375.88 401.964C2377.01 400.491 2377.69 399.042 2377.94 397.618C2377.74 397.716 2377.5 397.766 2377.2 397.766C2376.51 397.766 2375.83 397.471 2375.14 396.882C2374.5 396.293 2374.18 395.506 2374.18 394.524C2374.18 393.248 2374.6 392.167 2375.43 391.283C2376.27 390.399 2377.47 389.957 2379.04 389.957ZM1938.72 344.652C1941.08 344.652 1943.26 345.021 1945.28 345.758C1947.29 346.445 1949.01 347.575 1950.43 349.146C1951.91 350.669 1953.04 352.658 1953.82 355.113C1954.66 357.569 1955.07 360.565 1955.07 364.101C1955.07 368.717 1954.46 373.088 1953.23 377.213C1952.01 381.289 1950.29 384.874 1948.08 387.968C1945.87 391.062 1943.21 393.517 1940.12 395.334C1937.08 397.102 1933.71 397.986 1930.03 397.986C1924.23 397.986 1919.89 396.317 1916.99 392.978C1914.09 389.589 1912.64 384.678 1912.64 378.244C1912.64 373.726 1913.26 369.429 1914.49 365.353C1915.71 361.276 1917.46 357.716 1919.71 354.671C1922.02 351.577 1924.77 349.146 1927.97 347.378C1931.21 345.561 1934.79 344.652 1938.72 344.652ZM2024.75 384.432C2024.36 386.347 2024.06 388.14 2023.87 389.81C2023.67 391.479 2023.57 393.026 2023.57 394.45V395.924C2023.62 396.366 2023.67 396.808 2023.72 397.25H2020.04L2019 390.841H2018.71C2018.12 391.676 2017.38 392.535 2016.5 393.419C2015.62 394.254 2014.63 395.016 2013.55 395.703C2012.47 396.391 2011.32 396.93 2010.09 397.323C2008.91 397.765 2007.68 397.986 2006.41 397.986C2003.71 397.986 2001.54 397.004 1999.92 395.04C1998.35 393.027 1997.57 389.859 1997.57 385.537C1997.57 382.64 1997.98 379.668 1998.82 376.623C1999.65 373.529 2000.88 370.73 2002.5 368.226C2004.12 365.721 2006.14 363.659 2008.54 362.038C2011 360.417 2013.82 359.606 2017.01 359.606C2017.9 359.606 2018.66 359.632 2019.3 359.681C2019.94 359.73 2020.53 359.803 2021.07 359.901C2021.66 360 2022.2 360.147 2022.69 360.344C2023.18 360.491 2023.69 360.663 2024.23 360.859L2027.47 345.536H2033L2024.75 384.432ZM2054.64 359.386C2056.41 359.386 2057.93 359.631 2059.21 360.122C2060.53 360.613 2061.62 361.277 2062.45 362.111C2063.28 362.897 2063.9 363.83 2064.29 364.91C2064.68 365.941 2064.88 367.047 2064.88 368.226C2064.88 371.712 2063.19 374.462 2059.8 376.476C2056.41 378.44 2051.47 379.423 2044.99 379.423H2043.15C2042.51 379.374 2041.85 379.324 2041.16 379.275C2040.96 380.208 2040.82 381.093 2040.72 381.928C2040.62 382.762 2040.57 383.499 2040.57 384.138C2040.57 386.839 2041.19 389.049 2042.41 390.768C2043.64 392.437 2045.56 393.271 2048.16 393.271C2050.32 393.271 2052.28 392.928 2054.05 392.24C2055.87 391.504 2057.27 390.743 2058.25 389.957L2060.02 393.493C2058.3 394.966 2056.26 396.096 2053.91 396.882C2051.6 397.618 2049.26 397.986 2046.91 397.986C2042.98 397.986 2040.01 396.857 2037.99 394.598C2036.03 392.339 2035.05 389.196 2035.05 385.169C2035.05 381.142 2035.61 377.532 2036.74 374.34C2037.87 371.148 2039.34 368.446 2041.16 366.236C2043.03 364.026 2045.11 362.332 2047.42 361.153C2049.78 359.975 2052.19 359.386 2054.64 359.386ZM2148.62 359.312C2150 359.312 2151.67 359.484 2153.63 359.828C2155.65 360.123 2157.51 360.54 2159.23 361.08L2154.59 382.59C2154.2 384.407 2153.93 386.249 2153.78 388.115C2153.63 389.981 2153.56 391.725 2153.56 393.346V395.481C2153.56 396.12 2153.61 396.71 2153.71 397.25H2149.58L2148.55 390.841H2148.25C2147.67 391.676 2146.93 392.535 2146.04 393.419C2145.21 394.254 2144.28 395.016 2143.25 395.703C2142.21 396.391 2141.11 396.93 2139.93 397.323C2138.75 397.765 2137.5 397.986 2136.17 397.986C2130.33 397.986 2127.41 394.18 2127.41 386.568C2127.41 383.425 2127.8 380.233 2128.59 376.992C2129.42 373.751 2130.67 370.828 2132.34 368.226C2134.06 365.623 2136.25 363.486 2138.9 361.816C2141.6 360.147 2144.84 359.312 2148.62 359.312ZM2203.64 359.386C2205.51 359.386 2207.03 359.558 2208.21 359.901C2209.44 360.245 2210.55 360.638 2211.53 361.08L2209.46 365.647C2208.63 365.156 2207.6 364.788 2206.37 364.542C2205.14 364.247 2203.82 364.101 2202.39 364.101C2200.72 364.101 2199.08 364.665 2197.46 365.795C2195.89 366.924 2194.49 368.422 2193.26 370.288C2192.03 372.105 2191.05 374.217 2190.31 376.623C2189.57 378.98 2189.21 381.411 2189.21 383.916C2189.21 387.108 2189.87 389.466 2191.2 390.988C2192.52 392.511 2194.31 393.271 2196.57 393.271C2198.05 393.271 2199.59 392.953 2201.21 392.314C2202.83 391.627 2204.14 390.939 2205.12 390.252L2206.52 393.935C2205.78 394.573 2204.92 395.138 2203.94 395.629C2203.01 396.12 2202.02 396.538 2200.99 396.882C2200.01 397.226 2199.03 397.495 2198.05 397.691C2197.06 397.888 2196.13 397.986 2195.25 397.986C2192.84 397.986 2190.85 397.618 2189.28 396.882C2187.76 396.096 2186.55 395.113 2185.67 393.935C2184.79 392.756 2184.17 391.479 2183.83 390.104C2183.49 388.73 2183.31 387.428 2183.31 386.2C2183.31 382.026 2183.88 378.293 2185.01 375.003C2186.14 371.663 2187.63 368.839 2189.5 366.531C2191.42 364.223 2193.6 362.455 2196.06 361.228C2198.51 360 2201.04 359.386 2203.64 359.386ZM2232.94 359.312C2234.31 359.312 2235.98 359.484 2237.95 359.828C2239.96 360.123 2241.83 360.54 2243.54 361.08L2238.9 382.59C2238.51 384.407 2238.24 386.249 2238.09 388.115C2237.95 389.981 2237.87 391.725 2237.87 393.346V395.481C2237.87 396.12 2237.92 396.71 2238.02 397.25H2233.89L2232.86 390.841H2232.57C2231.98 391.676 2231.24 392.535 2230.36 393.419C2229.52 394.254 2228.59 395.016 2227.56 395.703C2226.53 396.391 2225.42 396.93 2224.24 397.323C2223.06 397.765 2221.81 397.986 2220.49 397.986C2214.64 397.986 2211.72 394.18 2211.72 386.568C2211.72 383.425 2212.11 380.233 2212.9 376.992C2213.73 373.751 2214.99 370.828 2216.66 368.226C2218.38 365.623 2220.56 363.486 2223.21 361.816C2225.91 360.147 2229.15 359.312 2232.94 359.312ZM2360.88 359.386C2362.94 359.386 2364.69 359.729 2366.11 360.417C2367.58 361.055 2368.76 361.964 2369.65 363.143C2370.58 364.272 2371.24 365.598 2371.63 367.12C2372.03 368.593 2372.22 370.141 2372.22 371.762C2372.22 375.445 2371.73 378.882 2370.75 382.074C2369.82 385.266 2368.49 388.041 2366.77 390.398C2365.1 392.756 2363.14 394.622 2360.88 395.997C2358.62 397.323 2356.16 397.986 2353.51 397.986C2351.3 397.986 2349.44 397.643 2347.91 396.955C2346.44 396.218 2345.21 395.261 2344.23 394.082C2343.3 392.904 2342.61 391.578 2342.17 390.104C2341.78 388.631 2341.58 387.133 2341.58 385.61C2341.58 381.731 2342.07 378.195 2343.05 375.003C2344.08 371.762 2345.48 368.987 2347.25 366.679C2349.02 364.371 2351.06 362.578 2353.37 361.301C2355.72 360.024 2358.23 359.386 2360.88 359.386ZM1983.24 359.386C1985.7 359.386 1987.64 359.975 1989.06 361.153C1990.49 362.332 1991.2 364.395 1991.2 367.342C1991.2 368.815 1990.98 370.583 1990.54 372.646L1985.3 397.103H1979.78L1984.71 373.824C1984.91 372.94 1985.08 372.081 1985.23 371.246C1985.38 370.362 1985.45 369.576 1985.45 368.889C1985.45 367.464 1985.11 366.31 1984.42 365.426C1983.78 364.542 1982.55 364.101 1980.74 364.101C1979.46 364.101 1978.21 364.395 1976.98 364.984C1975.75 365.574 1974.6 366.334 1973.52 367.268C1972.44 368.152 1971.46 369.159 1970.57 370.288C1969.74 371.368 1969.02 372.449 1968.44 373.529L1963.57 397.103H1958.05L1965.86 360.27H1969.69L1969.39 366.604H1969.69C1970.33 365.819 1971.09 365.009 1971.97 364.174C1972.85 363.29 1973.84 362.504 1974.92 361.816C1976.05 361.129 1977.3 360.564 1978.67 360.122C1980.05 359.631 1981.57 359.386 1983.24 359.386ZM2099.61 366.604H2099.91C2100.55 365.819 2101.31 365.009 2102.19 364.174C2103.13 363.339 2104.18 362.578 2105.36 361.891C2106.54 361.154 2107.82 360.564 2109.19 360.122C2110.57 359.631 2112.06 359.386 2113.68 359.386C2116.09 359.386 2117.98 359.975 2119.36 361.153C2120.73 362.283 2121.42 364.37 2121.42 367.415C2121.42 369.478 2121.1 371.958 2120.46 374.855L2115.75 397.103H2110.22L2114.64 376.107C2114.94 374.634 2115.18 373.333 2115.38 372.203C2115.58 371.025 2115.67 369.993 2115.67 369.109C2115.67 367.293 2115.3 366.016 2114.57 365.279C2113.83 364.494 2112.68 364.101 2111.11 364.101C2109.83 364.101 2108.53 364.444 2107.2 365.132C2105.88 365.77 2104.6 366.604 2103.37 367.636C2102.14 368.667 2101.04 369.822 2100.06 371.099C2099.12 372.375 2098.41 373.604 2097.92 374.782L2093.28 397.103H2087.75L2098.66 345.536H2104.18L2099.61 366.604ZM2290.86 359.386C2293.12 359.386 2294.84 359.926 2296.02 361.006C2297.24 362.037 2297.86 363.978 2297.86 366.826C2297.86 368.889 2297.49 371.614 2296.75 375.003L2292.11 397.103H2286.59L2291.23 374.929C2291.52 373.505 2291.74 372.228 2291.89 371.099C2292.09 369.969 2292.19 368.987 2292.19 368.152C2292.19 366.826 2291.92 365.819 2291.38 365.132C2290.83 364.444 2289.93 364.101 2288.65 364.101C2287.62 364.101 2286.51 364.444 2285.33 365.132C2284.21 365.77 2283.1 366.58 2282.02 367.562C2280.94 368.545 2279.96 369.601 2279.07 370.73C2278.24 371.86 2277.57 372.915 2277.08 373.897L2272.3 397.103H2266.77L2271.19 376.255C2271.58 374.536 2271.88 373.013 2272.08 371.688C2272.27 370.362 2272.37 369.208 2272.37 368.226C2272.37 366.9 2272.12 365.893 2271.63 365.205C2271.14 364.468 2270.31 364.101 2269.13 364.101C2267.9 364.101 2266.7 364.419 2265.52 365.058C2264.34 365.696 2263.23 366.507 2262.2 367.489C2261.17 368.422 2260.21 369.429 2259.33 370.509C2258.5 371.589 2257.83 372.572 2257.34 373.456L2252.48 397.103H2246.96L2254.76 360.27H2258.67L2258.23 366.604H2258.52C2259.31 365.819 2260.14 365.009 2261.03 364.174C2261.96 363.29 2262.96 362.504 2264.04 361.816C2265.17 361.129 2266.38 360.564 2267.66 360.122C2268.98 359.631 2270.43 359.386 2272 359.386C2274.21 359.386 2275.68 360.073 2276.42 361.448C2277.21 362.823 2277.6 364.739 2277.6 367.194C2278.34 366.261 2279.2 365.328 2280.18 364.395C2281.16 363.461 2282.22 362.627 2283.35 361.891C2284.52 361.154 2285.75 360.564 2287.03 360.122C2288.31 359.631 2289.58 359.386 2290.86 359.386ZM2016.2 364.321C2014.24 364.321 2012.47 364.935 2010.9 366.163C2009.33 367.342 2007.98 368.938 2006.85 370.951C2005.77 372.965 2004.93 375.273 2004.34 377.876C2003.75 380.479 2003.46 383.155 2003.46 385.905C2003.46 387.919 2003.85 389.662 2004.64 391.136C2005.42 392.56 2006.7 393.271 2008.47 393.271C2009.5 393.271 2010.56 393.002 2011.64 392.462C2012.72 391.873 2013.72 391.16 2014.66 390.325C2015.64 389.49 2016.5 388.606 2017.24 387.673C2018.02 386.691 2018.64 385.782 2019.08 384.947L2023.2 365.795C2022.37 365.255 2021.41 364.886 2020.33 364.689C2019.3 364.444 2017.92 364.321 2016.2 364.321ZM2147.15 364.026C2144.89 364.026 2142.9 364.69 2141.18 366.016C2139.46 367.342 2138.02 369.085 2136.84 371.246C2135.66 373.358 2134.77 375.764 2134.19 378.465C2133.6 381.166 2133.3 383.867 2133.3 386.568C2133.3 388.434 2133.67 390.031 2134.41 391.356C2135.14 392.633 2136.3 393.271 2137.87 393.271C2139.05 393.271 2140.18 393.002 2141.26 392.462C2142.34 391.873 2143.34 391.16 2144.28 390.325C2145.26 389.49 2146.12 388.606 2146.86 387.673C2147.59 386.691 2148.18 385.782 2148.62 384.947L2152.75 365.058C2151.28 364.37 2149.41 364.026 2147.15 364.026ZM2231.46 364.026C2229.2 364.026 2227.21 364.69 2225.5 366.016C2223.78 367.342 2222.33 369.085 2221.15 371.246C2219.97 373.358 2219.09 375.764 2218.5 378.465C2217.91 381.166 2217.61 383.867 2217.61 386.568C2217.61 388.434 2217.98 390.031 2218.72 391.356C2219.46 392.633 2220.61 393.271 2222.18 393.271C2223.36 393.271 2224.49 393.002 2225.57 392.462C2226.65 391.873 2227.66 391.16 2228.59 390.325C2229.57 389.49 2230.43 388.606 2231.17 387.673C2231.9 386.691 2232.49 385.782 2232.94 384.947L2237.06 365.058C2235.59 364.37 2233.72 364.026 2231.46 364.026ZM2325.31 364.101C2323.99 364.101 2322.71 364.444 2321.48 365.132C2320.3 365.819 2319.2 366.679 2318.17 367.71C2317.18 368.692 2316.3 369.773 2315.51 370.951C2314.73 372.081 2314.09 373.137 2313.6 374.119L2309.99 391.577C2310.83 392.216 2311.68 392.658 2312.57 392.903C2313.45 393.149 2314.41 393.271 2315.44 393.271C2317.36 393.271 2319.17 392.756 2320.89 391.725C2322.66 390.644 2324.23 389.122 2325.61 387.157C2326.98 385.193 2328.06 382.836 2328.85 380.086C2329.68 377.336 2330.1 374.266 2330.1 370.878C2330.1 368.914 2329.68 367.292 2328.85 366.016C2328.06 364.739 2326.88 364.101 2325.31 364.101ZM2359.77 364.101C2358.15 364.101 2356.61 364.665 2355.13 365.795C2353.66 366.875 2352.33 368.349 2351.16 370.215C2350.03 372.081 2349.12 374.242 2348.43 376.697C2347.79 379.103 2347.47 381.632 2347.47 384.284C2347.47 387.182 2348.01 389.417 2349.09 390.988C2350.17 392.511 2351.89 393.271 2354.25 393.271C2355.87 393.271 2357.39 392.707 2358.82 391.577C2360.29 390.399 2361.57 388.827 2362.65 386.863C2363.78 384.899 2364.66 382.664 2365.3 380.159C2365.99 377.605 2366.33 374.953 2366.33 372.203C2366.33 369.699 2365.86 367.735 2364.93 366.311C2364.05 364.837 2362.33 364.101 2359.77 364.101ZM1937.69 349.956C1934.89 349.956 1932.34 350.742 1930.03 352.313C1927.72 353.836 1925.73 355.899 1924.06 358.502C1922.44 361.105 1921.16 364.125 1920.23 367.562C1919.3 370.951 1918.83 374.487 1918.83 378.17C1918.83 382.786 1919.79 386.372 1921.7 388.926C1923.62 391.43 1926.44 392.683 1930.18 392.683C1932.93 392.683 1935.43 391.921 1937.69 390.398C1940 388.876 1941.99 386.814 1943.66 384.211C1945.33 381.608 1946.6 378.588 1947.49 375.15C1948.42 371.713 1948.89 368.078 1948.89 364.248C1948.89 361.4 1948.57 359.042 1947.93 357.176C1947.29 355.31 1946.43 353.86 1945.35 352.829C1944.32 351.749 1943.12 351.012 1941.74 350.619C1940.42 350.177 1939.06 349.956 1937.69 349.956ZM2053.76 364.101C2051.06 364.101 2048.7 365.033 2046.69 366.899C2044.72 368.716 2043.22 371.467 2042.19 375.15C2044.06 375.15 2046 375.101 2048.01 375.003C2050.03 374.905 2051.84 374.659 2053.46 374.266C2055.13 373.824 2056.51 373.161 2057.59 372.277C2058.67 371.344 2059.21 370.067 2059.21 368.446C2059.21 367.955 2059.11 367.465 2058.92 366.974C2058.77 366.433 2058.5 365.966 2058.1 365.573C2057.71 365.131 2057.15 364.788 2056.41 364.542C2055.72 364.247 2054.84 364.101 2053.76 364.101ZM2158.94 345.61L2149.88 355.039H2146.63L2153.12 344.063H2159.3L2158.94 345.61ZM622.554 186.581C614.583 182.475 605.041 180.667 594.172 181.15C583.786 181.513 574.005 183.929 564.947 188.397C555.89 192.745 548.041 198.659 541.398 205.905C534.756 213.151 529.442 221.727 525.336 231.509C521.351 241.412 518.695 251.917 517.487 263.27C516.763 274.138 517.366 284.407 519.298 294.068C521.351 303.73 524.972 312.179 530.165 319.425C535.479 326.671 542.244 332.231 550.456 336.337C558.668 340.322 568.449 342.13 579.681 341.768C590.187 341.285 599.969 338.868 609.026 334.521C618.084 330.052 625.936 324.135 632.578 316.647C639.22 309.281 644.532 300.586 648.518 290.684C652.624 280.902 655.161 270.517 656.369 259.648C657.214 248.296 656.487 237.909 654.313 228.248C652.14 218.587 648.276 210.132 642.842 203.128C637.407 196.123 630.645 190.566 622.554 186.581ZM1224.57 79.7041H1121.32L1135.21 0H1238.46L1224.57 79.7041Z" fill="white"/>
</svg>
