<svg width="1028" height="352" viewBox="0 0 1028 352" fill="none" xmlns="http://www.w3.org/2000/svg">
<path d="M46.3955 294.25C38.5401 294.25 32.9587 290.115 29.6512 281.847C26.5504 273.578 25 260.348 25 242.156C25 215.283 28.8243 189.753 36.4729 165.567C38.3334 159.572 41.3309 155.231 45.4653 152.543C49.8064 149.649 55.8012 148.202 63.4499 148.202C67.5843 148.202 70.4783 148.719 72.1321 149.753C73.7859 150.786 74.6127 152.75 74.6127 155.644C74.6127 158.952 73.0623 166.394 69.9615 177.97C67.8943 186.239 66.2406 193.474 65.0003 199.676C63.7599 205.67 62.7263 213.216 61.8995 222.311C67.4809 206.187 74.0959 192.544 81.7446 181.381C89.5999 170.218 97.5586 161.949 105.621 156.575C113.889 150.993 121.641 148.202 128.877 148.202C136.112 148.202 141.176 149.856 144.071 153.164C147.171 156.471 148.722 161.536 148.722 168.358C148.722 174.973 146.758 186.962 142.83 204.327C141.176 211.769 140.04 217.35 139.419 221.071C149.755 195.645 161.228 177.143 173.838 165.567C186.448 153.991 198.231 148.202 209.187 148.202C222.624 148.202 229.342 154.921 229.342 168.358C229.342 176.42 227.069 190.993 222.521 212.079C218.593 230.063 216.629 241.95 216.629 247.738C216.629 256.007 219.627 260.141 225.621 260.141C229.756 260.141 234.614 257.66 240.195 252.699C245.983 247.531 253.632 239.262 263.141 227.893C265.622 224.999 268.412 223.552 271.513 223.552C274.201 223.552 276.268 224.792 277.715 227.273C279.369 229.753 280.195 233.164 280.195 237.505C280.195 245.774 278.232 252.182 274.304 256.73C265.415 267.686 255.803 276.679 245.467 283.707C235.337 290.736 223.761 294.25 210.738 294.25C200.195 294.25 192.236 291.252 186.862 285.258C181.487 279.056 178.799 270.167 178.799 258.591C178.799 252.803 180.246 242.467 183.141 227.583C185.828 214.559 187.172 205.567 187.172 200.606C187.172 197.298 186.035 195.645 183.761 195.645C181.073 195.645 177.249 199.159 172.288 206.187C167.327 213.009 162.365 222.105 157.404 233.474C152.443 244.844 148.412 256.834 145.311 269.443C143.037 279.366 140.35 285.981 137.249 289.289C134.355 292.596 129.6 294.25 122.985 294.25C116.163 294.25 110.995 291.046 107.481 284.637C104.174 278.022 102.52 270.064 102.52 260.761C102.52 252.906 103.553 241.536 105.621 226.652C107.274 213.422 108.101 204.74 108.101 200.606C108.101 197.298 106.964 195.645 104.69 195.645C101.59 195.645 97.662 199.365 92.9074 206.807C88.1529 214.249 83.5017 223.758 78.9538 235.335C74.6127 246.911 71.0985 258.281 68.4111 269.443C66.1372 279.159 63.4499 285.774 60.3491 289.289C57.455 292.596 52.8038 294.25 46.3955 294.25Z" fill="url(#paint0_linear_172_1235)"/>
<path d="M410.162 197.505C412.85 197.505 414.917 198.849 416.364 201.536C417.811 204.223 418.535 207.634 418.535 211.769C418.535 221.691 415.537 227.583 409.542 229.443C397.139 233.784 383.496 236.265 368.612 236.885C364.684 254.25 356.932 268.203 345.356 278.746C333.779 289.082 320.653 294.25 305.976 294.25C293.572 294.25 282.926 291.252 274.037 285.258C265.355 279.263 258.74 271.304 254.192 261.381C249.645 251.459 247.371 240.709 247.371 229.133C247.371 213.422 250.368 199.469 256.363 187.272C262.358 174.869 270.627 165.257 281.169 158.435C291.712 151.407 303.392 147.892 316.208 147.892C331.919 147.892 344.529 153.37 354.038 164.327C363.754 175.076 369.439 188.409 371.092 204.327C380.808 203.707 392.384 201.639 405.821 198.125C407.475 197.712 408.922 197.505 410.162 197.505ZM308.456 261.381C315.071 261.381 320.756 258.694 325.511 253.319C330.472 247.945 333.779 240.193 335.433 230.063C329.025 225.722 324.064 220.037 320.549 213.009C317.242 205.981 315.588 198.539 315.588 190.683C315.588 187.376 315.898 184.068 316.518 180.761H314.968C306.699 180.761 299.774 184.792 294.193 192.854C288.818 200.709 286.131 211.872 286.131 226.342C286.131 237.712 288.301 246.394 292.642 252.389C297.19 258.384 302.461 261.381 308.456 261.381Z" fill="url(#paint1_linear_172_1235)"/>
<path d="M534.989 223.552C537.676 223.552 539.743 224.792 541.19 227.273C542.844 229.753 543.671 233.164 543.671 237.505C543.671 245.774 541.707 252.182 537.779 256.73C528.891 267.686 519.175 276.679 508.632 283.707C498.089 290.736 485.996 294.25 472.353 294.25C430.182 294.25 409.096 264.586 409.096 205.257C409.096 196.161 409.407 186.962 410.027 177.66H397.934C391.732 177.66 387.494 176.523 385.22 174.249C383.153 171.975 382.12 168.358 382.12 163.396C382.12 151.82 386.771 146.032 396.073 146.032H413.748C417.262 123.293 422.637 102.517 429.872 83.7058C437.107 64.8943 445.789 49.9072 455.918 38.7443C466.254 27.5814 477.314 22 489.097 22C497.779 22 504.601 25.8243 509.562 33.4729C514.524 41.1216 517.004 50.734 517.004 62.3103C517.004 94.3519 503.567 122.259 476.694 146.032H511.423C514.73 146.032 517.107 146.755 518.555 148.202C520.002 149.649 520.725 152.337 520.725 156.264C520.725 170.528 509.045 177.66 485.686 177.66H447.856C447.443 187.996 447.236 196.058 447.236 201.846C447.236 223.345 449.717 238.436 454.678 247.118C459.846 255.8 467.908 260.141 478.864 260.141C487.753 260.141 495.609 257.454 502.43 252.079C509.252 246.704 517.314 238.642 526.617 227.893C529.097 224.999 531.888 223.552 534.989 223.552ZM480.725 51.7676C477.624 51.7676 474.11 55.6953 470.182 63.5507C466.461 71.1993 462.844 81.9487 459.329 95.7989C456.022 109.442 453.231 124.636 450.957 141.381C463.154 130.838 472.249 119.055 478.244 106.032C484.446 92.8015 487.547 80.8118 487.547 70.0623C487.547 57.8659 485.273 51.7676 480.725 51.7676Z" fill="url(#paint2_linear_172_1235)"/>
<path d="M555.943 127.737C547.261 127.737 540.749 125.773 536.408 121.846C532.067 117.711 529.897 112.026 529.897 104.791C529.897 97.556 532.687 91.5612 538.269 86.8066C544.057 81.8453 551.189 79.3647 559.664 79.3647C567.313 79.3647 573.515 81.2252 578.269 84.9461C583.024 88.6671 585.401 93.9385 585.401 100.76C585.401 109.029 582.714 115.644 577.339 120.605C571.964 125.36 564.832 127.737 555.943 127.737ZM553.463 294.25C540.026 294.25 530.207 289.495 524.005 279.986C518.01 270.477 515.013 257.867 515.013 242.156C515.013 232.854 516.15 220.968 518.424 206.497C520.904 191.82 524.005 178.177 527.726 165.567C529.587 158.952 532.067 154.404 535.168 151.923C538.269 149.443 543.23 148.202 550.052 148.202C560.595 148.202 565.866 151.717 565.866 158.745C565.866 163.913 563.902 175.903 559.974 194.714C555.013 217.453 552.532 232.854 552.532 240.916C552.532 247.118 553.359 251.872 555.013 255.18C556.667 258.487 559.458 260.141 563.385 260.141C567.106 260.141 571.757 257.557 577.339 252.389C582.92 247.221 590.362 239.056 599.665 227.893C602.145 224.999 604.936 223.552 608.037 223.552C610.724 223.552 612.791 224.792 614.238 227.273C615.892 229.753 616.719 233.164 616.719 237.505C616.719 245.774 614.755 252.182 610.827 256.73C590.362 281.743 571.241 294.25 553.463 294.25Z" fill="url(#paint3_linear_172_1235)"/>
<path d="M745.048 198.435C745.668 198.229 746.702 198.125 748.149 198.125C751.25 198.125 753.627 199.159 755.281 201.226C756.935 203.293 757.762 206.084 757.762 209.598C757.762 216.006 756.521 221.071 754.041 224.792C751.56 228.306 747.839 230.89 742.878 232.544C733.369 235.645 723.239 237.195 712.49 237.195C703.394 237.195 694.815 235.955 686.753 233.474C680.758 243.19 674.143 253.216 666.908 263.552C658.639 275.335 651.508 283.397 645.513 287.738C639.518 292.079 632.696 294.25 625.047 294.25C616.572 294.25 609.854 290.942 604.892 284.327C600.138 277.712 597.14 267.273 595.9 253.009C593.419 224.069 592.179 198.745 592.179 177.04V166.187C592.386 159.365 594.246 154.611 597.76 151.923C601.275 149.236 606.546 147.892 613.575 147.892C618.949 147.892 622.877 149.133 625.358 151.613C628.045 153.887 629.389 157.815 629.389 163.396C629.389 187.169 630.836 218.074 633.73 256.11C646.133 237.712 655.435 223.035 661.637 212.079C658.536 206.084 656.986 198.952 656.986 190.683C656.986 183.655 658.536 176.833 661.637 170.218C664.738 163.603 668.975 158.228 674.35 154.094C679.725 149.959 685.823 147.892 692.645 147.892C698.64 147.892 703.498 150.063 707.219 154.404C710.94 158.538 712.8 164.637 712.8 172.699C712.8 182.001 710.319 192.647 705.358 204.637C713.213 204.223 723.653 202.673 736.676 199.986L745.048 198.435Z" fill="url(#paint4_linear_172_1235)"/>
<path d="M765.891 294.25C753.075 294.25 742.842 289.599 735.194 280.296C727.545 270.994 723.721 258.797 723.721 243.707C723.721 227.169 727.545 211.562 735.194 196.885C742.842 182.001 752.971 170.115 765.581 161.226C778.398 152.13 791.938 147.582 806.202 147.582C810.75 147.582 813.747 148.512 815.194 150.373C816.848 152.027 818.192 155.127 819.225 159.675C823.566 158.848 828.114 158.435 832.869 158.435C842.998 158.435 848.062 162.053 848.062 169.288C848.062 173.629 846.512 183.965 843.411 200.296C838.657 224.068 836.279 240.606 836.279 249.908C836.279 253.009 837.003 255.49 838.45 257.35C840.104 259.211 842.171 260.141 844.652 260.141C848.579 260.141 853.334 257.66 858.915 252.699C864.497 247.531 872.042 239.262 881.551 227.893C884.032 224.999 886.822 223.552 889.923 223.552C892.611 223.552 894.678 224.792 896.125 227.273C897.779 229.753 898.605 233.164 898.605 237.505C898.605 245.774 896.642 252.182 892.714 256.73C884.238 267.273 875.246 276.162 865.737 283.397C856.228 290.632 847.029 294.25 838.14 294.25C831.318 294.25 825.013 291.976 819.225 287.428C813.644 282.674 809.406 276.265 806.512 268.203C795.762 285.568 782.222 294.25 765.891 294.25ZM777.054 262.932C781.602 262.932 785.943 260.244 790.078 254.87C794.212 249.495 797.209 242.363 799.07 233.474L810.543 176.42C801.861 176.626 793.799 179.934 786.357 186.342C779.121 192.544 773.333 200.813 768.992 211.149C764.651 221.484 762.481 232.441 762.481 244.017C762.481 250.425 763.721 255.18 766.201 258.281C768.889 261.381 772.506 262.932 777.054 262.932Z" fill="url(#paint5_linear_172_1235)"/>
<path d="M981.312 232.854C983.999 232.854 986.066 234.094 987.513 236.575C989.167 239.056 989.994 242.467 989.994 246.808C989.994 254.25 988.237 260.658 984.723 266.033C978.935 274.922 971.286 281.847 961.777 286.808C952.475 291.769 941.312 294.25 928.288 294.25C908.443 294.25 893.043 288.358 882.086 276.575C871.13 264.586 865.652 248.461 865.652 228.203C865.652 213.939 868.65 200.709 874.645 188.513C880.639 176.11 888.908 166.29 899.451 159.055C910.2 151.82 922.293 148.202 935.73 148.202C947.72 148.202 957.332 151.82 964.568 159.055C971.803 166.084 975.42 175.696 975.42 187.893C975.42 202.156 970.252 214.456 959.916 224.792C949.787 234.921 932.423 242.983 907.823 248.978C912.784 258.487 921.156 263.242 932.94 263.242C941.415 263.242 948.34 261.278 953.715 257.35C959.296 253.423 965.705 246.808 972.94 237.505C975.42 234.404 978.211 232.854 981.312 232.854ZM930.459 178.59C922.81 178.59 916.299 183.035 910.924 191.924C905.756 200.813 903.172 211.562 903.172 224.172V224.792C915.368 221.898 924.981 217.557 932.009 211.769C939.038 205.981 942.552 199.262 942.552 191.614C942.552 187.686 941.415 184.585 939.141 182.311C937.074 179.83 934.18 178.59 930.459 178.59Z" fill="url(#paint6_linear_172_1235)"/>
<defs>
<linearGradient id="paint0_linear_172_1235" x1="63.9961" y1="-47.3009" x2="820.496" y2="371.199" gradientUnits="userSpaceOnUse">
<stop stop-color="#FE6FF0"/>
<stop offset="1" stop-color="#F82A9A"/>
</linearGradient>
<linearGradient id="paint1_linear_172_1235" x1="63.9961" y1="-47.3009" x2="820.496" y2="371.199" gradientUnits="userSpaceOnUse">
<stop stop-color="#FE6FF0"/>
<stop offset="1" stop-color="#F82A9A"/>
</linearGradient>
<linearGradient id="paint2_linear_172_1235" x1="63.9961" y1="-47.3009" x2="820.496" y2="371.199" gradientUnits="userSpaceOnUse">
<stop stop-color="#FE6FF0"/>
<stop offset="1" stop-color="#F82A9A"/>
</linearGradient>
<linearGradient id="paint3_linear_172_1235" x1="63.9961" y1="-47.3009" x2="820.496" y2="371.199" gradientUnits="userSpaceOnUse">
<stop stop-color="#FE6FF0"/>
<stop offset="1" stop-color="#F82A9A"/>
</linearGradient>
<linearGradient id="paint4_linear_172_1235" x1="63.9961" y1="-47.3009" x2="820.496" y2="371.199" gradientUnits="userSpaceOnUse">
<stop stop-color="#FE6FF0"/>
<stop offset="1" stop-color="#F82A9A"/>
</linearGradient>
<linearGradient id="paint5_linear_172_1235" x1="63.9961" y1="-47.3009" x2="820.496" y2="371.199" gradientUnits="userSpaceOnUse">
<stop stop-color="#FE6FF0"/>
<stop offset="1" stop-color="#F82A9A"/>
</linearGradient>
<linearGradient id="paint6_linear_172_1235" x1="63.9961" y1="-47.3009" x2="820.496" y2="371.199" gradientUnits="userSpaceOnUse">
<stop stop-color="#FE6FF0"/>
<stop offset="1" stop-color="#F82A9A"/>
</linearGradient>
</defs>
</svg>
