<svg width="1040" height="266" viewBox="0 0 1040 266" fill="none" xmlns="http://www.w3.org/2000/svg">
<path d="M986.006 186.386H954.383V143.577C954.383 136.836 956.749 131.099 961.482 126.367C966.358 121.634 972.095 119.268 978.692 119.268V162.077H985.791C993.965 162.077 1000.92 159.209 1006.66 153.472C1012.54 147.592 1015.48 140.637 1015.48 132.605V132.39C1015.48 124.359 1012.54 117.475 1006.66 111.738C1000.92 106.002 993.965 103.133 985.791 103.133H978.692C972.095 103.133 966.358 100.767 961.482 96.0343C956.749 91.1582 954.383 85.3499 954.383 78.6094V60.1088C954.383 53.3682 956.749 47.6316 961.482 42.8989C966.358 38.0228 972.095 35.5847 978.692 35.5847V78.6094H985.791C992.818 78.6094 999.63 79.9718 1006.23 82.6967C1012.97 85.2782 1018.85 89.0787 1023.87 94.0982C1034.62 105.141 1040 117.977 1040 132.605C1040 146.947 1034.62 159.711 1023.87 170.897C1018.85 175.773 1012.97 179.574 1006.23 182.299C999.63 185.024 992.89 186.386 986.006 186.386Z" fill="white"/>
<path d="M733.26 186.537H701.637C687.008 186.537 674.388 181.375 663.775 171.049C653.019 159.862 647.641 147.098 647.641 132.757C647.641 118.128 653.019 105.293 663.775 94.2496C668.794 89.2301 674.603 85.4296 681.2 82.8481C687.797 80.1232 694.681 78.7607 701.852 78.7607H733.26C733.26 85.5013 730.822 91.3096 725.945 96.1857C721.213 100.918 715.476 103.285 708.736 103.285H701.852C693.677 103.285 686.721 106.081 680.985 111.675C675.248 117.268 672.236 124.223 671.95 132.542V132.757C672.236 141.075 675.248 148.102 680.985 153.839C686.721 159.432 693.677 162.229 701.852 162.229H708.736C715.476 162.229 721.213 164.595 725.945 169.328C730.822 174.06 733.26 179.797 733.26 186.537Z" fill="white"/>
<path d="M827.682 186.537H796.058C781.43 186.537 768.809 181.375 758.197 171.049C747.441 159.862 742.062 147.098 742.062 132.757C742.062 118.128 747.441 105.293 758.197 94.2496C763.216 89.2301 769.025 85.4296 775.622 82.8481C782.219 80.1232 789.103 78.7607 796.274 78.7607H827.682C827.682 85.5013 825.243 91.3096 820.367 96.1857C815.635 100.918 809.898 103.285 803.157 103.285H796.274C788.099 103.285 781.143 106.081 775.407 111.675C769.67 117.268 766.658 124.223 766.371 132.542V132.757C766.658 141.075 769.67 148.102 775.407 153.839C781.143 159.432 788.099 162.229 796.274 162.229H803.157C809.898 162.229 815.635 164.595 820.367 169.328C825.243 174.06 827.682 179.797 827.682 186.537Z" fill="white"/>
<path d="M584.85 186.537H553.227C553.227 179.797 555.593 174.06 560.326 169.328C565.202 164.595 570.938 162.229 577.535 162.229H584.635C596.681 162.229 605.717 156.42 611.74 144.804H553.227V132.757C553.227 118.128 558.605 105.293 569.361 94.2496C574.38 89.2301 580.189 85.4296 586.786 82.8481C593.383 80.1232 600.267 78.7607 607.438 78.7607H638.846C638.846 85.5013 636.408 91.3096 631.531 96.1857C626.799 100.918 621.062 103.285 614.322 103.285H607.438C595.391 103.285 586.356 109.021 580.332 120.495H638.846V132.757C638.846 147.098 633.468 159.862 622.711 171.049C617.692 175.925 611.812 179.725 605.071 182.45C598.474 185.175 591.734 186.537 584.85 186.537Z" fill="white"/>
<path d="M445.495 186.386H415.377L376.87 132.175L365.899 147.664V186.386H341.375V60.1088C341.375 53.3682 343.741 47.6316 348.474 42.8989C353.35 38.0228 359.159 35.5847 365.899 35.5847V105.285L415.377 35.5847H445.495L391.929 111.093L445.495 186.386Z" fill="white"/>
<path d="M544.425 186.537H489.316C474.688 186.537 462.067 181.375 451.455 171.049C440.698 159.862 435.32 147.098 435.32 132.757C435.32 118.128 440.698 105.293 451.455 94.2496C456.474 89.2301 462.282 85.4296 468.88 82.8481C475.477 80.1232 482.289 78.7607 489.316 78.7607H520.939V135.567C520.939 142.164 518.501 147.901 513.625 152.777C508.892 157.509 503.156 159.876 496.415 159.876V103.285H489.531C481.357 103.285 474.401 106.081 468.664 111.675C462.928 117.268 459.916 124.223 459.629 132.542V132.757C459.916 141.075 462.928 148.102 468.664 153.839C474.401 159.432 481.357 162.229 489.531 162.229H519.901C526.642 162.229 532.378 164.595 537.111 169.328C541.987 174.06 544.425 179.797 544.425 186.537Z" fill="white"/>
<path d="M945.581 186.537H890.472C875.844 186.537 863.224 181.375 852.611 171.049C841.855 159.862 836.477 147.098 836.477 132.757C836.477 118.128 841.855 105.293 852.611 94.2496C857.63 89.2301 863.439 85.4296 870.036 82.8481C876.633 80.1232 883.445 78.7607 890.472 78.7607H922.096V135.567C922.096 142.164 919.658 147.901 914.781 152.777C910.049 157.509 904.312 159.876 897.572 159.876V103.285H890.688C882.513 103.285 875.557 106.081 869.821 111.675C864.084 117.268 861.072 124.223 860.785 132.542V132.757C861.072 141.075 864.084 148.102 869.821 153.839C875.557 159.432 882.513 162.229 890.688 162.229H921.057C927.798 162.229 933.535 164.595 938.267 169.328C943.143 174.06 945.581 179.797 945.581 186.537Z" fill="white"/>
<path d="M356.628 229.431C356.504 228.175 355.949 227.176 354.965 226.434C353.98 225.692 352.743 225.321 351.252 225.321C350.201 225.321 349.276 225.501 348.475 225.861C347.682 226.221 347.057 226.721 346.602 227.36C346.154 227.991 345.93 228.711 345.93 229.519C345.93 230.114 346.058 230.636 346.315 231.084C346.573 231.532 346.918 231.917 347.351 232.241C347.792 232.556 348.277 232.828 348.806 233.056C349.342 233.284 349.882 233.475 350.425 233.629L352.805 234.312C353.525 234.51 354.245 234.764 354.965 235.072C355.685 235.381 356.342 235.77 356.937 236.24C357.539 236.703 358.02 237.272 358.38 237.948C358.748 238.616 358.931 239.421 358.931 240.361C358.931 241.566 358.619 242.649 357.995 243.611C357.37 244.574 356.474 245.338 355.306 245.903C354.138 246.461 352.739 246.74 351.108 246.74C349.573 246.74 348.24 246.487 347.109 245.98C345.978 245.466 345.089 244.757 344.442 243.854C343.796 242.95 343.432 241.904 343.352 240.714H345.467C345.54 241.602 345.834 242.355 346.348 242.972C346.863 243.589 347.531 244.059 348.354 244.383C349.176 244.698 350.095 244.856 351.108 244.856C352.232 244.856 353.231 244.669 354.105 244.294C354.987 243.913 355.677 243.384 356.177 242.708C356.683 242.025 356.937 241.231 356.937 240.328C356.937 239.564 356.739 238.925 356.342 238.411C355.945 237.889 355.391 237.452 354.678 237.1C353.973 236.747 353.154 236.435 352.221 236.163L349.522 235.37C347.751 234.841 346.378 234.11 345.401 233.177C344.424 232.244 343.936 231.054 343.936 229.607C343.936 228.395 344.259 227.33 344.905 226.412C345.559 225.487 346.44 224.767 347.549 224.253C348.666 223.731 349.918 223.47 351.307 223.47C352.71 223.47 353.951 223.727 355.031 224.241C356.111 224.756 356.966 225.465 357.598 226.368C358.237 227.264 358.579 228.285 358.623 229.431H356.628Z" fill="white"/>
<path d="M388.594 235.072C388.594 237.423 388.175 239.469 387.338 241.209C386.501 242.943 385.348 244.287 383.878 245.242C382.417 246.19 380.735 246.663 378.832 246.663C376.93 246.663 375.244 246.19 373.775 245.242C372.313 244.287 371.164 242.943 370.326 241.209C369.496 239.469 369.081 237.423 369.081 235.072C369.081 232.722 369.496 230.68 370.326 228.946C371.164 227.205 372.317 225.861 373.786 224.914C375.255 223.959 376.937 223.481 378.832 223.481C380.735 223.481 382.417 223.959 383.878 224.914C385.348 225.861 386.501 227.205 387.338 228.946C388.175 230.68 388.594 232.722 388.594 235.072ZM386.589 235.072C386.589 233.052 386.251 231.322 385.575 229.883C384.899 228.436 383.978 227.33 382.81 226.566C381.642 225.802 380.316 225.42 378.832 225.42C377.356 225.42 376.034 225.802 374.866 226.566C373.698 227.33 372.772 228.432 372.089 229.872C371.413 231.311 371.075 233.045 371.075 235.072C371.075 237.092 371.413 238.822 372.089 240.262C372.765 241.702 373.687 242.807 374.855 243.578C376.022 244.342 377.348 244.724 378.832 244.724C380.316 244.724 381.642 244.342 382.81 243.578C383.985 242.814 384.91 241.713 385.586 240.273C386.262 238.826 386.596 237.092 386.589 235.072Z" fill="white"/>
<path d="M399.783 246.355V223.79H401.843V244.504H412.597V246.355H399.783Z" fill="white"/>
<path d="M438.48 223.79H440.541V238.73C440.541 240.266 440.181 241.639 439.461 242.851C438.741 244.056 437.738 245.007 436.453 245.705C435.175 246.395 433.688 246.74 431.991 246.74C430.301 246.74 428.814 246.392 427.528 245.694C426.243 244.996 425.24 244.045 424.52 242.84C423.801 241.635 423.441 240.266 423.441 238.73V223.79H425.501V238.587C425.501 239.784 425.769 240.853 426.305 241.793C426.842 242.726 427.594 243.461 428.564 243.997C429.541 244.533 430.683 244.801 431.991 244.801C433.298 244.801 434.44 244.533 435.417 243.997C436.394 243.461 437.147 242.726 437.676 241.793C438.212 240.853 438.48 239.784 438.48 238.587V223.79Z" fill="white"/>
<path d="M470.408 230.841H468.336C468.182 230.07 467.903 229.358 467.499 228.704C467.102 228.043 466.603 227.466 466 226.974C465.398 226.482 464.715 226.1 463.951 225.828C463.187 225.556 462.361 225.42 461.472 225.42C460.047 225.42 458.747 225.791 457.571 226.533C456.404 227.275 455.467 228.366 454.762 229.806C454.064 231.238 453.715 232.994 453.715 235.072C453.715 237.166 454.064 238.929 454.762 240.361C455.467 241.793 456.404 242.88 457.571 243.622C458.747 244.357 460.047 244.724 461.472 244.724C462.361 244.724 463.187 244.588 463.951 244.317C464.715 244.045 465.398 243.666 466 243.182C466.603 242.689 467.102 242.113 467.499 241.452C467.903 240.791 468.182 240.075 468.336 239.303H470.408C470.224 240.339 469.879 241.305 469.372 242.201C468.872 243.09 468.233 243.868 467.455 244.537C466.683 245.205 465.795 245.727 464.788 246.101C463.782 246.476 462.677 246.663 461.472 246.663C459.577 246.663 457.895 246.19 456.426 245.242C454.957 244.287 453.803 242.943 452.966 241.209C452.136 239.476 451.721 237.43 451.721 235.072C451.721 232.714 452.136 230.669 452.966 228.935C453.803 227.202 454.957 225.861 456.426 224.914C457.895 223.959 459.577 223.481 461.472 223.481C462.677 223.481 463.782 223.669 464.788 224.043C465.795 224.41 466.683 224.932 467.455 225.608C468.233 226.276 468.872 227.055 469.372 227.944C469.879 228.832 470.224 229.798 470.408 230.841ZM460.59 246.388H462.265L462.1 247.269C462.732 247.365 463.268 247.618 463.709 248.03C464.157 248.448 464.384 249.058 464.392 249.859C464.384 250.747 464.035 251.453 463.345 251.974C462.662 252.496 461.652 252.764 460.315 252.778L460.249 251.401C460.976 251.386 461.549 251.262 461.968 251.027C462.386 250.799 462.596 250.428 462.596 249.914C462.596 249.363 462.401 248.974 462.012 248.746C461.63 248.518 461.024 248.382 460.194 248.338L460.59 246.388Z" fill="white"/>
<path d="M499.952 235.072C499.952 237.423 499.533 239.469 498.696 241.209C497.859 242.943 496.705 244.287 495.236 245.242C493.775 246.19 492.093 246.663 490.19 246.663C488.288 246.663 486.602 246.19 485.133 245.242C483.671 244.287 482.521 242.943 481.684 241.209C480.854 239.469 480.439 237.423 480.439 235.072C480.439 232.722 480.854 230.68 481.684 228.946C482.521 227.205 483.675 225.861 485.144 224.914C486.613 223.959 488.295 223.481 490.19 223.481C492.093 223.481 493.775 223.959 495.236 224.914C496.705 225.861 497.859 227.205 498.696 228.946C499.533 230.68 499.952 232.722 499.952 235.072ZM497.947 235.072C497.947 233.052 497.609 231.322 496.933 229.883C496.257 228.436 495.336 227.33 494.168 226.566C493 225.802 491.674 225.42 490.19 225.42C488.714 225.42 487.391 225.802 486.224 226.566C485.056 227.33 484.13 228.432 483.447 229.872C482.771 231.311 482.433 233.045 482.433 235.072C482.433 237.092 482.771 238.822 483.447 240.262C484.123 241.702 485.045 242.807 486.213 243.578C487.38 244.342 488.706 244.724 490.19 244.724C491.674 244.724 493 244.342 494.168 243.578C495.343 242.814 496.268 241.713 496.944 240.273C497.62 238.826 497.954 237.092 497.947 235.072ZM486.477 221.2L484.89 221.112C484.927 220.135 485.25 219.338 485.86 218.721C486.47 218.097 487.215 217.785 488.097 217.785C488.545 217.785 488.938 217.862 489.276 218.016C489.613 218.171 489.929 218.35 490.223 218.556C490.524 218.754 490.829 218.934 491.138 219.096C491.453 219.25 491.81 219.327 492.206 219.327C492.654 219.327 493.044 219.166 493.374 218.843C493.712 218.519 493.903 218.115 493.947 217.631L495.501 217.807C495.449 218.799 495.115 219.588 494.498 220.176C493.889 220.763 493.154 221.057 492.295 221.057C491.802 221.057 491.387 220.98 491.049 220.826C490.719 220.664 490.418 220.484 490.146 220.286C489.882 220.088 489.595 219.911 489.287 219.757C488.985 219.596 488.618 219.515 488.185 219.515C487.715 219.515 487.318 219.68 486.995 220.011C486.679 220.334 486.506 220.73 486.477 221.2Z" fill="white"/>
<path d="M511.141 246.355V223.79H524.23V225.641H513.201V234.136H523.536V235.987H513.201V244.504H524.45V246.355H511.141Z" fill="white"/>
<path d="M548.02 229.431C547.895 228.175 547.341 227.176 546.357 226.434C545.372 225.692 544.135 225.321 542.644 225.321C541.593 225.321 540.668 225.501 539.867 225.861C539.074 226.221 538.449 226.721 537.994 227.36C537.546 227.991 537.322 228.711 537.322 229.519C537.322 230.114 537.45 230.636 537.707 231.084C537.964 231.532 538.31 231.917 538.743 232.241C539.184 232.556 539.669 232.828 540.197 233.056C540.734 233.284 541.274 233.475 541.817 233.629L544.197 234.312C544.917 234.51 545.637 234.764 546.357 235.072C547.076 235.381 547.734 235.77 548.329 236.24C548.931 236.703 549.412 237.272 549.772 237.948C550.139 238.616 550.323 239.421 550.323 240.361C550.323 241.566 550.011 242.649 549.387 243.611C548.762 244.574 547.866 245.338 546.698 245.903C545.53 246.461 544.131 246.74 542.5 246.74C540.965 246.74 539.632 246.487 538.501 245.98C537.37 245.466 536.481 244.757 535.834 243.854C535.188 242.95 534.824 241.904 534.744 240.714H536.859C536.932 241.602 537.226 242.355 537.74 242.972C538.255 243.589 538.923 244.059 539.746 244.383C540.568 244.698 541.487 244.856 542.5 244.856C543.624 244.856 544.623 244.669 545.497 244.294C546.379 243.913 547.069 243.384 547.569 242.708C548.075 242.025 548.329 241.231 548.329 240.328C548.329 239.564 548.131 238.925 547.734 238.411C547.337 237.889 546.783 237.452 546.07 237.1C545.365 236.747 544.546 236.435 543.613 236.163L540.914 235.37C539.143 234.841 537.77 234.11 536.793 233.177C535.816 232.244 535.327 231.054 535.327 229.607C535.327 228.395 535.651 227.33 536.297 226.412C536.951 225.487 537.832 224.767 538.941 224.253C540.058 223.731 541.31 223.47 542.699 223.47C544.102 223.47 545.343 223.727 546.423 224.241C547.503 224.756 548.358 225.465 548.99 226.368C549.629 227.264 549.971 228.285 550.015 229.431H548.02Z" fill="white"/>
<path d="M583.029 246.355H576.418V223.79H583.426C585.578 223.79 587.418 224.238 588.946 225.134C590.481 226.03 591.657 227.316 592.472 228.99C593.287 230.665 593.695 232.674 593.695 235.017C593.695 237.382 593.276 239.413 592.439 241.11C591.609 242.8 590.397 244.096 588.803 245C587.216 245.903 585.292 246.355 583.029 246.355ZM578.479 244.504H582.908C584.847 244.504 586.471 244.122 587.778 243.358C589.086 242.594 590.066 241.503 590.72 240.086C591.374 238.668 591.701 236.978 591.701 235.017C591.693 233.071 591.37 231.396 590.731 229.993C590.099 228.59 589.159 227.514 587.91 226.765C586.669 226.015 585.134 225.641 583.305 225.641H578.479V244.504Z" fill="white"/>
<path d="M604.894 246.355V223.79H617.984V225.641H606.955V234.136H617.29V235.987H606.955V244.504H618.204V246.355H604.894Z" fill="white"/>
<path d="M662.127 230.841H660.055C659.901 230.07 659.622 229.358 659.218 228.704C658.821 228.043 658.322 227.466 657.72 226.974C657.117 226.482 656.434 226.1 655.67 225.828C654.906 225.556 654.08 225.42 653.191 225.42C651.766 225.42 650.466 225.791 649.291 226.533C648.123 227.275 647.186 228.366 646.481 229.806C645.783 231.238 645.434 232.994 645.434 235.072C645.434 237.166 645.783 238.929 646.481 240.361C647.186 241.793 648.123 242.88 649.291 243.622C650.466 244.357 651.766 244.724 653.191 244.724C654.08 244.724 654.906 244.588 655.67 244.317C656.434 244.045 657.117 243.666 657.72 243.182C658.322 242.689 658.821 242.113 659.218 241.452C659.622 240.791 659.901 240.075 660.055 239.303H662.127C661.943 240.339 661.598 241.305 661.091 242.201C660.592 243.09 659.953 243.868 659.174 244.537C658.403 245.205 657.514 245.727 656.508 246.101C655.501 246.476 654.396 246.663 653.191 246.663C651.296 246.663 649.614 246.19 648.145 245.242C646.676 244.287 645.522 242.943 644.685 241.209C643.855 239.476 643.44 237.43 643.44 235.072C643.44 232.714 643.855 230.669 644.685 228.935C645.522 227.202 646.676 225.861 648.145 224.914C649.614 223.959 651.296 223.481 653.191 223.481C654.396 223.481 655.501 223.669 656.508 224.043C657.514 224.41 658.403 224.932 659.174 225.608C659.953 226.276 660.592 227.055 661.091 227.944C661.598 228.832 661.943 229.798 662.127 230.841Z" fill="white"/>
<path d="M691.671 235.072C691.671 237.423 691.253 239.469 690.415 241.209C689.578 242.943 688.425 244.287 686.956 245.242C685.494 246.19 683.812 246.663 681.909 246.663C680.007 246.663 678.321 246.19 676.852 245.242C675.39 244.287 674.241 242.943 673.403 241.209C672.573 239.469 672.158 237.423 672.158 235.072C672.158 232.722 672.573 230.68 673.403 228.946C674.241 227.205 675.394 225.861 676.863 224.914C678.332 223.959 680.014 223.481 681.909 223.481C683.812 223.481 685.494 223.959 686.956 224.914C688.425 225.861 689.578 227.205 690.415 228.946C691.253 230.68 691.671 232.722 691.671 235.072ZM689.666 235.072C689.666 233.052 689.328 231.322 688.652 229.883C687.977 228.436 687.055 227.33 685.887 226.566C684.719 225.802 683.393 225.42 681.909 225.42C680.433 225.42 679.111 225.802 677.943 226.566C676.775 227.33 675.849 228.432 675.166 229.872C674.49 231.311 674.153 233.045 674.153 235.072C674.153 237.092 674.49 238.822 675.166 240.262C675.842 241.702 676.764 242.807 677.932 243.578C679.1 244.342 680.426 244.724 681.909 244.724C683.393 244.724 684.719 244.342 685.887 243.578C687.062 242.814 687.988 241.713 688.663 240.273C689.339 238.826 689.673 237.092 689.666 235.072Z" fill="white"/>
<path d="M720.434 223.79V246.355H718.428L705.096 227.459H704.92V246.355H702.86V223.79H704.854L718.23 242.708H718.406V223.79H720.434Z" fill="white"/>
<path d="M744.891 229.431C744.766 228.175 744.211 227.176 743.227 226.434C742.243 225.692 741.005 225.321 739.514 225.321C738.463 225.321 737.538 225.501 736.737 225.861C735.944 226.221 735.319 226.721 734.864 227.36C734.416 227.991 734.192 228.711 734.192 229.519C734.192 230.114 734.32 230.636 734.578 231.084C734.835 231.532 735.18 231.917 735.613 232.241C736.054 232.556 736.539 232.828 737.068 233.056C737.604 233.284 738.144 233.475 738.687 233.629L741.067 234.312C741.787 234.51 742.507 234.764 743.227 235.072C743.947 235.381 744.604 235.77 745.199 236.24C745.801 236.703 746.283 237.272 746.642 237.948C747.01 238.616 747.193 239.421 747.193 240.361C747.193 241.566 746.881 242.649 746.257 243.611C745.632 244.574 744.736 245.338 743.568 245.903C742.4 246.461 741.001 246.74 739.37 246.74C737.835 246.74 736.502 246.487 735.371 245.98C734.24 245.466 733.351 244.757 732.704 243.854C732.058 242.95 731.695 241.904 731.614 240.714H733.729C733.803 241.602 734.096 242.355 734.611 242.972C735.125 243.589 735.793 244.059 736.616 244.383C737.439 244.698 738.357 244.856 739.37 244.856C740.494 244.856 741.493 244.669 742.367 244.294C743.249 243.913 743.939 243.384 744.439 242.708C744.946 242.025 745.199 241.231 745.199 240.328C745.199 239.564 745.001 238.925 744.604 238.411C744.207 237.889 743.653 237.452 742.94 237.1C742.235 236.747 741.416 236.435 740.483 236.163L737.784 235.37C736.014 234.841 734.64 234.11 733.663 233.177C732.686 232.244 732.198 231.054 732.198 229.607C732.198 228.395 732.521 227.33 733.167 226.412C733.821 225.487 734.702 224.767 735.812 224.253C736.928 223.731 738.181 223.47 739.569 223.47C740.972 223.47 742.213 223.727 743.293 224.241C744.373 224.756 745.228 225.465 745.86 226.368C746.499 227.264 746.841 228.285 746.885 229.431H744.891Z" fill="white"/>
<path d="M756.991 225.641V223.79H773.353V225.641H766.202V246.355H764.141V225.641H756.991Z" fill="white"/>
<path d="M784.197 246.355V223.79H791.48C793.081 223.79 794.418 224.08 795.49 224.66C796.57 225.233 797.382 226.03 797.925 227.051C798.476 228.065 798.752 229.229 798.752 230.544C798.752 231.859 798.476 233.019 797.925 234.026C797.382 235.032 796.574 235.818 795.501 236.383C794.429 236.949 793.099 237.232 791.513 237.232H785.309V235.348H791.458C792.633 235.348 793.61 235.153 794.388 234.764C795.174 234.374 795.758 233.82 796.14 233.1C796.53 232.38 796.724 231.528 796.724 230.544C796.724 229.56 796.53 228.7 796.14 227.966C795.751 227.224 795.163 226.651 794.377 226.247C793.599 225.843 792.614 225.641 791.424 225.641H786.257V246.355H784.197ZM794.146 236.174L799.699 246.355H797.319L791.821 236.174H794.146Z" fill="white"/>
<path d="M825.015 223.79H827.076V238.73C827.076 240.266 826.716 241.639 825.996 242.851C825.276 244.056 824.274 245.007 822.988 245.705C821.71 246.395 820.223 246.74 818.526 246.74C816.836 246.74 815.349 246.392 814.063 245.694C812.778 244.996 811.775 244.045 811.055 242.84C810.336 241.635 809.976 240.266 809.976 238.73V223.79H812.036V238.587C812.036 239.784 812.304 240.853 812.84 241.793C813.377 242.726 814.129 243.461 815.099 243.997C816.076 244.533 817.218 244.801 818.526 244.801C819.833 244.801 820.975 244.533 821.952 243.997C822.929 243.461 823.682 242.726 824.211 241.793C824.747 240.853 825.015 239.784 825.015 238.587V223.79Z" fill="white"/>
<path d="M856.943 230.841H854.871C854.717 230.07 854.438 229.358 854.034 228.704C853.637 228.043 853.138 227.466 852.535 226.974C851.933 226.482 851.25 226.1 850.486 225.828C849.722 225.556 848.896 225.42 848.007 225.42C846.582 225.42 845.282 225.791 844.107 226.533C842.939 227.275 842.002 228.366 841.297 229.806C840.599 231.238 840.25 232.994 840.25 235.072C840.25 237.166 840.599 238.929 841.297 240.361C842.002 241.793 842.939 242.88 844.107 243.622C845.282 244.357 846.582 244.724 848.007 244.724C848.896 244.724 849.722 244.588 850.486 244.317C851.25 244.045 851.933 243.666 852.535 243.182C853.138 242.689 853.637 242.113 854.034 241.452C854.438 240.791 854.717 240.075 854.871 239.303H856.943C856.759 240.339 856.414 241.305 855.907 242.201C855.407 243.09 854.768 243.868 853.99 244.537C853.219 245.205 852.33 245.727 851.323 246.101C850.317 246.476 849.212 246.663 848.007 246.663C846.112 246.663 844.43 246.19 842.961 245.242C841.492 244.287 840.338 242.943 839.501 241.209C838.671 239.476 838.256 237.43 838.256 235.072C838.256 232.714 838.671 230.669 839.501 228.935C840.338 227.202 841.492 225.861 842.961 224.914C844.43 223.959 846.112 223.481 848.007 223.481C849.212 223.481 850.317 223.669 851.323 224.043C852.33 224.41 853.219 224.932 853.99 225.608C854.768 226.276 855.407 227.055 855.907 227.944C856.414 228.832 856.759 229.798 856.943 230.841ZM847.125 246.388H848.8L848.635 247.269C849.267 247.365 849.803 247.618 850.244 248.03C850.692 248.448 850.919 249.058 850.927 249.859C850.919 250.747 850.57 251.453 849.88 251.974C849.197 252.496 848.187 252.764 846.85 252.778L846.784 251.401C847.511 251.386 848.084 251.262 848.503 251.027C848.921 250.799 849.131 250.428 849.131 249.914C849.131 249.363 848.936 248.974 848.547 248.746C848.165 248.518 847.559 248.382 846.729 248.338L847.125 246.388Z" fill="white"/>
<path d="M868.021 246.355H865.861L874.07 223.79H876.273L884.482 246.355H882.322L875.249 226.467H875.094L868.021 246.355ZM869.574 237.706H880.769V239.557H869.574V237.706ZM871.458 221.2L869.872 221.112C869.909 220.135 870.232 219.338 870.841 218.721C871.451 218.097 872.197 217.785 873.078 217.785C873.526 217.785 873.919 217.862 874.257 218.016C874.595 218.171 874.911 218.35 875.205 218.556C875.506 218.754 875.811 218.934 876.119 219.096C876.435 219.25 876.791 219.327 877.188 219.327C877.636 219.327 878.025 219.166 878.356 218.843C878.694 218.519 878.885 218.115 878.929 217.631L880.482 217.807C880.431 218.799 880.097 219.588 879.48 220.176C878.87 220.763 878.135 221.057 877.276 221.057C876.784 221.057 876.369 220.98 876.031 220.826C875.7 220.664 875.399 220.484 875.128 220.286C874.863 220.088 874.577 219.911 874.268 219.757C873.967 219.596 873.6 219.515 873.166 219.515C872.696 219.515 872.299 219.68 871.976 220.011C871.66 220.334 871.488 220.73 871.458 221.2Z" fill="white"/>
<path d="M911.994 235.072C911.994 237.423 911.575 239.469 910.738 241.209C909.9 242.943 908.747 244.287 907.278 245.242C905.816 246.19 904.134 246.663 902.232 246.663C900.329 246.663 898.643 246.19 897.174 245.242C895.712 244.287 894.563 242.943 893.726 241.209C892.896 239.469 892.481 237.423 892.481 235.072C892.481 232.722 892.896 230.68 893.726 228.946C894.563 227.205 895.716 225.861 897.185 224.914C898.654 223.959 900.336 223.481 902.232 223.481C904.134 223.481 905.816 223.959 907.278 224.914C908.747 225.861 909.9 227.205 910.738 228.946C911.575 230.68 911.994 232.722 911.994 235.072ZM909.988 235.072C909.988 233.052 909.65 231.322 908.975 229.883C908.299 228.436 907.377 227.33 906.209 226.566C905.041 225.802 903.715 225.42 902.232 225.42C900.755 225.42 899.433 225.802 898.265 226.566C897.097 227.33 896.172 228.432 895.488 229.872C894.813 231.311 894.475 233.045 894.475 235.072C894.475 237.092 894.813 238.822 895.488 240.262C896.164 241.702 897.086 242.807 898.254 243.578C899.422 244.342 900.748 244.724 902.232 244.724C903.715 244.724 905.041 244.342 906.209 243.578C907.384 242.814 908.31 241.713 908.986 240.273C909.661 238.826 909.996 237.092 909.988 235.072Z" fill="white"/>
<path d="M955.787 230.841H953.715C953.561 230.07 953.282 229.358 952.878 228.704C952.481 228.043 951.982 227.466 951.38 226.974C950.777 226.482 950.094 226.1 949.33 225.828C948.566 225.556 947.74 225.42 946.851 225.42C945.426 225.42 944.126 225.791 942.951 226.533C941.783 227.275 940.846 228.366 940.141 229.806C939.443 231.238 939.094 232.994 939.094 235.072C939.094 237.166 939.443 238.929 940.141 240.361C940.846 241.793 941.783 242.88 942.951 243.622C944.126 244.357 945.426 244.724 946.851 244.724C947.74 244.724 948.566 244.588 949.33 244.317C950.094 244.045 950.777 243.666 951.38 243.182C951.982 242.689 952.481 242.113 952.878 241.452C953.282 240.791 953.561 240.075 953.715 239.303H955.787C955.603 240.339 955.258 241.305 954.751 242.201C954.252 243.09 953.612 243.868 952.834 244.537C952.063 245.205 951.174 245.727 950.167 246.101C949.161 246.476 948.056 246.663 946.851 246.663C944.956 246.663 943.274 246.19 941.805 245.242C940.336 244.287 939.182 242.943 938.345 241.209C937.515 239.476 937.1 237.43 937.1 235.072C937.1 232.714 937.515 230.669 938.345 228.935C939.182 227.202 940.336 225.861 941.805 224.914C943.274 223.959 944.956 223.481 946.851 223.481C948.056 223.481 949.161 223.669 950.167 224.043C951.174 224.41 952.063 224.932 952.834 225.608C953.612 226.276 954.252 227.055 954.751 227.944C955.258 228.832 955.603 229.798 955.787 230.841Z" fill="white"/>
<path d="M968.892 223.79V246.355H966.832V223.79H968.892Z" fill="white"/>
<path d="M981.13 223.79L988.182 243.677H988.38L995.432 223.79H997.591L989.383 246.355H987.179L978.971 223.79H981.13Z" fill="white"/>
<path d="M1009.72 223.79V246.355H1007.66V223.79H1009.72Z" fill="white"/>
<path d="M1021.93 246.355V223.79H1023.99V244.504H1034.74V246.355H1021.93Z" fill="white"/>
<path d="M178.43 146.419V120.316L294.875 125.593V140.157L178.43 146.419Z" fill="white"/>
<path d="M0 89.3572V68.6362L146.806 0V45.9803L0 89.3572Z" fill="white"/>
<path d="M0 176.041V196.762L146.806 265.398V219.418L0 176.041Z" fill="white"/>
<path d="M294.867 89.6734V68.879L147.547 0V46.143L294.867 89.6734Z" fill="white"/>
<path d="M294.875 175.907V196.546L147.542 265.398V219.418L294.875 175.907Z" fill="white"/>
<path d="M117.852 105.083V84.3617L177.306 73.104V99.7001L117.852 105.083Z" fill="white"/>
<path d="M117.852 159.893V180.614L177.306 191.872V165.276L117.852 159.893Z" fill="white"/>
<path d="M294.875 100.404L178.43 73.104V99.7L294.875 114.194V100.404Z" fill="white"/>
<path d="M294.875 164.607L178.43 191.872V165.276L294.875 150.817V164.607Z" fill="white"/>
<path d="M117.852 143.323V122.497L177.306 120.316V146.419L117.852 143.323Z" fill="white"/>
</svg>
