<svg width="2012" height="492" viewBox="0 0 2012 492" fill="none" xmlns="http://www.w3.org/2000/svg">
<path d="M176.854 345.248C123.057 286.68 90.1922 210.763 85.4872 129.394C134.823 104.004 189.282 90.9032 244.998 90.9032C300.726 90.9032 355.181 103.993 404.513 129.394C398.233 238.099 341.689 337.068 252.129 397.927C240.603 406.099 229.703 413.566 219.442 420.333C227.726 426.056 236.25 431.461 244.998 436.53C357.054 371.713 432.743 251.026 434 112.571C378.404 80.4061 313.85 62 244.998 62C176.15 62 111.6 80.4061 56 112.559C56.8551 207.536 92.7418 294.14 151.356 360.094C164.357 374.719 178.491 388.347 193.588 400.805C211.116 390.246 227.912 379.095 244.712 367.38C257.739 358.283 265.721 351.798 279.047 338.86C331.455 288.003 365.287 220.382 373.973 146.844C333.444 128.988 289.672 119.825 244.998 119.825C200.325 119.825 156.564 128.988 116.027 146.844C124.148 215.584 154.239 279.139 200.92 328.68C208.74 322.903 216.432 316.856 223.718 310.688C231.371 304.196 238.575 297.599 244.987 291.095C245.768 290.302 246.546 289.497 247.304 288.707C274.977 259.248 295.495 223.79 307.188 185.04C286.956 180.138 266.112 177.646 245.014 177.646C223.903 177.646 203.072 180.138 182.84 185.04C189.228 206.178 198.231 226.34 209.599 245.09C216.208 238.211 222.561 230.631 229.587 221.914C227.006 217.244 224.584 212.488 222.336 207.633C229.839 206.917 237.407 206.549 245.014 206.549C252.62 206.549 260.189 206.917 267.695 207.633C261.38 221.186 253.789 234.086 245.014 246.181C237.318 255.831 229.185 265.167 220.51 273.935C215.43 279.077 210.164 284.026 204.732 288.769L203.447 287.121C175.976 251.552 156.912 209.869 148.164 165.188C179.118 154.284 211.781 148.717 245.014 148.717C278.246 148.717 310.913 154.277 341.867 165.188C329.958 226.065 298.904 281.364 253.487 323.232C236.946 338.496 216.37 353.52 197.187 365.604C190.133 359.053 183.37 352.328 176.866 345.236L176.854 345.248Z" fill="#4A99F9"/>
<path d="M495.008 401.188C491.493 401.188 488.496 400.154 486.015 398.087C483.741 396.227 482.604 394.16 482.604 391.886V192.194C482.604 189.507 483.741 187.337 486.015 185.683C488.496 184.029 491.493 183.202 495.008 183.202C498.522 183.202 501.416 184.029 503.69 185.683C505.964 187.337 507.101 189.507 507.101 192.194V204.908C510.615 198.913 515.886 193.538 522.915 188.784C529.943 183.822 538.522 181.342 548.651 181.342C558.987 181.342 568.393 184.132 576.869 189.714C585.344 195.088 592.063 202.22 597.024 211.109C601.985 219.998 604.466 229.921 604.466 240.877V272.505C604.466 282.841 601.882 292.66 596.714 301.963C591.752 311.058 585.137 318.5 576.869 324.288C568.6 329.87 559.504 332.66 549.582 332.66C540.279 332.66 531.907 330.283 524.465 325.529C517.023 320.567 511.649 314.883 508.341 308.474V391.886C508.341 394.16 506.997 396.227 504.31 398.087C501.829 400.154 498.729 401.188 495.008 401.188ZM543.38 309.404C549.582 309.404 555.37 307.647 560.745 304.133C566.119 300.619 570.46 295.968 573.768 290.18C577.075 284.391 578.729 278.5 578.729 272.505V240.877C578.729 234.882 577.075 229.094 573.768 223.512C570.46 217.931 566.119 213.383 560.745 209.869C555.37 206.355 549.375 204.598 542.76 204.598C537.178 204.598 531.7 206.148 526.326 209.249C521.158 212.143 516.817 216.277 513.302 221.652C509.995 226.82 508.341 233.228 508.341 240.877V280.877C508.341 283.565 509.788 287.182 512.682 291.73C515.783 296.278 519.917 300.412 525.085 304.133C530.46 307.647 536.558 309.404 543.38 309.404Z" fill="#262626"/>
<path d="M644.82 330.18C641.305 330.18 638.308 329.25 635.827 327.389C633.553 325.322 632.417 323.151 632.417 320.877V192.194C632.417 189.507 633.553 187.337 635.827 185.683C638.308 184.029 641.305 183.202 644.82 183.202C648.334 183.202 651.228 184.029 653.502 185.683C655.776 187.337 656.913 189.507 656.913 192.194V206.768C659.187 202.427 662.287 198.396 666.215 194.675C670.143 190.747 674.691 187.543 679.859 185.063C685.233 182.582 691.125 181.342 697.533 181.342H708.076C710.763 181.342 713.037 182.479 714.898 184.753C716.965 187.026 717.998 189.817 717.998 193.125C717.998 196.225 716.965 198.913 714.898 201.187C713.037 203.461 710.763 204.598 708.076 204.598H697.533C690.918 204.598 684.613 206.458 678.618 210.179C672.623 213.9 667.662 219.171 663.735 225.993C660.014 232.608 658.153 240.67 658.153 250.179V320.877C658.153 323.151 656.809 325.322 654.122 327.389C651.641 329.25 648.541 330.18 644.82 330.18Z" fill="#262626"/>
<path d="M785.051 332.66C774.095 332.66 763.965 329.87 754.663 324.288C745.361 318.5 737.919 311.058 732.337 301.963C726.756 292.867 723.965 283.048 723.965 272.505V240.877C723.965 230.334 726.652 220.618 732.027 211.729C737.609 202.634 745.05 195.295 754.353 189.714C763.655 184.132 773.888 181.342 785.051 181.342C796.007 181.342 806.136 184.132 815.439 189.714C824.741 195.088 832.183 202.22 837.764 211.109C843.552 219.998 846.446 229.921 846.446 240.877V272.505C846.446 282.841 843.552 292.66 837.764 301.963C832.183 311.058 824.741 318.5 815.439 324.288C806.136 329.87 796.007 332.66 785.051 332.66ZM785.051 309.404C791.666 309.404 797.557 307.647 802.725 304.133C808.1 300.619 812.441 296.071 815.749 290.49C819.056 284.701 820.71 278.707 820.71 272.505V240.877C820.71 234.882 819.056 229.094 815.749 223.512C812.648 217.931 808.41 213.383 803.035 209.869C797.661 206.355 791.666 204.598 785.051 204.598C778.436 204.598 772.441 206.355 767.066 209.869C761.691 213.383 757.454 217.931 754.353 223.512C751.252 229.094 749.702 234.882 749.702 240.877V272.505C749.702 278.707 751.252 284.701 754.353 290.49C757.454 296.071 761.691 300.619 767.066 304.133C772.441 307.647 778.436 309.404 785.051 309.404Z" fill="#262626"/>
<path d="M919.49 332.971C909.154 332.971 899.644 331.73 890.962 329.25C882.487 326.562 875.768 323.151 870.807 319.017C866.053 314.883 863.675 310.645 863.675 306.304C863.675 304.03 864.192 301.549 865.226 298.862C866.466 296.174 868.016 293.797 869.877 291.73C871.944 289.663 874.321 288.629 877.009 288.629C879.903 288.629 882.9 289.869 886.001 292.35C889.309 294.624 893.34 296.898 898.094 299.172C903.055 301.446 909.877 302.583 918.559 302.583C927.862 302.583 933.96 301.136 936.854 298.242C939.955 295.348 941.505 292.35 941.505 289.249C941.505 284.701 939.645 281.187 935.924 278.707C932.41 276.226 927.862 274.262 922.28 272.815C916.699 271.161 910.704 269.404 904.296 267.544C898.094 265.683 892.203 263.306 886.621 260.412C881.04 257.311 876.492 253.177 872.978 248.009C869.463 242.634 867.706 235.709 867.706 227.233C867.706 219.792 869.463 212.556 872.978 205.528C876.492 198.499 882.28 192.711 890.342 188.163C898.404 183.409 909.36 181.032 923.211 181.032C931.686 181.032 939.645 181.962 947.087 183.822C954.735 185.476 960.937 187.853 965.691 190.954C970.446 194.055 972.823 197.466 972.823 201.187C972.823 203.047 972.203 205.528 970.963 208.629C969.722 211.523 967.965 214.21 965.691 216.691C963.624 219.171 961.04 220.412 957.939 220.412C955.666 220.412 952.875 219.688 949.567 218.241C946.466 216.587 942.849 215.037 938.715 213.59C934.58 212.143 929.619 211.419 923.831 211.419C918.663 211.419 914.528 212.143 911.428 213.59C908.327 215.037 906.053 216.794 904.606 218.861C903.159 220.928 902.435 223.099 902.435 225.373C902.435 229.094 904.192 231.988 907.707 234.055C911.221 236.122 915.769 237.879 921.35 239.327C927.138 240.774 933.133 242.427 939.335 244.288C945.743 245.942 951.738 248.422 957.319 251.73C963.107 255.037 967.759 259.585 971.273 265.373C974.787 270.955 976.544 278.293 976.544 287.389C976.544 301.239 971.583 312.299 961.66 320.567C951.945 328.836 937.888 332.971 919.49 332.971Z" fill="#262626"/>
<path d="M1029.26 332.971C1018.3 332.971 1008.79 329.663 1000.73 323.048C992.873 316.226 988.945 305.787 988.945 291.73C988.945 279.947 991.942 270.748 997.937 264.133C1004.14 257.518 1012.61 252.867 1023.36 250.179C1034.32 247.492 1046.93 246.148 1061.19 246.148H1073.91V242.117C1073.91 237.569 1072.98 233.125 1071.12 228.784C1069.46 224.443 1066.67 220.825 1062.74 217.931C1059.02 215.037 1053.65 213.59 1046.62 213.59C1038.76 213.59 1032.67 214.417 1028.33 216.071C1024.19 217.518 1020.99 219.068 1018.71 220.722C1016.44 222.375 1013.96 223.202 1011.27 223.202C1006.93 223.202 1003.52 221.032 1001.04 216.691C998.764 212.35 997.627 207.905 997.627 203.357C997.627 199.016 1000.21 195.192 1005.38 191.884C1010.75 188.37 1017.27 185.683 1024.91 183.822C1032.56 181.962 1040 181.032 1047.24 181.032C1063.36 181.032 1076.28 183.926 1086 189.714C1095.72 195.502 1102.74 202.944 1107.09 212.04C1111.63 221.135 1113.91 230.954 1113.91 241.497V317.156C1113.91 320.877 1112.05 323.978 1108.33 326.459C1104.6 328.939 1099.95 330.18 1094.37 330.18C1089.2 330.18 1084.86 328.939 1081.35 326.459C1078.04 323.978 1076.39 320.877 1076.39 317.156V308.474C1070.81 314.883 1064.19 320.567 1056.54 325.529C1049.1 330.49 1040 332.971 1029.26 332.971ZM1045.38 303.203C1049.72 303.203 1054.06 301.756 1058.4 298.862C1062.74 295.968 1066.36 292.247 1069.26 287.699C1072.36 283.151 1073.91 278.397 1073.91 273.435V266.924H1069.26C1062.43 266.924 1055.92 267.337 1049.72 268.164C1043.52 268.991 1038.45 270.851 1034.53 273.745C1030.81 276.433 1028.95 280.67 1028.95 286.459C1028.95 292.247 1030.5 296.484 1033.6 299.172C1036.9 301.859 1040.83 303.203 1045.38 303.203Z" fill="#262626"/>
<path d="M1160.33 330.18C1154.75 330.18 1150.09 329.043 1146.37 326.769C1142.65 324.288 1140.79 321.188 1140.79 317.467V157.776C1140.79 146.199 1143.27 135.863 1148.23 126.768C1153.2 117.465 1159.81 110.23 1168.08 105.062C1176.35 99.6874 1185.44 97 1195.37 97H1213.66C1218.62 97 1222.34 98.7571 1224.82 102.271C1227.51 105.786 1228.85 109.61 1228.85 113.744C1228.85 118.292 1227.51 122.323 1224.82 125.837C1222.34 129.145 1218.62 130.799 1213.66 130.799H1203.74C1199.4 130.799 1195.47 131.729 1191.96 133.589C1188.44 135.45 1185.65 138.034 1183.58 141.341C1181.72 144.649 1180.79 148.68 1180.79 153.434V182.892H1218.62C1221.93 182.892 1224.41 184.442 1226.06 187.543C1227.92 190.437 1228.85 193.745 1228.85 197.466C1228.85 201.187 1227.92 204.598 1226.06 207.698C1224.41 210.592 1221.93 212.04 1218.62 212.04H1180.79V317.467C1180.79 321.188 1178.72 324.288 1174.59 326.769C1170.66 329.043 1165.91 330.18 1160.33 330.18Z" fill="#262626"/>
<path d="M1308.58 332.971C1293.91 332.971 1280.88 330.387 1269.51 325.219C1258.35 319.844 1249.57 312.402 1243.16 302.893C1236.75 293.177 1233.54 282.014 1233.54 269.404V243.047C1233.54 231.885 1236.54 221.652 1242.54 212.35C1248.74 202.84 1256.9 195.295 1267.03 189.714C1277.37 183.926 1288.84 181.032 1301.45 181.032C1313.03 181.032 1323.57 183.512 1333.08 188.473C1342.8 193.435 1350.65 200.256 1356.65 208.939C1362.64 217.621 1365.64 227.75 1365.64 239.327C1365.64 248.215 1364.19 254.624 1361.3 258.551C1358.4 262.272 1354.68 264.65 1350.13 265.683C1345.79 266.51 1341.25 266.924 1336.49 266.924H1273.54V271.575C1273.54 280.464 1276.85 287.699 1283.47 293.28C1290.29 298.655 1299.07 301.342 1309.82 301.342C1316.65 301.342 1322.33 300.309 1326.88 298.242C1331.43 296.174 1335.35 294.211 1338.66 292.35C1341.97 290.49 1345.07 289.559 1347.96 289.559C1351.06 289.559 1353.75 290.593 1356.03 292.66C1358.3 294.727 1360.06 297.208 1361.3 300.102C1362.54 302.789 1363.16 305.167 1363.16 307.234C1363.16 310.748 1360.88 314.572 1356.34 318.707C1351.99 322.635 1345.69 326.045 1337.42 328.939C1329.36 331.627 1319.75 332.971 1308.58 332.971ZM1273.54 243.358H1318.82C1322.33 243.358 1324.71 242.841 1325.95 241.807C1327.4 240.567 1328.12 238.293 1328.12 234.985C1328.12 230.231 1326.78 225.993 1324.09 222.272C1321.61 218.551 1318.3 215.657 1314.17 213.59C1310.24 211.523 1305.79 210.489 1300.83 210.489C1296.08 210.489 1291.63 211.523 1287.5 213.59C1283.36 215.45 1279.95 218.241 1277.27 221.962C1274.78 225.476 1273.54 229.714 1273.54 234.675V243.358Z" fill="#262626"/>
<path d="M1444.2 332.04C1433.24 332.04 1423.73 330.49 1415.67 327.389C1407.61 324.082 1400.89 319.947 1395.51 314.986C1390.14 310.025 1386.21 304.547 1383.73 298.552C1381.25 292.557 1380.01 286.665 1380.01 280.877C1380.01 276.536 1380.73 273.642 1382.18 272.195C1383.84 270.748 1386.21 270.024 1389.31 270.024C1393.65 270.024 1396.55 270.851 1398 272.505C1399.44 273.952 1400.17 276.019 1400.17 278.707C1400.17 282.014 1400.79 285.735 1402.03 289.869C1403.47 293.797 1405.85 297.518 1409.16 301.032C1412.47 304.547 1416.91 307.441 1422.49 309.715C1428.07 311.988 1435.1 313.125 1443.58 313.125C1458.25 313.125 1469.42 309.404 1477.07 301.963C1484.71 294.314 1488.54 282.531 1488.54 266.614V260.722C1488.54 246.458 1484.51 236.122 1476.45 229.714C1468.38 223.099 1457.63 219.792 1444.2 219.792C1441.51 219.792 1439.55 218.861 1438.31 217.001C1437.07 215.14 1436.45 213.073 1436.45 210.799C1436.45 208.525 1437.07 206.458 1438.31 204.598C1439.55 202.737 1441.51 201.807 1444.2 201.807C1452.26 201.807 1459.18 200.67 1464.97 198.396C1470.97 195.915 1475.41 191.781 1478.31 185.993C1481.41 180.205 1482.96 172.246 1482.96 162.117C1482.96 148.68 1479.96 138.757 1473.97 132.349C1467.97 125.734 1458.46 122.427 1445.44 122.427C1437.38 122.427 1430.66 123.46 1425.28 125.527C1420.11 127.595 1416.08 130.385 1413.19 133.899C1410.3 137.207 1408.33 140.825 1407.3 144.752C1406.26 148.473 1405.75 151.987 1405.75 155.295C1405.75 158.396 1404.92 160.876 1403.27 162.737C1401.82 164.391 1399.34 165.218 1395.83 165.218C1392.93 165.218 1390.76 164.907 1389.31 164.287C1387.87 163.667 1386.83 162.427 1386.21 160.566C1385.59 158.706 1385.28 156.329 1385.28 153.434C1385.28 149.093 1386.11 144.132 1387.76 138.551C1389.62 132.969 1392.72 127.491 1397.07 122.116C1401.61 116.742 1407.81 112.297 1415.67 108.783C1423.53 105.269 1433.65 103.512 1446.06 103.512C1457.22 103.512 1467.04 105.269 1475.52 108.783C1483.99 112.297 1490.61 118.085 1495.36 126.147C1500.32 134.003 1502.8 144.649 1502.8 158.086C1502.8 172.143 1500.32 183.512 1495.36 192.194C1490.61 200.877 1484.61 206.975 1477.38 210.489C1486.47 214.21 1494.02 220.102 1500.01 228.164C1506.01 236.226 1509 247.078 1509 260.722V266.614C1509 282.531 1506.11 295.244 1500.32 304.753C1494.53 314.262 1486.68 321.188 1476.76 325.529C1467.04 329.87 1456.19 332.04 1444.2 332.04Z" fill="#4A99F9"/>
<path d="M1602.12 332.04C1590.13 332.04 1579.17 329.87 1569.25 325.529C1559.53 321.188 1551.78 314.159 1545.99 304.443C1540.2 294.727 1537.31 281.807 1537.31 265.683V169.869C1537.31 153.745 1540.2 140.825 1545.99 131.109C1551.78 121.393 1559.53 114.364 1569.25 110.023C1579.17 105.682 1590.33 103.512 1602.74 103.512C1613.07 103.512 1622.17 104.959 1630.02 107.853C1638.08 110.747 1644.8 114.778 1650.18 119.946C1655.55 125.114 1659.58 130.799 1662.27 137C1665.16 143.202 1666.61 149.714 1666.61 156.535C1666.61 159.843 1665.68 162.323 1663.82 163.977C1662.17 165.424 1659.89 166.148 1657 166.148C1654.11 166.148 1651.52 165.528 1649.25 164.287C1647.18 162.84 1646.15 160.566 1646.15 157.466C1646.15 150.23 1644.18 144.029 1640.26 138.861C1636.33 133.693 1630.95 129.662 1624.13 126.768C1617.52 123.874 1610.18 122.427 1602.12 122.427C1588.27 122.427 1577.41 126.251 1569.56 133.899C1561.91 141.548 1558.08 153.538 1558.08 169.869V217.001C1563.25 209.766 1569.87 204.598 1577.93 201.497C1586.2 198.189 1595.19 196.536 1604.91 196.536C1616.28 196.536 1626.61 198.396 1635.91 202.117C1645.22 205.838 1652.66 212.246 1658.24 221.342C1663.82 230.231 1666.61 242.531 1666.61 258.241V265.683C1666.61 281.807 1663.72 294.727 1657.93 304.443C1652.14 314.159 1644.39 321.188 1634.67 325.529C1625.16 329.87 1614.31 332.04 1602.12 332.04ZM1602.12 313.746C1615.97 313.746 1626.71 309.921 1634.36 302.273C1642.01 294.624 1645.84 282.738 1645.84 266.614V259.172C1645.84 242.841 1642.01 231.264 1634.36 224.443C1626.71 217.621 1615.97 214.21 1602.12 214.21C1588.68 214.21 1577.93 217.414 1569.87 223.823C1562.01 230.231 1558.08 241.084 1558.08 256.381V266.614C1558.08 282.738 1561.91 294.624 1569.56 302.273C1577.41 309.921 1588.27 313.746 1602.12 313.746Z" fill="#4A99F9"/>
<path d="M1759.5 332.04C1747.51 332.04 1736.65 329.87 1726.94 325.529C1717.22 321.188 1709.47 314.159 1703.68 304.443C1697.89 294.727 1695 281.807 1695 265.683V169.869C1695 153.745 1697.89 140.825 1703.68 131.109C1709.47 121.393 1717.12 114.364 1726.63 110.023C1736.34 105.682 1747.3 103.512 1759.5 103.512C1771.69 103.512 1782.65 105.682 1792.37 110.023C1802.08 114.364 1809.83 121.393 1815.62 131.109C1821.41 140.825 1824.3 153.745 1824.3 169.869V265.683C1824.3 281.807 1821.41 294.727 1815.62 304.443C1809.83 314.159 1802.08 321.188 1792.37 325.529C1782.65 329.87 1771.69 332.04 1759.5 332.04ZM1759.5 313.125C1773.35 313.125 1784.1 309.301 1791.75 301.652C1799.6 294.004 1803.53 282.014 1803.53 265.683V169.869C1803.53 153.538 1799.6 141.548 1791.75 133.899C1784.1 126.251 1773.35 122.427 1759.5 122.427C1745.65 122.427 1734.9 126.251 1727.25 133.899C1719.6 141.548 1715.78 153.538 1715.78 169.869V265.683C1715.78 282.014 1719.6 294.004 1727.25 301.652C1734.9 309.301 1745.65 313.125 1759.5 313.125ZM1759.81 229.404C1756.5 229.404 1753.71 228.267 1751.44 225.993C1749.37 223.719 1748.33 221.032 1748.33 217.931C1748.33 214.624 1749.37 211.936 1751.44 209.869C1753.71 207.802 1756.5 206.768 1759.81 206.768C1763.12 206.768 1765.8 207.802 1767.87 209.869C1769.94 211.936 1770.97 214.624 1770.97 217.931C1770.97 221.032 1769.94 223.719 1767.87 225.993C1765.8 228.267 1763.12 229.404 1759.81 229.404Z" fill="#4A99F9"/>
</svg>
