<svg width="2478" height="1511" viewBox="0 0 2478 1511" fill="none" xmlns="http://www.w3.org/2000/svg">
<path d="M256.478 590.733C256.478 579.226 253.701 569.306 248.145 560.973C242.987 552.243 234.059 547.878 221.361 547.878C214.615 547.878 208.861 549.069 204.1 551.449C199.338 553.83 194.18 557.203 188.624 561.568L176.125 546.688C185.251 539.148 195.37 531.807 206.481 524.665C217.988 517.126 230.289 510.578 243.384 505.023C256.478 499.468 270.565 494.904 285.644 491.333C300.723 487.762 316.595 485.976 333.261 485.976C351.117 485.976 366.394 488.754 379.092 494.309C391.79 499.864 402.305 506.61 410.638 514.546C419.368 522.086 425.915 530.22 430.28 538.95C434.645 547.283 437.225 554.426 438.018 560.378C445.954 549.267 455.279 539.148 465.993 530.022C477.104 520.895 489.008 513.158 501.706 506.809C514.801 500.063 528.49 494.904 542.775 491.333C557.457 487.762 572.536 485.976 588.012 485.976C619.756 485.976 648.525 492.523 674.317 505.618C700.11 518.713 722.133 538.156 740.386 563.949C759.036 589.741 773.321 621.685 783.241 659.778C793.161 697.872 798.122 741.917 798.122 791.915C798.122 849.849 791.971 899.252 779.67 940.123C767.766 980.597 751.893 1013.73 732.053 1039.52C712.609 1065.32 690.19 1084.16 664.794 1096.07C639.795 1107.58 614.201 1113.33 588.012 1113.33C566.187 1113.33 546.942 1111.15 530.276 1106.78C514.007 1102.42 499.92 1097.06 488.016 1090.71C476.112 1084.36 466.192 1078.01 458.255 1071.66C450.319 1064.92 443.97 1059.36 439.209 1055V1345.46C439.209 1350.62 438.415 1356.77 436.828 1363.91C435.24 1371.06 431.272 1377.8 424.923 1384.15C418.971 1390.9 409.845 1396.65 397.544 1401.41C385.639 1406.17 369.172 1408.56 348.141 1408.56C327.11 1408.56 310.444 1405.98 298.143 1400.82C286.239 1396.06 277.112 1390.1 270.764 1382.96C264.415 1376.22 260.446 1369.27 258.859 1362.13C257.272 1355.38 256.478 1349.83 256.478 1345.46V590.733ZM439.209 969.884C439.209 973.058 440.597 978.613 443.375 986.55C446.153 994.486 450.518 1002.62 456.47 1010.95C462.422 1019.29 469.961 1026.83 479.088 1033.57C488.611 1039.92 500.119 1043.09 513.61 1043.09C531.07 1043.09 545.95 1036.55 558.251 1023.45C570.552 1009.96 580.671 991.906 588.607 969.288C596.543 946.274 602.297 919.687 605.868 889.53C609.439 858.976 611.225 826.438 611.225 791.915C611.225 749.457 608.844 713.546 604.082 684.182C599.717 654.818 593.17 631.208 584.44 613.352C575.711 595.098 565.195 582.004 552.894 574.068C540.99 565.735 527.498 561.568 512.42 561.568C503.69 561.568 494.96 564.147 486.23 569.306C477.501 574.068 469.564 580.218 462.422 587.757C455.676 594.9 450.121 603.035 445.756 612.161C441.391 621.288 439.209 630.018 439.209 638.35V969.884Z" fill="#056CF2"/>
<path d="M991.375 1050.24C991.375 1055.4 990.383 1061.74 988.399 1069.28C986.812 1076.43 982.645 1083.37 975.9 1090.12C969.551 1096.47 960.226 1101.82 947.925 1106.19C935.624 1110.95 918.958 1113.33 897.927 1113.33C876.896 1113.33 860.428 1110.75 848.524 1105.59C836.62 1100.83 827.692 1095.08 821.74 1088.33C815.787 1081.59 812.018 1074.64 810.431 1067.5C809.24 1060.36 808.645 1054.6 808.645 1050.24V590.733C808.645 579.226 805.867 569.306 800.312 560.973C795.153 552.243 786.225 547.878 773.527 547.878C766.782 547.878 761.028 549.069 756.266 551.449C751.505 553.83 746.346 557.203 740.791 561.568L728.291 546.688C737.418 539.148 747.536 531.807 758.647 524.665C770.154 517.126 782.456 510.578 795.55 505.023C808.645 499.468 822.732 494.904 837.81 491.333C852.889 487.762 868.761 485.976 885.427 485.976C911.22 485.976 931.259 489.547 945.544 496.69C959.829 503.436 970.344 511.967 977.09 522.284C983.836 532.204 987.804 542.918 988.994 554.426C990.581 565.933 991.375 576.052 991.375 584.781V1050.24ZM790.193 350.268C790.193 339.157 792.574 328.642 797.336 318.722C802.494 308.405 809.438 299.476 818.168 291.937C827.295 284.398 837.612 278.446 849.119 274.081C861.024 269.716 873.92 267.533 887.808 267.533C901.3 267.533 913.799 269.716 925.306 274.081C937.211 278.446 947.528 284.398 956.258 291.937C964.987 299.476 971.733 308.405 976.495 318.722C981.653 328.642 984.232 339.157 984.232 350.268C984.232 361.775 981.653 372.489 976.495 382.409C971.733 392.329 964.987 401.059 956.258 408.599C947.528 415.741 937.211 421.495 925.306 425.86C913.799 430.225 901.3 432.407 887.808 432.407C873.92 432.407 861.024 430.225 849.119 425.86C837.612 421.495 827.295 415.741 818.168 408.599C809.438 401.059 802.494 392.329 797.336 382.409C792.574 372.489 790.193 361.775 790.193 350.268Z" fill="#056CF2"/>
<path d="M1216.17 647.874C1230.06 629.224 1244.94 610.375 1260.82 591.329C1276.69 571.885 1293.75 554.426 1312 538.95C1330.26 523.475 1350.1 510.777 1371.53 500.856C1392.95 490.936 1416.36 485.976 1441.76 485.976C1464.38 485.976 1483.23 490.539 1498.31 499.666C1513.38 508.396 1525.49 519.11 1534.61 531.807C1544.14 544.109 1550.68 557.005 1554.26 570.496C1558.22 583.988 1560.21 595.495 1560.21 605.019C1560.21 622.478 1557.83 640.731 1553.06 659.778C1548.7 678.428 1540.96 697.078 1529.85 715.728C1519.14 733.981 1504.65 751.838 1486.4 769.297C1468.15 786.36 1445.13 802.034 1417.36 816.319C1454.66 895.284 1490.96 963.336 1526.28 1020.48C1561.6 1077.22 1595.52 1123.85 1628.06 1160.35C1661 1197.25 1692.54 1224.44 1722.7 1241.9C1752.86 1259.36 1781.63 1268.08 1809.01 1268.08C1813.77 1268.08 1818.53 1267.49 1823.29 1266.3C1828.05 1265.11 1832.42 1263.72 1836.39 1262.13C1840.75 1260.55 1845.31 1258.56 1850.08 1256.18L1861.38 1277.01C1850.67 1282.97 1839.76 1288.52 1828.65 1293.68C1817.54 1299.23 1804.84 1304 1790.55 1307.96C1776.27 1311.93 1759.8 1315.11 1741.15 1317.49C1722.5 1319.87 1700.28 1321.06 1674.49 1321.06C1651.08 1321.06 1627.86 1318.28 1604.85 1312.73C1582.23 1307.17 1559.41 1297.25 1536.4 1282.97C1513.38 1268.68 1489.97 1249.63 1466.16 1225.82C1442.75 1202.02 1418.55 1171.86 1393.55 1135.35C1368.95 1098.85 1343.55 1055.4 1317.36 1005C1291.17 954.607 1263.99 895.681 1235.82 828.223C1273.91 800.05 1303.87 774.059 1325.69 750.25C1347.52 726.045 1363.99 704.221 1375.1 684.777C1386.21 665.333 1393.15 648.072 1395.93 632.994C1398.71 617.915 1400.1 605.019 1400.1 594.305C1400.1 592.718 1399.9 590.138 1399.5 586.567C1399.1 582.599 1397.71 578.829 1395.33 575.258C1393.35 571.687 1390.18 568.512 1385.81 565.735C1381.84 562.957 1376.09 561.568 1368.55 561.568C1353.87 561.568 1338.99 567.917 1323.91 580.615C1308.83 592.916 1294.35 608.391 1280.46 627.041C1266.97 645.295 1254.67 665.135 1243.55 686.563C1232.44 707.594 1223.32 726.839 1216.17 744.298V1051.43C1216.17 1056.59 1215.18 1062.74 1213.2 1069.88C1211.61 1077.02 1207.44 1083.77 1200.7 1090.12C1194.35 1096.47 1184.83 1101.82 1172.13 1106.19C1159.83 1110.95 1143.16 1113.33 1122.13 1113.33C1101.1 1113.33 1084.63 1110.75 1072.73 1105.59C1060.82 1100.83 1051.9 1095.08 1045.94 1088.33C1040.39 1081.59 1036.82 1074.64 1035.23 1067.5C1034.04 1060.36 1033.44 1054.6 1033.44 1050.24V282.414C1033.44 270.906 1030.67 260.986 1025.11 252.653C1019.95 243.923 1011.02 239.558 998.327 239.558C991.581 239.558 985.629 240.749 980.471 243.13C975.709 245.114 970.551 248.288 964.995 252.653L953.091 238.368C962.218 230.829 972.336 223.488 983.447 216.345C994.557 208.806 1006.66 202.258 1019.75 196.703C1033.25 191.148 1047.53 186.584 1062.61 183.013C1077.69 179.442 1093.56 177.656 1110.23 177.656C1136.02 177.656 1156.06 181.228 1170.34 188.37C1184.63 195.116 1195.14 203.647 1201.89 213.964C1208.64 223.884 1212.6 234.598 1213.79 246.106C1215.38 257.216 1216.17 267.136 1216.17 275.866V647.874Z" fill="#056CF2"/>
<path d="M1762.98 537.164V977.026C1762.98 998.057 1766.95 1012.74 1774.89 1021.07C1782.82 1029.01 1793.74 1032.98 1807.63 1032.98C1818.34 1032.98 1827.86 1030 1836.2 1024.05C1844.53 1018.1 1851.67 1011.35 1857.62 1003.81C1864.77 995.478 1870.92 985.756 1876.07 974.645L1894.53 982.978C1888.57 995.676 1881.43 1009.56 1873.1 1024.64C1865.16 1039.72 1854.45 1053.81 1840.96 1066.9C1827.47 1079.6 1810.4 1090.31 1789.77 1099.04C1769.53 1107.77 1743.94 1112.14 1712.99 1112.14C1695.53 1112.14 1678.66 1109.56 1662.39 1104.4C1646.52 1099.24 1632.24 1091.11 1619.54 1080C1607.24 1068.89 1597.32 1055 1589.78 1038.33C1582.24 1021.67 1578.47 1001.63 1578.47 978.217V537.164H1511.8V494.309C1522.92 494.309 1538.39 491.531 1558.23 485.976C1578.07 480.024 1598.31 470.302 1618.94 456.811C1639.97 443.319 1659.42 425.265 1677.27 402.646C1695.13 380.028 1707.83 352.053 1715.37 318.722H1762.98V494.309H1860C1891.75 494.309 1907.62 488.952 1907.62 478.238C1907.62 474.27 1905.64 471.691 1901.67 470.501C1897.7 468.913 1893.14 467.128 1887.98 465.144C1883.22 462.763 1878.85 459.588 1874.88 455.62C1870.92 451.652 1868.93 445.105 1868.93 435.978C1868.93 424.868 1872.3 416.138 1879.05 409.789C1886.19 403.44 1895.32 400.266 1906.43 400.266C1913.57 400.266 1919.72 401.853 1924.88 405.027C1930.44 407.805 1935 411.773 1938.57 416.932C1942.14 421.693 1944.72 427.249 1946.31 433.597C1948.29 439.946 1949.29 446.295 1949.29 452.644C1949.29 478.437 1941.75 499.071 1926.67 514.546C1911.99 529.625 1888.18 537.164 1855.24 537.164H1762.98Z" fill="#056CF2"/>
<path d="M1821.12 799.058C1821.12 747.076 1828.66 701.641 1843.74 662.754C1858.82 623.47 1878.86 590.733 1903.86 564.544C1929.26 538.355 1958.62 518.713 1991.95 505.618C2025.28 492.523 2060.2 485.976 2096.71 485.976C2133.21 485.976 2168.13 492.127 2201.47 504.428C2234.8 516.332 2263.96 534.784 2288.96 559.782C2314.36 584.781 2334.59 616.526 2349.67 655.016C2364.75 693.11 2372.29 738.346 2372.29 790.725C2372.29 842.707 2364.75 888.736 2349.67 928.814C2334.59 968.892 2314.36 1002.62 2288.96 1030C2263.96 1057.38 2234.8 1078.21 2201.47 1092.5C2168.13 1106.39 2133.21 1113.33 2096.71 1113.33C2060.2 1113.33 2025.28 1106.78 1991.95 1093.69C1958.62 1080.2 1929.26 1060.36 1903.86 1034.17C1878.86 1007.98 1858.82 975.241 1843.74 935.957C1828.66 896.673 1821.12 851.04 1821.12 799.058ZM2187.18 793.106C2187.18 761.361 2185.99 730.807 2183.61 701.443C2181.62 671.682 2177.46 645.295 2171.11 622.28C2164.76 599.265 2155.63 581.012 2143.73 567.52C2131.83 553.632 2116.15 546.688 2096.71 546.688C2077.26 546.688 2061.59 554.029 2049.69 568.711C2037.78 582.996 2028.66 602.043 2022.31 625.851C2015.96 649.263 2011.79 676.047 2009.81 706.205C2007.82 736.362 2006.83 767.313 2006.83 799.058C2006.83 830.802 2007.82 861.952 2009.81 892.506C2011.79 922.663 2015.96 949.646 2022.31 973.455C2028.66 997.263 2037.78 1016.51 2049.69 1031.19C2061.59 1045.48 2077.26 1052.62 2096.71 1052.62C2116.15 1052.62 2131.83 1045.08 2143.73 1030C2155.63 1014.92 2164.76 995.081 2171.11 970.479C2177.46 945.877 2181.62 918.1 2183.61 887.149C2185.99 856.198 2187.18 824.85 2187.18 793.106Z" fill="#056CF2"/>
</svg>
