<svg width="2019" height="764" viewBox="0 0 2019 764" fill="none" xmlns="http://www.w3.org/2000/svg">
<path d="M1431.06 686.12C1434.25 686.12 1437.06 686.696 1439.49 687.847C1441.93 688.997 1444.33 690.926 1446.7 693.634C1446.77 693.701 1446.84 693.735 1446.9 693.735C1446.97 693.735 1447.01 693.701 1447.01 693.634V692.924C1447.07 691.299 1447.68 689.945 1448.83 688.862C1449.98 687.712 1451.37 687.136 1453 687.136H1454.11C1455.67 687.136 1456.99 687.712 1458.07 688.862C1459.22 690.013 1459.8 691.367 1459.8 692.924V735.875C1459.8 754.152 1450.66 763.291 1432.38 763.291C1429.14 763.291 1425.72 763.02 1422.13 762.479C1420.5 762.208 1419.15 761.396 1418.07 760.042C1417.05 758.756 1416.54 757.267 1416.54 755.574C1416.54 754.22 1417.09 753.138 1418.17 752.325C1419.32 751.581 1420.57 751.377 1421.93 751.716C1425.18 752.528 1428.56 752.935 1432.08 752.935C1437.09 752.935 1440.74 751.614 1443.05 748.974C1445.35 746.401 1446.5 742.137 1446.5 736.18V733.032C1446.5 732.965 1446.46 732.931 1446.4 732.931C1446.33 732.931 1446.26 732.965 1446.19 733.032C1442.13 737.297 1437.09 739.429 1431.06 739.429C1425.11 739.429 1420.23 737.06 1416.44 732.321C1412.65 727.515 1410.76 720.915 1410.76 712.521C1410.76 704.127 1412.55 697.628 1416.14 693.025C1419.79 688.422 1424.77 686.12 1431.06 686.12ZM1931.34 686.12C1934.53 686.12 1937.33 686.696 1939.77 687.847C1942.21 688.997 1944.61 690.926 1946.98 693.634C1947.05 693.701 1947.12 693.735 1947.18 693.735C1947.25 693.735 1947.29 693.701 1947.29 693.634V692.924C1947.35 691.299 1947.96 689.945 1949.11 688.862C1950.26 687.712 1951.65 687.136 1953.28 687.136H1954.39C1955.95 687.136 1957.27 687.712 1958.35 688.862C1959.5 690.013 1960.08 691.367 1960.08 692.924V735.875C1960.08 754.152 1950.94 763.291 1932.66 763.291C1929.41 763.291 1926 763.02 1922.41 762.479C1920.78 762.208 1919.43 761.396 1918.35 760.042C1917.33 758.756 1916.82 757.266 1916.82 755.574C1916.82 754.221 1917.36 753.137 1918.45 752.325C1919.6 751.581 1920.85 751.377 1922.21 751.716C1925.45 752.528 1928.84 752.935 1932.36 752.935C1937.37 752.935 1941.02 751.614 1943.33 748.974C1945.63 746.401 1946.78 742.137 1946.78 736.18V733.032C1946.78 732.965 1946.74 732.931 1946.68 732.931C1946.61 732.931 1946.54 732.965 1946.47 733.032C1942.41 737.297 1937.37 739.429 1931.34 739.429C1925.39 739.429 1920.51 737.06 1916.72 732.321C1912.93 727.515 1911.04 720.915 1911.04 712.521C1911.04 704.127 1912.83 697.629 1916.42 693.025C1920.07 688.422 1925.05 686.12 1931.34 686.12ZM472.594 345.787C495.721 345.787 514.619 351.817 529.29 363.878C535.238 360.596 542.764 357.642 551.871 355.018C562.55 351.76 574.316 350.131 587.167 350.131H599.384L588.524 386.783H569.247C567.437 386.783 563.998 387.055 558.931 387.598C555.655 387.962 552.501 388.53 549.469 389.301C555.594 401.858 558.659 416.766 558.659 434.024C558.659 449.409 555.763 464.433 549.971 479.094C544.36 493.755 536.215 507.058 525.536 519.004C515.038 530.769 502.368 540.181 487.526 547.24C472.684 554.118 456.032 557.557 437.57 557.557C426.77 557.557 416.916 556.368 408.01 553.994C405.969 555.387 404.147 556.935 402.547 558.643C399.832 561.358 398.474 564.616 398.474 568.417C398.474 574.571 403.632 579.187 413.949 582.264C424.266 585.16 440.013 588.508 461.19 592.309C469.516 593.938 478.748 596.11 488.884 598.825C499.019 601.359 508.703 605.069 517.934 609.956C527.165 614.843 534.677 621.36 540.469 629.505C546.442 637.65 549.428 648.147 549.428 660.998C549.428 677.288 543.907 692.583 532.866 706.882C522.006 721.181 506.35 732.765 485.897 741.634C465.625 750.503 441.371 754.938 413.135 754.938C387.252 754.937 366.618 751.408 351.233 744.349C335.849 737.29 324.807 728.331 318.11 717.471C311.232 706.792 307.793 696.022 307.793 685.162C307.793 676.655 309.784 667.876 313.766 658.826C317.748 649.776 324.083 641.089 332.771 632.763C340.258 625.743 349.763 619.598 361.284 614.326C358.944 612.807 356.77 611.169 354.763 609.413C347.523 603.078 343.902 594.3 343.902 583.078C343.902 575.476 346.98 567.421 353.134 558.914C358.774 551.341 367.284 544.773 378.662 539.208C376.967 537.803 375.334 536.318 373.768 534.751C358.564 519.547 350.962 497.827 350.962 469.591C350.962 448.414 355.939 428.414 365.894 409.59C375.849 390.766 389.877 375.471 407.977 363.706C426.258 351.76 447.797 345.787 472.594 345.787ZM702.835 664.797C709.13 664.797 714.613 665.507 719.284 666.929C720.909 667.403 722.195 668.385 723.143 669.874C724.158 671.296 724.666 672.886 724.666 674.646V675.56C724.666 676.846 724.09 677.862 722.939 678.606C721.789 679.283 720.604 679.385 719.386 678.911C714.309 676.948 709.131 675.966 703.851 675.966C700.466 675.966 697.893 676.745 696.133 678.302C694.373 679.859 693.493 682.025 693.493 684.8C693.493 689.674 696.675 693.16 703.038 695.259C712.177 698.17 718.506 701.487 722.026 705.21C725.614 708.933 727.407 713.74 727.407 719.629C727.407 733.844 718.641 740.952 701.108 740.952C695.625 740.952 690.649 740.106 686.182 738.414C684.557 737.805 683.271 736.755 682.323 735.266C681.443 733.776 681.004 732.118 681.004 730.29V729.072C681.004 727.786 681.545 726.872 682.628 726.33C683.711 725.721 684.829 725.687 685.979 726.229C690.447 728.462 695.151 729.58 700.093 729.58C708.69 729.58 712.989 726.33 712.989 719.832C712.989 717.192 712.176 715.025 710.552 713.333C708.927 711.573 706.186 710.016 702.327 708.662C694.204 705.954 688.315 702.671 684.659 698.812C681.071 694.954 679.277 690.283 679.277 684.8C679.277 678.64 681.342 673.766 685.472 670.179C689.601 666.591 695.389 664.797 702.835 664.797ZM773.206 686.12C781.329 686.12 787.625 688.524 792.093 693.33C796.628 698.069 798.895 704.804 798.896 713.536C798.896 722.269 796.628 729.038 792.093 733.845C787.625 738.583 781.329 740.952 773.206 740.952C765.083 740.952 758.753 738.583 754.218 733.845C749.75 729.038 747.516 722.269 747.516 713.536C747.516 704.804 749.75 698.069 754.218 693.33C758.753 688.524 765.083 686.12 773.206 686.12ZM898.029 669.874C899.586 669.874 900.94 670.449 902.091 671.6C903.242 672.75 903.816 674.104 903.816 675.661V688.253C903.817 688.862 904.121 689.166 904.73 689.166H916.307C917.66 689.166 918.811 689.64 919.759 690.588C920.774 691.536 921.281 692.686 921.281 694.04C921.281 695.394 920.774 696.579 919.759 697.595C918.811 698.542 917.66 699.016 916.307 699.016H904.73C904.121 699.016 903.816 699.287 903.816 699.828V720.34C903.816 724.74 904.291 727.583 905.238 728.869C906.186 730.155 908.15 730.798 911.128 730.798C912.752 730.798 913.971 730.73 914.783 730.595C916.137 730.459 917.322 730.764 918.337 731.509C919.352 732.253 919.86 733.269 919.86 734.556C919.86 736.045 919.352 737.399 918.337 738.617C917.389 739.768 916.205 740.41 914.783 740.546C911.805 740.817 909.57 740.952 908.081 740.952C901.515 740.952 896.912 739.564 894.271 736.789C891.632 733.946 890.312 728.902 890.312 721.659V699.828C890.311 699.287 890.007 699.016 889.397 699.016H884.523C883.17 699.016 882.019 698.542 881.071 697.595C880.124 696.579 879.65 695.394 879.65 694.04C879.65 692.686 880.124 691.536 881.071 690.588C882.019 689.64 883.17 689.166 884.523 689.166H889.397C890.007 689.166 890.311 688.862 890.312 688.253V675.661C890.312 674.104 890.854 672.75 891.937 671.6C893.087 670.449 894.441 669.874 895.998 669.874H898.029ZM1056.71 686.12C1065.38 686.12 1071.44 687.677 1074.89 690.791C1078.34 693.905 1080.07 699.355 1080.07 707.14V734.149C1080.07 735.706 1079.49 737.06 1078.34 738.211C1077.26 739.362 1075.94 739.937 1074.38 739.937H1073.27C1071.64 739.937 1070.25 739.396 1069.1 738.312C1067.95 737.162 1067.34 735.774 1067.28 734.149V732.728C1067.28 732.66 1067.24 732.626 1067.17 732.626C1067.04 732.626 1066.97 732.66 1066.97 732.728C1062.84 738.211 1057.19 740.952 1050.01 740.952C1045.41 740.952 1041.59 739.463 1038.54 736.484C1035.56 733.438 1034.07 729.512 1034.07 724.706C1034.07 718.817 1036.31 714.247 1040.77 710.998C1045.31 707.749 1052.21 706.124 1061.49 706.124H1065.65C1066.26 706.124 1066.56 705.819 1066.56 705.21V704.397C1066.56 701.284 1065.82 699.118 1064.33 697.899C1062.84 696.613 1060.2 695.97 1056.41 695.97C1052.48 695.97 1047.68 696.681 1041.99 698.103C1040.77 698.441 1039.66 698.238 1038.64 697.493C1037.63 696.681 1037.12 695.631 1037.12 694.345C1037.12 692.788 1037.59 691.4 1038.54 690.182C1039.49 688.896 1040.71 688.117 1042.19 687.847C1047.34 686.696 1052.18 686.12 1056.71 686.12ZM1184.49 686.12C1199.52 686.12 1207.24 694.65 1207.64 711.709C1207.71 713.333 1207.13 714.688 1205.92 715.771C1204.7 716.854 1203.28 717.394 1201.65 717.395H1173.93C1173.32 717.395 1173.08 717.699 1173.22 718.309C1173.69 722.844 1175.18 726.161 1177.69 728.26C1180.26 730.29 1183.98 731.306 1188.86 731.306C1191.9 731.306 1195.29 730.799 1199.01 729.783C1200.23 729.445 1201.35 729.647 1202.36 730.392C1203.45 731.136 1203.99 732.152 1203.99 733.438C1203.99 734.995 1203.51 736.383 1202.56 737.602C1201.68 738.752 1200.5 739.463 1199.01 739.733C1195.22 740.546 1191.29 740.952 1187.23 740.952C1178.36 740.952 1171.53 738.651 1166.72 734.048C1161.98 729.377 1159.61 722.539 1159.61 713.536C1159.61 704.601 1161.75 697.798 1166.01 693.127C1170.27 688.456 1176.43 686.12 1184.49 686.12ZM1623.52 686.12C1638.55 686.12 1646.27 694.65 1646.67 711.709C1646.74 713.333 1646.17 714.688 1644.95 715.771C1643.73 716.854 1642.31 717.394 1640.68 717.395H1612.96C1612.35 717.395 1612.12 717.699 1612.25 718.309C1612.73 722.844 1614.22 726.161 1616.72 728.26C1619.29 730.291 1623.02 731.306 1627.89 731.306C1630.94 731.306 1634.32 730.798 1638.04 729.783C1639.26 729.445 1640.38 729.647 1641.4 730.392C1642.48 731.136 1643.02 732.152 1643.02 733.438C1643.02 734.995 1642.55 736.383 1641.6 737.602C1640.72 738.752 1639.53 739.463 1638.04 739.733C1634.25 740.546 1630.33 740.952 1626.27 740.952C1617.4 740.952 1610.56 738.651 1605.75 734.048C1601.02 729.377 1598.65 722.539 1598.65 713.536C1598.65 704.601 1600.78 697.798 1605.04 693.127C1609.31 688.456 1615.47 686.12 1623.52 686.12ZM1691.12 686.12C1706.14 686.12 1713.86 694.65 1714.27 711.709C1714.34 713.333 1713.76 714.688 1712.54 715.771C1711.32 716.853 1709.9 717.395 1708.28 717.395H1680.56C1679.95 717.395 1679.71 717.699 1679.84 718.309C1680.32 722.844 1681.81 726.161 1684.31 728.26C1686.88 730.291 1690.61 731.306 1695.48 731.306C1698.53 731.306 1701.91 730.799 1705.64 729.783C1706.86 729.445 1707.97 729.647 1708.99 730.392C1710.07 731.136 1710.61 732.152 1710.61 733.438C1710.61 734.995 1710.14 736.383 1709.19 737.602C1708.31 738.752 1707.13 739.463 1705.64 739.733C1701.85 740.546 1697.92 740.952 1693.86 740.952C1684.99 740.952 1678.15 738.651 1673.35 734.048C1668.61 729.377 1666.24 722.539 1666.24 713.536C1666.24 704.601 1668.37 697.798 1672.64 693.127C1676.9 688.456 1683.06 686.12 1691.12 686.12ZM848.595 664.797C850.896 664.797 852.894 664.932 854.586 665.203C856.007 665.406 857.158 666.117 858.038 667.335C858.986 668.486 859.46 669.806 859.46 671.295C859.46 672.513 858.952 673.496 857.937 674.24C856.921 674.917 855.804 675.154 854.586 674.951C853.232 674.816 852.251 674.748 851.642 674.748C848.189 674.748 845.819 675.492 844.533 676.981C843.315 678.403 842.706 681.212 842.706 685.409V688.253C842.706 688.862 843.01 689.166 843.619 689.166H853.57C854.924 689.166 856.076 689.64 857.023 690.588C857.971 691.535 858.444 692.686 858.444 694.04C858.444 695.394 857.971 696.579 857.023 697.595C856.076 698.542 854.924 699.016 853.57 699.016H843.619C843.01 699.016 842.706 699.287 842.706 699.828V734.149C842.706 735.706 842.13 737.06 840.979 738.211C839.829 739.362 838.475 739.937 836.918 739.937H834.379C832.822 739.936 831.468 739.362 830.317 738.211C829.234 737.06 828.693 735.706 828.693 734.149V699.828C828.693 699.287 828.388 699.016 827.779 699.016H822.397C821.044 699.016 819.893 698.542 818.945 697.595C817.998 696.579 817.523 695.394 817.523 694.04C817.524 692.686 817.998 691.536 818.945 690.588C819.893 689.64 821.044 689.166 822.397 689.166H827.779C828.388 689.166 828.693 688.862 828.693 688.253V685.815C828.693 678.505 830.284 673.191 833.466 669.874C836.647 666.489 841.69 664.797 848.595 664.797ZM950.976 687.136C952.668 687.136 954.158 687.678 955.444 688.761C956.73 689.844 957.509 691.198 957.779 692.822L964.075 728.666C964.075 728.734 964.109 728.768 964.177 728.768C964.312 728.768 964.38 728.734 964.38 728.666L970.776 692.822C971.115 691.198 971.928 689.844 973.214 688.761C974.5 687.678 975.955 687.136 977.58 687.136H982.657C984.349 687.136 985.839 687.678 987.125 688.761C988.411 689.844 989.189 691.198 989.46 692.822L995.857 728.666C995.858 728.734 995.925 728.768 996.061 728.768C996.128 728.767 996.162 728.733 996.162 728.666L1002.46 692.822C1002.8 691.198 1003.61 689.844 1004.89 688.761C1006.18 687.678 1007.64 687.136 1009.26 687.136H1011.39C1012.88 687.136 1014.07 687.712 1014.95 688.862C1015.89 690.013 1016.16 691.299 1015.76 692.721L1005.61 734.353C1005.2 735.977 1004.32 737.331 1002.96 738.414C1001.68 739.429 1000.19 739.937 998.497 739.937H993.42C991.795 739.936 990.34 739.396 989.054 738.312C987.768 737.229 986.956 735.875 986.617 734.251L980.017 699.422C980.017 699.354 979.983 699.32 979.915 699.32C979.848 699.32 979.814 699.354 979.813 699.422L973.214 734.251C972.943 735.875 972.164 737.229 970.878 738.312C969.592 739.395 968.102 739.937 966.41 739.937H961.333C959.708 739.936 958.219 739.429 956.865 738.414C955.511 737.331 954.632 735.977 954.226 734.353L944.071 692.721C943.733 691.299 944.004 690.013 944.884 688.862C945.831 687.712 947.016 687.136 948.438 687.136H950.976ZM1112.52 687.136C1114.07 687.136 1115.43 687.712 1116.58 688.862C1117.73 690.013 1118.3 691.367 1118.3 692.924V697.188C1118.3 697.256 1118.34 697.29 1118.41 697.29C1118.54 697.29 1118.61 697.256 1118.61 697.188C1120.57 694.481 1123.14 692.28 1126.33 690.588C1129.51 688.828 1132.99 687.745 1136.79 687.339C1138.21 687.204 1139.43 687.678 1140.44 688.761C1141.46 689.776 1141.96 690.995 1141.96 692.416C1141.96 693.837 1141.46 695.056 1140.44 696.071C1139.43 697.087 1138.21 697.662 1136.79 697.798C1124.8 698.746 1118.81 704.838 1118.81 716.075V734.149C1118.81 735.706 1118.24 737.06 1117.09 738.211C1115.94 739.362 1114.58 739.936 1113.02 739.937H1110.49C1108.93 739.936 1107.57 739.362 1106.42 738.211C1105.27 737.06 1104.7 735.706 1104.7 734.149V692.924C1104.7 691.367 1105.27 690.013 1106.42 688.862C1107.57 687.712 1108.93 687.136 1110.49 687.136H1112.52ZM1311.12 665.812C1312.68 665.813 1314.03 666.387 1315.18 667.538C1316.33 668.689 1316.91 670.043 1316.91 671.6C1316.91 673.156 1316.33 674.51 1315.18 675.661C1314.03 676.744 1312.68 677.286 1311.12 677.286H1285.94C1285.33 677.286 1285.02 677.591 1285.02 678.2V694.548C1285.02 695.157 1285.33 695.462 1285.94 695.462H1309.39C1310.95 695.462 1312.24 696.004 1313.25 697.087C1314.34 698.17 1314.88 699.456 1314.88 700.945C1314.88 702.435 1314.34 703.721 1313.25 704.804C1312.24 705.819 1310.95 706.327 1309.39 706.327H1285.94C1285.33 706.327 1285.02 706.632 1285.02 707.241V727.549C1285.02 728.158 1285.33 728.463 1285.94 728.463H1311.12C1312.68 728.463 1314.03 729.039 1315.18 730.189C1316.33 731.273 1316.91 732.593 1316.91 734.149C1316.91 735.706 1316.33 737.06 1315.18 738.211C1314.03 739.362 1312.68 739.936 1311.12 739.937H1276.6C1275.04 739.936 1273.68 739.362 1272.53 738.211C1271.38 737.06 1270.81 735.706 1270.81 734.149V671.6C1270.81 670.043 1271.38 668.689 1272.53 667.538C1273.68 666.387 1275.04 665.813 1276.6 665.812H1311.12ZM1371.49 686.12C1377.65 686.12 1382.12 687.88 1384.9 691.4C1387.74 694.853 1389.16 700.64 1389.16 708.764V734.149C1389.16 735.706 1388.59 737.06 1387.43 738.211C1386.28 739.362 1384.93 739.936 1383.37 739.937H1381.65C1380.09 739.937 1378.74 739.362 1377.58 738.211C1376.5 737.06 1375.96 735.706 1375.96 734.149V709.779C1375.96 704.702 1375.28 701.25 1373.93 699.422C1372.64 697.526 1370.31 696.579 1366.92 696.579C1364.15 696.579 1361.58 697.764 1359.21 700.133C1356.84 702.502 1355.65 705.04 1355.65 707.748V734.149C1355.65 735.706 1355.08 737.06 1353.93 738.211C1352.78 739.362 1351.42 739.936 1349.86 739.937H1347.83C1346.28 739.936 1344.92 739.362 1343.77 738.211C1342.62 737.06 1342.05 735.706 1342.05 734.149V692.924C1342.05 691.367 1342.62 690.013 1343.77 688.862C1344.92 687.712 1346.28 687.136 1347.83 687.136H1349.15C1350.78 687.136 1352.13 687.712 1353.21 688.862C1354.37 689.945 1354.98 691.299 1355.04 692.924V693.634C1355.04 693.701 1355.08 693.735 1355.14 693.735C1355.21 693.735 1355.28 693.701 1355.35 693.634C1359.95 688.625 1365.33 686.12 1371.49 686.12ZM1496.44 687.136C1498 687.136 1499.35 687.712 1500.5 688.862C1501.65 690.013 1502.23 691.367 1502.23 692.924V734.149C1502.23 735.706 1501.65 737.06 1500.5 738.211C1499.35 739.362 1498 739.936 1496.44 739.937H1493.8C1492.24 739.936 1490.89 739.362 1489.74 738.211C1488.59 737.06 1488.01 735.706 1488.01 734.149V692.924C1488.01 691.367 1488.59 690.013 1489.74 688.862C1490.89 687.712 1492.24 687.136 1493.8 687.136H1496.44ZM1559.89 686.12C1566.05 686.12 1570.52 687.88 1573.29 691.4C1576.14 694.853 1577.56 700.641 1577.56 708.764V734.149C1577.56 735.706 1576.98 737.06 1575.83 738.211C1574.68 739.362 1573.33 739.937 1571.77 739.937H1570.04C1568.49 739.936 1567.13 739.362 1565.98 738.211C1564.9 737.06 1564.36 735.706 1564.36 734.149V709.779C1564.36 704.702 1563.68 701.25 1562.33 699.422C1561.04 697.527 1558.71 696.579 1555.32 696.579C1552.55 696.579 1549.97 697.764 1547.6 700.133C1545.23 702.502 1544.05 705.04 1544.05 707.748V734.149C1544.05 735.706 1543.47 737.06 1542.32 738.211C1541.17 739.362 1539.82 739.937 1538.26 739.937H1536.23C1534.67 739.937 1533.32 739.362 1532.17 738.211C1531.02 737.06 1530.44 735.706 1530.44 734.149V692.924C1530.44 691.367 1531.02 690.013 1532.17 688.862C1533.32 687.712 1534.67 687.136 1536.23 687.136H1537.55C1539.18 687.136 1540.53 687.712 1541.61 688.862C1542.76 689.945 1543.37 691.299 1543.44 692.924V693.634C1543.44 693.701 1543.47 693.735 1543.54 693.735C1543.61 693.735 1543.68 693.701 1543.75 693.634C1548.35 688.625 1553.73 686.12 1559.89 686.12ZM1744.21 687.136C1745.77 687.136 1747.12 687.712 1748.27 688.862C1749.42 690.013 1750 691.367 1750 692.924V697.188C1750 697.256 1750.03 697.29 1750.1 697.29C1750.24 697.29 1750.3 697.256 1750.3 697.188C1752.27 694.481 1754.84 692.28 1758.02 690.588C1761.2 688.828 1764.69 687.745 1768.48 687.339C1769.9 687.203 1771.12 687.678 1772.14 688.761C1773.15 689.776 1773.66 690.995 1773.66 692.416C1773.66 693.837 1773.15 695.056 1772.14 696.071C1771.12 697.087 1769.9 697.662 1768.48 697.798C1756.5 698.746 1750.51 704.838 1750.51 716.075V734.149C1750.51 735.706 1749.93 737.06 1748.78 738.211C1747.63 739.362 1746.28 739.936 1744.72 739.937H1742.18C1740.62 739.937 1739.27 739.362 1738.12 738.211C1736.97 737.06 1736.39 735.706 1736.39 734.149V692.924C1736.39 691.367 1736.97 690.013 1738.12 688.862C1739.27 687.712 1740.62 687.136 1742.18 687.136H1744.21ZM1808.32 687.136C1809.88 687.136 1811.23 687.712 1812.38 688.862C1813.53 690.013 1814.11 691.367 1814.11 692.924V734.149C1814.11 735.706 1813.53 737.06 1812.38 738.211C1811.23 739.362 1809.88 739.937 1808.32 739.937H1805.68C1804.12 739.937 1802.77 739.362 1801.62 738.211C1800.47 737.06 1799.89 735.706 1799.89 734.149V692.924C1799.89 691.367 1800.47 690.013 1801.62 688.862C1802.77 687.712 1804.12 687.136 1805.68 687.136H1808.32ZM1871.77 686.12C1877.93 686.12 1882.4 687.88 1885.17 691.4C1888.02 694.853 1889.44 700.641 1889.44 708.764V734.149C1889.44 735.706 1888.86 737.06 1887.71 738.211C1886.56 739.362 1885.21 739.937 1883.65 739.937H1881.93C1880.37 739.937 1879.01 739.361 1877.86 738.211C1876.78 737.06 1876.24 735.706 1876.24 734.149V709.779C1876.24 704.702 1875.56 701.25 1874.21 699.422C1872.92 697.527 1870.59 696.579 1867.2 696.579C1864.43 696.579 1861.85 697.764 1859.49 700.133C1857.12 702.502 1855.93 705.04 1855.93 707.748V734.149C1855.93 735.706 1855.36 737.06 1854.21 738.211C1853.05 739.362 1851.7 739.936 1850.14 739.937H1848.11C1846.56 739.937 1845.2 739.362 1844.05 738.211C1842.9 737.06 1842.32 735.706 1842.32 734.149V692.924C1842.32 691.367 1842.9 690.013 1844.05 688.862C1845.2 687.712 1846.56 687.136 1848.11 687.136H1849.43C1851.06 687.136 1852.41 687.712 1853.49 688.862C1854.64 689.945 1855.25 691.299 1855.32 692.924V693.634C1855.32 693.701 1855.36 693.735 1855.42 693.735C1855.49 693.735 1855.56 693.701 1855.63 693.634C1860.23 688.624 1865.61 686.12 1871.77 686.12ZM773.206 695.97C769.212 695.97 766.2 697.391 764.169 700.234C762.206 703.01 761.224 707.444 761.224 713.536C761.224 719.629 762.206 724.096 764.169 726.939C766.2 729.715 769.212 731.103 773.206 731.103C777.2 731.102 780.179 729.715 782.142 726.939C784.172 724.096 785.188 719.628 785.188 713.536C785.187 707.444 784.172 703.01 782.142 700.234C780.179 697.391 777.2 695.97 773.206 695.97ZM1061.49 714.552C1051.81 714.552 1046.97 717.53 1046.97 723.487C1046.97 725.653 1047.58 727.414 1048.79 728.768C1050.08 730.121 1051.71 730.798 1053.67 730.798C1057.53 730.798 1060.64 729.613 1063.01 727.244C1065.38 724.807 1066.56 721.49 1066.56 717.293V715.466C1066.56 714.857 1066.26 714.552 1065.65 714.552H1061.49ZM1435.33 696.274C1427.88 696.274 1424.16 701.69 1424.16 712.521C1424.16 718.139 1425.14 722.337 1427.1 725.112C1429.14 727.887 1431.88 729.275 1435.33 729.275C1438.38 729.275 1440.98 728.192 1443.15 726.025C1445.38 723.859 1446.5 721.321 1446.5 718.41V707.443C1446.5 704.33 1445.38 701.69 1443.15 699.523C1440.98 697.357 1438.38 696.274 1435.33 696.274ZM1935.61 696.274C1928.16 696.274 1924.44 701.69 1924.44 712.521C1924.44 718.139 1925.42 722.337 1927.38 725.112C1929.41 727.888 1932.16 729.275 1935.61 729.275C1938.65 729.275 1941.26 728.192 1943.43 726.025C1945.66 723.859 1946.78 721.321 1946.78 718.41V707.443C1946.78 704.33 1945.66 701.69 1943.43 699.523C1941.26 697.357 1938.65 696.275 1935.61 696.274ZM401.259 628.508C394.849 630.652 388.671 633.608 382.727 637.378C375.487 642.265 369.423 647.966 364.536 654.482C359.83 660.998 357.478 668.148 357.478 675.931C357.478 686.61 362.727 695.389 373.225 702.267C383.723 709.326 398.746 712.855 418.294 712.855C433.498 712.855 446.892 710.773 458.476 706.61C470.06 702.628 479.11 697.379 485.626 690.863C492.323 684.347 495.671 677.288 495.671 669.687C495.671 660.818 492.051 654.03 484.811 649.324C477.571 644.799 468.159 641.269 456.575 638.735C444.991 636.382 432.683 634.12 419.651 631.948C413.369 630.975 407.238 629.827 401.259 628.508ZM1184.69 695.563C1181.24 695.564 1178.57 696.545 1176.67 698.508C1174.84 700.403 1173.69 703.484 1173.22 707.748C1173.22 708.29 1173.49 708.561 1174.03 708.561H1193.93C1194.48 708.561 1194.75 708.29 1194.75 707.748C1194.48 699.625 1191.12 695.563 1184.69 695.563ZM1623.73 695.563C1620.27 695.564 1617.6 696.545 1615.71 698.508C1613.88 700.403 1612.73 703.484 1612.25 707.748C1612.25 708.29 1612.52 708.561 1613.07 708.561H1632.97C1633.51 708.561 1633.78 708.29 1633.78 707.748C1633.51 699.625 1630.16 695.563 1623.73 695.563ZM1691.32 695.563C1687.87 695.563 1685.19 696.545 1683.3 698.508C1681.47 700.403 1680.32 703.484 1679.84 707.748C1679.84 708.29 1680.12 708.561 1680.66 708.561H1700.56C1701.1 708.56 1701.37 708.289 1701.37 707.748C1701.1 699.625 1697.75 695.564 1691.32 695.563ZM1496.44 663.781C1498 663.781 1499.35 664.357 1500.5 665.508C1501.65 666.659 1502.23 668.012 1502.23 669.569V670.179C1502.23 671.736 1501.65 673.09 1500.5 674.24C1499.35 675.391 1498 675.966 1496.44 675.966H1493.8C1492.24 675.966 1490.89 675.391 1489.74 674.24C1488.59 673.09 1488.01 671.736 1488.01 670.179V669.569C1488.01 668.013 1488.59 666.659 1489.74 665.508C1490.89 664.357 1492.24 663.781 1493.8 663.781H1496.44ZM1808.32 663.781C1809.88 663.781 1811.23 664.357 1812.38 665.508C1813.53 666.659 1814.11 668.012 1814.11 669.569V670.179C1814.11 671.736 1813.53 673.09 1812.38 674.24C1811.23 675.391 1809.88 675.966 1808.32 675.966H1805.68C1804.12 675.966 1802.77 675.391 1801.62 674.24C1800.47 673.09 1799.89 671.736 1799.89 670.179V669.569C1799.89 668.012 1800.47 666.659 1801.62 665.508C1802.77 664.357 1804.12 663.781 1805.68 663.781H1808.32ZM720.312 345.787C747.462 345.787 768.096 352.484 782.214 365.878C796.513 379.272 803.662 396.738 803.662 418.277C803.662 430.947 800.947 442.803 795.518 453.844C790.269 464.704 782.304 474.207 771.625 482.352C761.127 490.315 748.005 496.56 732.258 501.085C716.511 505.429 698.139 507.601 677.144 507.601C666.827 507.601 656.871 507.058 647.278 505.972C641.539 505.214 636.48 504.357 632.102 503.404C632.292 519.608 634.726 532.682 639.405 542.625C645.197 554.933 653.342 563.621 663.84 568.688C674.338 573.575 685.831 576.019 698.32 576.019C711.352 576.019 724.746 574.39 738.502 571.132C752.439 567.874 765.2 563.349 776.784 557.557L772.168 603.983C761.67 609.956 749 614.934 734.158 618.916C719.497 622.717 703.207 624.617 685.288 624.617C659.405 624.617 638.047 619.459 621.214 609.142C604.562 598.825 592.163 584.978 584.019 567.603C575.874 550.046 571.802 530.407 571.802 508.688C571.802 487.873 575.331 467.781 582.39 448.414C589.449 428.866 599.494 411.4 612.526 396.015C625.739 380.63 641.396 368.412 659.496 359.362C677.777 350.312 698.049 345.787 720.312 345.787ZM914.081 350.945H972.103L963.687 396.286H906.31L878.436 558.914C878.436 568.145 881.15 573.756 886.58 575.747C892.01 577.738 901.694 578.734 915.631 578.734H931.378L918.074 624.617H874.905C854.633 624.617 840.244 619.368 831.737 608.87C823.23 598.191 818.977 585.883 818.977 571.946C818.977 570.86 819.158 568.869 819.52 565.974C819.882 563.078 820.786 557.014 822.234 547.783C823.863 538.371 826.398 523.71 829.837 503.8C833.276 483.709 838.073 456.287 844.227 421.535C845.622 413.616 847.109 405.2 848.69 396.286H810.832L823.863 350.945H856.77C860.234 331.565 864.016 310.478 868.118 287.686L925.947 281.713L914.081 350.945ZM1053.29 370.193C1056.27 367.453 1059.41 364.928 1062.71 362.62C1071.94 356.285 1081.8 351.488 1092.3 348.23C1102.98 344.972 1113.84 343.344 1124.88 343.344C1146.42 343.344 1164.52 348.502 1179.18 358.819C1190.29 366.497 1199.31 376.305 1206.26 388.241C1219.53 374.643 1234.95 363.734 1252.55 355.513C1271.91 346.463 1293.18 341.938 1316.35 341.938C1341.51 341.938 1362.41 347.277 1379.07 357.956C1392.98 366.728 1403.92 378.029 1411.9 391.856C1425.63 377.227 1441.76 365.58 1460.29 356.919C1479.66 347.869 1500.93 343.344 1524.09 343.344C1549.25 343.344 1570.16 348.683 1586.81 359.362C1603.46 369.86 1615.86 383.978 1624.01 401.716C1632.33 419.273 1636.5 438.731 1636.5 460.089C1636.5 481.447 1632.6 501.99 1624.82 521.719C1617.04 541.267 1606.09 558.824 1591.97 574.39C1577.85 589.775 1561.11 601.993 1541.74 611.043C1522.37 620.093 1501.11 624.617 1477.94 624.617C1452.78 624.617 1431.87 619.368 1415.22 608.87C1401.36 599.98 1390.38 588.706 1382.29 575.049C1368.58 589.465 1352.49 600.996 1334 609.637C1314.63 618.687 1293.36 623.212 1270.19 623.212C1245.04 623.212 1224.13 617.963 1207.48 607.465C1196.8 600.617 1187.83 592.355 1180.58 582.68C1170.51 594.089 1158.73 603.455 1145.24 610.771C1128.41 620.002 1109.13 624.617 1087.41 624.617C1066.06 624.617 1048.14 619.64 1033.66 609.685C1024.62 603.355 1016.84 595.615 1010.34 586.463L1002.16 619.188H941.89L1013.57 211.938H1081.44L1053.29 370.193ZM1764.28 343.344C1781.65 343.344 1797.13 345.334 1810.71 349.316C1824.28 353.298 1835.77 358.005 1845.19 363.435L1830.52 417.734C1821.11 410.856 1810.34 404.793 1798.22 399.544C1786.09 394.295 1772.24 391.671 1756.68 391.671C1744.19 391.671 1733.87 394.024 1725.73 398.729C1717.76 403.254 1713.78 410.856 1713.78 421.535C1713.78 433.119 1718.67 441.265 1728.44 445.971C1738.4 450.677 1751.07 455.926 1766.45 461.718C1779.3 466.424 1790.07 471.944 1798.76 478.279C1807.45 484.433 1813.96 492.126 1818.31 501.356C1822.83 510.406 1825.09 521.628 1825.09 535.022C1825.09 547.33 1822.65 558.914 1817.76 569.774C1813.06 580.634 1805.91 590.228 1796.32 598.554C1786.72 606.699 1774.87 613.124 1760.75 617.83C1746.63 622.355 1730.25 624.617 1711.61 624.617C1694.77 624.617 1678.67 622.717 1663.28 618.916C1647.9 614.934 1633.96 610.137 1621.47 604.526L1637.22 546.969C1647.9 553.485 1660.02 559.639 1673.6 565.431C1687.35 571.223 1701.65 574.118 1716.49 574.118C1730.43 574.118 1740.57 571.132 1746.9 565.159C1753.42 559.186 1756.68 551.856 1756.68 543.168C1756.68 532.851 1753.24 525.158 1746.36 520.09C1739.66 515.022 1729.35 510.225 1715.41 505.7C1703.1 501.537 1692.06 496.741 1682.29 491.311C1672.51 485.881 1664.82 478.731 1659.21 469.862C1653.6 460.993 1650.79 449.409 1650.79 435.11C1650.79 417.734 1655.14 402.168 1663.82 388.412C1672.69 374.475 1685.54 363.525 1702.38 355.561C1719.21 347.416 1739.84 343.344 1764.28 343.344ZM1963.32 347.688H2018.68L2008.91 403.073H1953.89L1928.54 551.855C1928.54 560 1930.9 564.978 1935.6 566.788C1940.49 568.417 1949 569.231 1961.12 569.231H1980.13L1963.84 624.617H1917.14C1895.96 624.617 1880.76 618.916 1871.53 607.513C1862.48 596.11 1857.95 582.806 1857.95 567.603C1857.95 566.517 1858.14 564.526 1858.5 561.63C1858.86 558.734 1859.76 552.761 1861.21 543.711C1862.66 534.48 1865.1 520.09 1868.54 500.542C1871.98 480.813 1876.69 453.844 1882.66 419.635C1883.61 414.339 1884.6 408.819 1885.63 403.073H1849.81L1865.56 347.688H1895.56C1898.86 329.31 1902.43 309.4 1906.28 287.958L1974.7 280.898L1963.32 347.688ZM1105.33 398.729C1087.96 398.729 1073.48 403.888 1061.89 414.205C1050.31 424.522 1041.62 437.825 1035.83 454.115C1030.04 470.405 1027.14 487.6 1027.14 505.7C1027.14 525.248 1030.94 540.724 1038.54 552.127C1046.33 563.53 1059.54 569.231 1078.18 569.231C1093.57 569.231 1106.96 564.525 1118.37 555.113C1129.77 545.52 1138.55 532.85 1144.7 517.104C1151.04 501.357 1154.2 484.162 1154.2 465.519C1154.2 445.609 1150.31 429.499 1142.53 417.191C1134.93 404.884 1122.53 398.73 1105.33 398.729ZM1514.86 398.729C1499.3 398.729 1485.45 403.436 1473.32 412.848C1461.38 422.26 1451.97 434.839 1445.09 450.586C1438.39 466.333 1435.04 483.618 1435.04 502.442C1435.04 523.076 1439.39 539.366 1448.07 551.312C1456.76 563.258 1469.79 569.231 1487.17 569.231C1502.92 569.231 1516.76 564.435 1528.71 554.842C1540.84 545.249 1550.25 532.579 1556.95 516.832C1563.64 500.904 1566.99 483.619 1566.99 464.976C1566.99 444.342 1562.56 428.142 1553.69 416.377C1545 404.612 1532.06 398.73 1514.86 398.729ZM1307.12 397.323C1291.55 397.323 1277.71 402.029 1265.58 411.441C1253.63 420.853 1244.22 433.433 1237.34 449.18C1230.65 464.927 1227.3 482.212 1227.3 501.036C1227.3 521.67 1231.64 537.96 1240.33 549.906C1249.02 561.852 1262.05 567.825 1279.42 567.825C1295.17 567.825 1309.02 563.029 1320.96 553.436C1333.09 543.843 1342.5 531.173 1349.2 515.426C1355.9 499.498 1359.25 482.212 1359.25 463.569C1359.25 442.935 1354.81 426.736 1345.94 414.971C1337.25 403.206 1324.31 397.323 1307.12 397.323ZM464.991 389.227C451.959 389.227 440.828 392.847 431.597 400.087C422.366 407.146 415.307 416.468 410.42 428.052C405.533 439.455 403.09 451.944 403.09 465.519C403.09 481.265 406.619 493.483 413.678 502.171C420.737 510.678 430.963 514.932 444.357 514.932C457.208 514.932 468.249 511.311 477.48 504.071C486.892 496.831 494.042 487.329 498.929 475.564C503.997 463.799 506.531 451.219 506.531 437.825C506.531 422.078 503.001 410.042 495.942 401.716C488.883 393.39 478.566 389.227 464.991 389.227ZM716.511 394.386C703.298 394.386 691.261 397.915 680.401 404.974C669.722 412.033 660.491 421.716 652.708 434.024C646.581 443.572 641.519 454.185 637.523 465.864C641.184 466.845 644.707 467.636 648.093 468.233C654.428 469.319 661.758 469.862 670.084 469.862C691.985 469.862 708.999 467.51 721.126 462.804C733.253 457.917 741.67 451.853 746.376 444.613C751.263 437.373 753.706 430.223 753.706 423.164C753.706 415.562 751.715 409.68 747.733 405.517C743.932 401.354 739.136 398.458 733.344 396.829C727.552 395.2 721.941 394.386 716.511 394.386ZM436.066 270.935C452.712 276.916 454.793 299.544 439.708 308.646L360.902 354.941L314.348 433.747C305.505 448.832 282.877 446.751 276.896 430.105L189.768 183.807L436.066 270.935ZM215.181 0.000976562C331.742 0.0916764 426.581 92.567 430.554 207.821L140.694 136.664L213.418 430.725C95.1816 429.812 0.0191815 333.512 0.00195312 215.676C-0.123169 96.564 96.0689 0.12613 215.181 0.000976562Z" fill="white"/>
</svg>
