<svg width="2107" height="852" viewBox="0 0 2107 852" fill="none" xmlns="http://www.w3.org/2000/svg">
<path d="M1519.28 774.183C1522.46 774.183 1525.27 774.758 1527.7 775.909C1530.14 777.06 1532.54 778.989 1534.91 781.696C1534.98 781.764 1535.05 781.798 1535.12 781.798C1535.18 781.798 1535.22 781.764 1535.22 781.696V780.986C1535.28 779.362 1535.89 778.008 1537.04 776.925C1538.2 775.774 1539.58 775.198 1541.21 775.198H1542.33C1543.88 775.198 1545.2 775.774 1546.29 776.925C1547.44 778.076 1548.01 779.429 1548.01 780.986V823.938C1548.01 842.215 1538.87 851.353 1520.6 851.354C1517.35 851.354 1513.93 851.083 1510.34 850.541C1508.72 850.27 1507.36 849.458 1506.28 848.104C1505.26 846.818 1504.75 845.329 1504.75 843.637C1504.75 842.283 1505.3 841.2 1506.38 840.388C1507.53 839.643 1508.78 839.44 1510.14 839.778C1513.39 840.591 1516.77 840.997 1520.29 840.997C1525.3 840.997 1528.96 839.676 1531.26 837.036C1533.56 834.464 1534.71 830.199 1534.71 824.242V821.095C1534.71 821.027 1534.68 820.993 1534.61 820.993C1534.54 820.993 1534.47 821.027 1534.41 821.095C1530.34 825.359 1525.3 827.491 1519.28 827.491C1513.32 827.491 1508.44 825.122 1504.65 820.384C1500.86 815.578 1498.97 808.977 1498.97 800.583C1498.97 792.189 1500.76 785.691 1504.35 781.088C1508 776.485 1512.98 774.183 1519.28 774.183ZM2019.55 774.183C2022.74 774.183 2025.55 774.758 2027.98 775.909C2030.42 777.06 2032.82 778.989 2035.19 781.696C2035.26 781.764 2035.33 781.798 2035.39 781.798C2035.46 781.798 2035.5 781.764 2035.5 781.696V780.986C2035.56 779.362 2036.17 778.008 2037.32 776.925C2038.48 775.774 2039.86 775.198 2041.49 775.198H2042.6C2044.16 775.198 2045.48 775.774 2046.56 776.925C2047.71 778.076 2048.29 779.43 2048.29 780.986V823.938C2048.29 842.215 2039.15 851.354 2020.87 851.354C2017.62 851.354 2014.21 851.083 2010.62 850.541C2008.99 850.27 2007.64 849.458 2006.56 848.104C2005.54 846.818 2005.03 845.329 2005.03 843.637C2005.03 842.283 2005.58 841.2 2006.66 840.388C2007.81 839.643 2009.06 839.44 2010.42 839.778C2013.67 840.591 2017.05 840.997 2020.57 840.997C2025.58 840.997 2029.23 839.676 2031.54 837.036C2033.84 834.464 2034.99 830.199 2034.99 824.242V821.095C2034.99 821.027 2034.95 820.993 2034.89 820.993C2034.82 820.993 2034.75 821.027 2034.68 821.095C2030.62 825.359 2025.58 827.491 2019.55 827.491C2013.6 827.491 2008.72 825.122 2004.93 820.384C2001.14 815.578 1999.25 808.977 1999.25 800.583C1999.25 792.189 2001.04 785.691 2004.63 781.088C2008.28 776.485 2013.26 774.183 2019.55 774.183ZM560.805 433.85C583.932 433.85 602.83 439.88 617.501 451.94C623.449 448.658 630.975 445.704 640.082 443.08C650.761 439.822 662.527 438.193 675.378 438.193H687.595L676.735 474.846H657.458C655.648 474.846 652.209 475.117 647.142 475.66C643.866 476.024 640.712 476.593 637.68 477.363C643.805 489.921 646.87 504.828 646.87 522.087C646.87 537.472 643.974 552.495 638.182 567.156C632.571 581.817 624.426 595.121 613.747 607.066C603.249 618.831 590.579 628.244 575.737 635.303C560.895 642.181 544.243 645.619 525.781 645.619C514.981 645.619 505.127 644.431 496.221 642.057C494.18 643.449 492.358 644.998 490.758 646.705C488.043 649.42 486.685 652.678 486.685 656.479C486.685 662.633 491.843 667.249 502.16 670.326C512.477 673.222 528.224 676.57 549.401 680.371C557.727 682 566.959 684.173 577.095 686.888C587.23 689.422 596.914 693.132 606.145 698.019C615.376 702.906 622.888 709.422 628.68 717.567C634.652 725.712 637.639 736.21 637.639 749.061C637.639 765.351 632.118 780.645 621.077 794.944C610.217 809.243 594.561 820.827 574.108 829.696C553.836 838.565 529.582 843 501.346 843C475.463 843 454.829 839.47 439.444 832.411C424.059 825.352 413.018 816.393 406.321 805.533C399.443 794.854 396.004 784.085 396.004 773.225C396.004 764.718 397.995 755.939 401.977 746.889C405.959 737.839 412.294 729.151 420.981 720.825C428.469 713.806 437.974 707.661 449.495 702.389C447.154 700.869 444.98 699.232 442.974 697.476C435.734 691.141 432.113 682.363 432.113 671.141C432.113 663.539 435.191 655.484 441.345 646.977C446.985 639.403 455.495 632.836 466.873 627.271C465.177 625.865 463.545 624.38 461.979 622.813C446.775 607.609 439.173 585.889 439.173 557.653C439.173 536.477 444.15 516.476 454.104 497.652C464.059 478.828 478.087 463.534 496.188 451.769C514.468 439.823 536.008 433.85 560.805 433.85ZM791.046 752.859C797.341 752.859 802.824 753.57 807.495 754.991C809.12 755.465 810.406 756.447 811.354 757.937C812.369 759.358 812.877 760.949 812.877 762.709V763.622C812.877 764.908 812.301 765.924 811.15 766.669C810 767.346 808.815 767.447 807.597 766.974C802.52 765.011 797.341 764.028 792.062 764.028C788.677 764.028 786.104 764.807 784.344 766.364C782.584 767.921 781.704 770.087 781.704 772.862C781.704 777.736 784.886 781.223 791.249 783.321C800.388 786.232 806.717 789.549 810.237 793.272C813.825 796.996 815.618 801.802 815.618 807.691C815.618 821.907 806.852 829.015 789.319 829.015C783.836 829.015 778.86 828.169 774.393 826.477C772.768 825.867 771.482 824.817 770.534 823.328C769.654 821.839 769.215 820.18 769.215 818.353V817.135C769.215 815.849 769.756 814.934 770.839 814.393C771.922 813.783 773.04 813.749 774.19 814.291C778.658 816.525 783.362 817.643 788.304 817.643C796.901 817.643 801.2 814.393 801.2 807.895C801.2 805.254 800.387 803.088 798.763 801.396C797.138 799.636 794.397 798.078 790.538 796.725C782.415 794.017 776.526 790.734 772.87 786.875C769.282 783.016 767.488 778.345 767.488 772.862C767.488 766.702 769.553 761.829 773.683 758.241C777.812 754.653 783.6 752.859 791.046 752.859ZM861.417 774.183C869.54 774.183 875.836 776.586 880.304 781.393C884.839 786.131 887.106 792.866 887.106 801.599C887.106 810.331 884.839 817.101 880.304 821.907C875.836 826.646 869.54 829.015 861.417 829.015C853.294 829.015 846.964 826.646 842.429 821.907C837.961 817.101 835.727 810.331 835.727 801.599C835.727 792.866 837.961 786.131 842.429 781.393C846.964 776.586 853.294 774.183 861.417 774.183ZM986.24 757.937C987.797 757.937 989.151 758.511 990.302 759.662C991.452 760.813 992.027 762.167 992.027 763.724V776.315C992.027 776.924 992.332 777.228 992.941 777.229H1004.52C1005.87 777.229 1007.02 777.703 1007.97 778.65C1008.99 779.598 1009.49 780.749 1009.49 782.103C1009.49 783.456 1008.99 784.642 1007.97 785.657C1007.02 786.605 1005.87 787.078 1004.52 787.078H992.941C992.332 787.078 992.027 787.349 992.027 787.891V808.402C992.027 812.802 992.502 815.645 993.449 816.932C994.397 818.218 996.36 818.86 999.339 818.86C1000.96 818.86 1002.18 818.793 1002.99 818.657C1004.35 818.522 1005.53 818.827 1006.55 819.571C1007.56 820.316 1008.07 821.332 1008.07 822.618C1008.07 824.107 1007.56 825.461 1006.55 826.68C1005.6 827.83 1004.42 828.473 1002.99 828.608C1000.02 828.879 997.781 829.015 996.292 829.015C989.726 829.015 985.122 827.627 982.482 824.852C979.842 822.008 978.522 816.965 978.522 809.722V787.891C978.522 787.349 978.218 787.078 977.608 787.078H972.734C971.381 787.078 970.23 786.605 969.282 785.657C968.335 784.642 967.861 783.456 967.861 782.103C967.861 780.749 968.335 779.598 969.282 778.65C970.23 777.703 971.381 777.229 972.734 777.229H977.608C978.218 777.229 978.522 776.924 978.522 776.315V763.724C978.523 762.167 979.064 760.813 980.147 759.662C981.298 758.511 982.652 757.937 984.209 757.937H986.24ZM1144.93 774.183C1153.59 774.183 1159.65 775.74 1163.1 778.854C1166.55 781.967 1168.28 787.417 1168.28 795.202V822.212C1168.28 823.769 1167.7 825.123 1166.55 826.273C1165.47 827.424 1164.15 827.999 1162.59 827.999H1161.48C1159.85 827.999 1158.46 827.458 1157.31 826.375C1156.16 825.224 1155.55 823.836 1155.49 822.212V820.79C1155.49 820.722 1155.45 820.689 1155.38 820.688C1155.25 820.688 1155.18 820.722 1155.18 820.79C1151.05 826.273 1145.4 829.015 1138.22 829.015C1133.62 829.015 1129.8 827.525 1126.75 824.547C1123.77 821.501 1122.28 817.575 1122.28 812.769C1122.28 806.879 1124.52 802.31 1128.98 799.061C1133.52 795.811 1140.42 794.187 1149.7 794.187H1153.86C1154.47 794.187 1154.78 793.882 1154.78 793.272V792.46C1154.78 789.346 1154.03 787.18 1152.54 785.962C1151.05 784.676 1148.41 784.032 1144.62 784.032C1140.69 784.032 1135.89 784.743 1130.2 786.165C1128.98 786.503 1127.87 786.3 1126.85 785.556C1125.84 784.743 1125.33 783.693 1125.33 782.407C1125.33 780.85 1125.8 779.463 1126.75 778.244C1127.7 776.958 1128.92 776.18 1130.41 775.909C1135.55 774.758 1140.39 774.183 1144.93 774.183ZM1272.7 774.183C1287.73 774.183 1295.45 782.713 1295.85 799.771C1295.92 801.396 1295.35 802.75 1294.13 803.833C1292.91 804.916 1291.49 805.457 1289.86 805.457H1262.14C1261.53 805.457 1261.3 805.762 1261.43 806.371C1261.9 810.907 1263.39 814.224 1265.9 816.322C1268.47 818.353 1272.19 819.368 1277.07 819.368C1280.11 819.368 1283.5 818.861 1287.22 817.846C1288.44 817.507 1289.56 817.709 1290.57 818.454C1291.66 819.199 1292.2 820.215 1292.2 821.501C1292.2 823.058 1291.72 824.446 1290.78 825.664C1289.9 826.815 1288.71 827.525 1287.22 827.796C1283.43 828.608 1279.5 829.015 1275.44 829.015C1266.58 829.015 1259.74 826.714 1254.93 822.11C1250.19 817.439 1247.82 810.602 1247.82 801.599C1247.82 792.663 1249.96 785.86 1254.22 781.189C1258.49 776.519 1264.65 774.183 1272.7 774.183ZM1711.73 774.183C1726.76 774.183 1734.48 782.713 1734.89 799.771C1734.95 801.396 1734.38 802.75 1733.16 803.833C1731.94 804.916 1730.52 805.457 1728.9 805.457H1701.17C1700.57 805.457 1700.33 805.762 1700.46 806.371C1700.94 810.907 1702.43 814.224 1704.93 816.322C1707.5 818.353 1711.23 819.368 1716.1 819.368C1719.15 819.368 1722.53 818.861 1726.25 817.846C1727.47 817.507 1728.59 817.709 1729.61 818.454C1730.69 819.199 1731.23 820.215 1731.23 821.501C1731.23 823.058 1730.76 824.446 1729.81 825.664C1728.93 826.815 1727.74 827.525 1726.25 827.796C1722.46 828.608 1718.54 829.015 1714.48 829.015C1705.61 829.015 1698.77 826.714 1693.96 822.11C1689.23 817.439 1686.86 810.602 1686.86 801.599C1686.86 792.663 1688.99 785.86 1693.25 781.189C1697.52 776.519 1703.68 774.183 1711.73 774.183ZM1779.33 774.183C1794.36 774.183 1802.07 782.713 1802.48 799.771C1802.55 801.396 1801.97 802.75 1800.75 803.833C1799.53 804.916 1798.11 805.457 1796.49 805.457H1768.77C1768.16 805.457 1767.92 805.762 1768.06 806.371C1768.53 810.907 1770.02 814.224 1772.52 816.322C1775.1 818.353 1778.82 819.368 1783.69 819.368C1786.74 819.368 1790.12 818.861 1793.85 817.846C1795.07 817.507 1796.18 817.71 1797.2 818.454C1798.28 819.199 1798.82 820.215 1798.82 821.501C1798.82 823.058 1798.35 824.446 1797.4 825.664C1796.52 826.815 1795.34 827.525 1793.85 827.796C1790.06 828.608 1786.13 829.015 1782.07 829.015C1773.2 829.015 1766.36 826.713 1761.56 822.11C1756.82 817.439 1754.45 810.602 1754.45 801.599C1754.45 792.663 1756.58 785.86 1760.85 781.189C1765.11 776.519 1771.27 774.183 1779.33 774.183ZM936.806 752.859C939.107 752.859 941.105 752.995 942.797 753.266C944.218 753.469 945.369 754.179 946.249 755.397C947.197 756.548 947.671 757.868 947.671 759.357C947.671 760.576 947.163 761.558 946.147 762.303C945.132 762.979 944.015 763.217 942.797 763.014C941.443 762.878 940.462 762.811 939.853 762.811C936.4 762.811 934.03 763.555 932.744 765.044C931.526 766.466 930.917 769.275 930.917 773.472V776.315C930.917 776.924 931.221 777.228 931.83 777.229H941.781C943.135 777.229 944.287 777.703 945.234 778.65C946.182 779.598 946.655 780.749 946.655 782.103C946.655 783.456 946.182 784.642 945.234 785.657C944.287 786.605 943.135 787.078 941.781 787.078H931.83C931.221 787.078 930.917 787.349 930.917 787.891V822.212C930.917 823.769 930.341 825.123 929.19 826.273C928.04 827.424 926.686 827.999 925.129 827.999H922.59C921.033 827.999 919.679 827.424 918.528 826.273C917.445 825.123 916.904 823.769 916.904 822.212V787.891C916.904 787.349 916.599 787.078 915.99 787.078H910.608C909.255 787.078 908.104 786.605 907.156 785.657C906.209 784.642 905.734 783.456 905.734 782.103C905.734 780.749 906.209 779.598 907.156 778.65C908.104 777.703 909.255 777.229 910.608 777.229H915.99C916.599 777.228 916.904 776.924 916.904 776.315V773.878C916.904 766.567 918.495 761.253 921.677 757.937C924.858 754.552 929.901 752.859 936.806 752.859ZM1039.19 775.198C1040.88 775.198 1042.37 775.74 1043.66 776.823C1044.94 777.906 1045.72 779.26 1045.99 780.885L1052.29 816.729C1052.29 816.796 1052.32 816.83 1052.39 816.83C1052.52 816.83 1052.59 816.796 1052.59 816.729L1058.99 780.885C1059.33 779.26 1060.14 777.906 1061.42 776.823C1062.71 775.74 1064.17 775.198 1065.79 775.198H1070.87C1072.56 775.198 1074.05 775.74 1075.34 776.823C1076.62 777.906 1077.4 779.26 1077.67 780.885L1084.07 816.729C1084.07 816.796 1084.14 816.83 1084.27 816.83C1084.34 816.83 1084.37 816.796 1084.37 816.729L1090.67 780.885C1091.01 779.26 1091.82 777.906 1093.11 776.823C1094.39 775.74 1095.85 775.198 1097.47 775.198H1099.6C1101.09 775.198 1102.28 775.774 1103.16 776.925C1104.11 778.075 1104.38 779.362 1103.97 780.783L1093.82 822.415C1093.41 824.04 1092.53 825.394 1091.18 826.477C1089.89 827.492 1088.4 827.999 1086.71 827.999H1081.63C1080.01 827.999 1078.55 827.458 1077.26 826.375C1075.98 825.292 1075.17 823.938 1074.83 822.313L1068.23 787.484C1068.23 787.417 1068.19 787.383 1068.13 787.383C1068.06 787.383 1068.02 787.417 1068.02 787.484L1061.42 822.313C1061.15 823.938 1060.37 825.292 1059.09 826.375C1057.8 827.458 1056.31 827.999 1054.62 827.999H1049.54C1047.92 827.999 1046.43 827.492 1045.08 826.477C1043.72 825.394 1042.84 824.04 1042.44 822.415L1032.28 780.783C1031.94 779.362 1032.21 778.076 1033.09 776.925C1034.04 775.774 1035.23 775.198 1036.65 775.198H1039.19ZM1200.73 775.198C1202.28 775.198 1203.64 775.774 1204.79 776.925C1205.94 778.076 1206.52 779.429 1206.52 780.986V785.251C1206.52 785.318 1206.55 785.353 1206.62 785.353C1206.75 785.352 1206.82 785.318 1206.82 785.251C1208.78 782.543 1211.36 780.343 1214.54 778.65C1217.72 776.89 1221.21 775.808 1225 775.401C1226.42 775.266 1227.64 775.74 1228.65 776.823C1229.67 777.839 1230.17 779.057 1230.17 780.479C1230.17 781.9 1229.67 783.118 1228.65 784.134C1227.64 785.149 1226.42 785.725 1225 785.86C1213.01 786.808 1207.02 792.901 1207.02 804.138V822.212C1207.02 823.769 1206.45 825.123 1205.3 826.273C1204.15 827.424 1202.79 827.999 1201.24 827.999H1198.7C1197.14 827.999 1195.79 827.424 1194.63 826.273C1193.48 825.123 1192.91 823.769 1192.91 822.212V780.986C1192.91 779.43 1193.48 778.076 1194.63 776.925C1195.79 775.774 1197.14 775.198 1198.7 775.198H1200.73ZM1399.33 753.875C1400.89 753.875 1402.24 754.45 1403.39 755.601C1404.54 756.751 1405.12 758.105 1405.12 759.662C1405.12 761.219 1404.54 762.573 1403.39 763.724C1402.24 764.807 1400.89 765.349 1399.33 765.349H1374.15C1373.54 765.349 1373.24 765.654 1373.24 766.263V782.61C1373.24 783.219 1373.54 783.524 1374.15 783.524H1397.6C1399.16 783.524 1400.45 784.066 1401.46 785.149C1402.55 786.233 1403.09 787.519 1403.09 789.008C1403.09 790.497 1402.55 791.783 1401.46 792.866C1400.45 793.881 1399.16 794.39 1397.6 794.39H1374.15C1373.54 794.39 1373.24 794.695 1373.24 795.304V815.611C1373.24 816.22 1373.54 816.525 1374.15 816.525H1399.33C1400.89 816.525 1402.24 817.101 1403.39 818.252C1404.54 819.335 1405.12 820.655 1405.12 822.212C1405.12 823.769 1404.54 825.123 1403.39 826.273C1402.24 827.424 1400.89 827.999 1399.33 827.999H1364.81C1363.25 827.999 1361.9 827.424 1360.75 826.273C1359.59 825.123 1359.02 823.769 1359.02 822.212V759.662C1359.02 758.105 1359.59 756.751 1360.75 755.601C1361.9 754.45 1363.25 753.875 1364.81 753.875H1399.33ZM1459.7 774.183C1465.86 774.183 1470.33 775.943 1473.11 779.463C1475.95 782.915 1477.37 788.703 1477.37 796.826V822.212C1477.37 823.769 1476.8 825.123 1475.65 826.273C1474.49 827.424 1473.14 827.999 1471.58 827.999H1469.86C1468.3 827.999 1466.95 827.424 1465.8 826.273C1464.71 825.123 1464.17 823.769 1464.17 822.212V797.842C1464.17 792.765 1463.49 789.312 1462.14 787.484C1460.85 785.589 1458.52 784.642 1455.13 784.642C1452.36 784.642 1449.79 785.826 1447.42 788.195C1445.05 790.564 1443.86 793.103 1443.86 795.811V822.212C1443.86 823.769 1443.29 825.123 1442.14 826.273C1440.99 827.424 1439.63 827.999 1438.08 827.999H1436.04C1434.49 827.999 1433.13 827.424 1431.98 826.273C1430.83 825.123 1430.26 823.769 1430.26 822.212V780.986C1430.26 779.43 1430.83 778.076 1431.98 776.925C1433.13 775.774 1434.49 775.198 1436.04 775.198H1437.36C1438.99 775.198 1440.34 775.774 1441.43 776.925C1442.58 778.008 1443.19 779.362 1443.25 780.986V781.696C1443.25 781.764 1443.29 781.798 1443.36 781.798C1443.42 781.798 1443.49 781.764 1443.56 781.696C1448.16 776.687 1453.54 774.183 1459.7 774.183ZM1584.65 775.198C1586.21 775.198 1587.56 775.774 1588.71 776.925C1589.86 778.076 1590.44 779.429 1590.44 780.986V822.212C1590.44 823.769 1589.86 825.123 1588.71 826.273C1587.56 827.424 1586.21 827.999 1584.65 827.999H1582.01C1580.45 827.999 1579.1 827.424 1577.95 826.273C1576.8 825.123 1576.22 823.769 1576.22 822.212V780.986C1576.22 779.43 1576.8 778.076 1577.95 776.925C1579.1 775.774 1580.45 775.198 1582.01 775.198H1584.65ZM1648.1 774.183C1654.26 774.183 1658.73 775.943 1661.5 779.463C1664.35 782.915 1665.77 788.703 1665.77 796.826V822.212C1665.77 823.769 1665.19 825.123 1664.04 826.273C1662.89 827.424 1661.54 827.999 1659.98 827.999H1658.25C1656.7 827.999 1655.34 827.424 1654.19 826.273C1653.11 825.123 1652.57 823.769 1652.57 822.212V797.842C1652.57 792.765 1651.89 789.312 1650.54 787.484C1649.25 785.589 1646.92 784.642 1643.53 784.642C1640.76 784.642 1638.18 785.826 1635.81 788.195C1633.45 790.564 1632.26 793.103 1632.26 795.811V822.212C1632.26 823.769 1631.68 825.123 1630.53 826.273C1629.38 827.424 1628.03 827.999 1626.47 827.999H1624.44C1622.89 827.999 1621.53 827.424 1620.38 826.273C1619.23 825.123 1618.65 823.769 1618.65 822.212V780.986C1618.65 779.429 1619.23 778.076 1620.38 776.925C1621.53 775.774 1622.89 775.198 1624.44 775.198H1625.76C1627.39 775.198 1628.74 775.774 1629.82 776.925C1630.97 778.008 1631.58 779.362 1631.65 780.986V781.696C1631.65 781.764 1631.69 781.798 1631.75 781.798C1631.82 781.798 1631.89 781.764 1631.96 781.696C1636.56 776.687 1641.94 774.183 1648.1 774.183ZM1832.42 775.198C1833.98 775.198 1835.33 775.774 1836.48 776.925C1837.63 778.076 1838.21 779.43 1838.21 780.986V785.251C1838.21 785.318 1838.24 785.352 1838.31 785.353C1838.45 785.353 1838.51 785.318 1838.51 785.251C1840.48 782.543 1843.05 780.343 1846.23 778.65C1849.41 776.891 1852.9 775.808 1856.69 775.401C1858.11 775.266 1859.33 775.74 1860.35 776.823C1861.36 777.839 1861.87 779.057 1861.87 780.479C1861.87 781.9 1861.36 783.118 1860.35 784.134C1859.33 785.149 1858.11 785.725 1856.69 785.86C1844.71 786.808 1838.72 792.901 1838.72 804.138V822.212C1838.72 823.769 1838.14 825.123 1836.99 826.273C1835.84 827.424 1834.49 827.999 1832.93 827.999H1830.39C1828.83 827.999 1827.48 827.424 1826.33 826.273C1825.18 825.123 1824.6 823.769 1824.6 822.212V780.986C1824.6 779.429 1825.18 778.076 1826.33 776.925C1827.48 775.774 1828.83 775.198 1830.39 775.198H1832.42ZM1896.53 775.198C1898.09 775.198 1899.44 775.774 1900.59 776.925C1901.74 778.076 1902.32 779.429 1902.32 780.986V822.212C1902.32 823.769 1901.74 825.123 1900.59 826.273C1899.44 827.424 1898.09 827.999 1896.53 827.999H1893.89C1892.33 827.999 1890.98 827.424 1889.83 826.273C1888.68 825.123 1888.1 823.769 1888.1 822.212V780.986C1888.1 779.429 1888.68 778.076 1889.83 776.925C1890.98 775.774 1892.33 775.198 1893.89 775.198H1896.53ZM1959.98 774.183C1966.14 774.183 1970.61 775.943 1973.39 779.463C1976.23 782.915 1977.65 788.703 1977.65 796.826V822.212C1977.65 823.769 1977.07 825.123 1975.92 826.273C1974.77 827.424 1973.42 827.999 1971.86 827.999H1970.14C1968.58 827.999 1967.23 827.424 1966.08 826.273C1964.99 825.123 1964.45 823.769 1964.45 822.212V797.842C1964.45 792.765 1963.77 789.312 1962.42 787.484C1961.13 785.589 1958.8 784.642 1955.41 784.642C1952.64 784.642 1950.07 785.826 1947.7 788.195C1945.33 790.564 1944.14 793.103 1944.14 795.811V822.212C1944.14 823.769 1943.57 825.123 1942.42 826.273C1941.27 827.424 1939.91 827.999 1938.35 827.999H1936.32C1934.77 827.999 1933.41 827.424 1932.26 826.273C1931.11 825.123 1930.54 823.769 1930.54 822.212V780.986C1930.54 779.429 1931.11 778.076 1932.26 776.925C1933.41 775.774 1934.77 775.198 1936.32 775.198H1937.64C1939.27 775.198 1940.62 775.774 1941.71 776.925C1942.86 778.008 1943.47 779.362 1943.53 780.986V781.696C1943.53 781.764 1943.57 781.798 1943.63 781.798C1943.7 781.798 1943.77 781.764 1943.84 781.696C1948.44 776.687 1953.82 774.183 1959.98 774.183ZM861.417 784.032C857.423 784.032 854.411 785.454 852.38 788.297C850.417 791.072 849.435 795.506 849.435 801.599C849.435 807.691 850.417 812.159 852.38 815.002C854.411 817.777 857.423 819.165 861.417 819.165C865.411 819.165 868.389 817.777 870.353 815.002C872.383 812.159 873.398 807.691 873.398 801.599C873.398 795.506 872.383 791.072 870.353 788.297C868.389 785.454 865.411 784.032 861.417 784.032ZM1149.7 802.614C1140.02 802.614 1135.18 805.593 1135.18 811.55C1135.18 813.716 1135.79 815.476 1137.01 816.83C1138.29 818.184 1139.92 818.86 1141.88 818.86C1145.74 818.86 1148.85 817.676 1151.22 815.307C1153.59 812.87 1154.78 809.552 1154.78 805.355V803.528C1154.78 802.919 1154.47 802.614 1153.86 802.614H1149.7ZM1523.54 784.337C1516.09 784.337 1512.37 789.752 1512.37 800.583C1512.37 806.202 1513.35 810.399 1515.32 813.175C1517.35 815.95 1520.09 817.338 1523.54 817.338C1526.59 817.338 1529.19 816.254 1531.36 814.088C1533.59 811.922 1534.71 809.383 1534.71 806.473V795.506C1534.71 792.392 1533.59 789.752 1531.36 787.586C1529.19 785.42 1526.59 784.337 1523.54 784.337ZM2023.82 784.337C2016.37 784.337 2012.65 789.752 2012.65 800.583C2012.65 806.202 2013.63 810.399 2015.59 813.175C2017.62 815.95 2020.37 817.338 2023.82 817.338C2026.87 817.338 2029.47 816.254 2031.64 814.088C2033.87 811.922 2034.99 809.383 2034.99 806.473V795.506C2034.99 792.392 2033.87 789.752 2031.64 787.586C2029.47 785.42 2026.87 784.337 2023.82 784.337ZM489.47 716.57C483.06 718.714 476.882 721.67 470.938 725.44C463.698 730.327 457.634 736.029 452.747 742.545C448.041 749.061 445.689 756.21 445.688 763.993C445.688 774.672 450.938 783.451 461.436 790.329C471.934 797.388 486.957 800.918 506.505 800.918C521.709 800.918 535.103 798.836 546.687 794.673C558.27 790.691 567.321 785.442 573.837 778.926C580.534 772.41 583.882 765.351 583.882 757.749C583.882 748.88 580.261 742.093 573.021 737.387C565.782 732.862 556.37 729.332 544.786 726.798C533.202 724.445 520.894 722.183 507.862 720.011C501.58 719.037 495.449 717.89 489.47 716.57ZM1272.9 783.626C1269.45 783.626 1266.78 784.607 1264.88 786.57C1263.06 788.466 1261.9 791.546 1261.43 795.811C1261.43 796.352 1261.7 796.623 1262.24 796.623H1282.14C1282.69 796.623 1282.96 796.352 1282.96 795.811C1282.69 787.688 1279.34 783.626 1272.9 783.626ZM1711.94 783.626C1708.49 783.626 1705.81 784.607 1703.92 786.57C1702.09 788.466 1700.94 791.546 1700.46 795.811C1700.46 796.352 1700.73 796.623 1701.28 796.623H1721.18C1721.72 796.623 1721.99 796.352 1721.99 795.811C1721.72 787.688 1718.37 783.626 1711.94 783.626ZM1779.53 783.626C1776.08 783.626 1773.4 784.607 1771.51 786.57C1769.68 788.466 1768.53 791.546 1768.06 795.811C1768.06 796.352 1768.33 796.623 1768.87 796.623H1788.77C1789.31 796.623 1789.58 796.352 1789.58 795.811C1789.31 787.688 1785.96 783.626 1779.53 783.626ZM1584.65 751.844C1586.21 751.844 1587.56 752.42 1588.71 753.57C1589.86 754.721 1590.44 756.075 1590.44 757.632V758.241C1590.44 759.798 1589.86 761.152 1588.71 762.303C1587.56 763.453 1586.21 764.028 1584.65 764.028H1582.01C1580.45 764.028 1579.1 763.453 1577.95 762.303C1576.8 761.152 1576.22 759.798 1576.22 758.241V757.632C1576.22 756.075 1576.8 754.721 1577.95 753.57C1579.1 752.42 1580.45 751.844 1582.01 751.844H1584.65ZM1896.53 751.844C1898.09 751.844 1899.44 752.42 1900.59 753.57C1901.74 754.721 1902.32 756.075 1902.32 757.632V758.241C1902.32 759.798 1901.74 761.152 1900.59 762.303C1899.44 763.453 1898.09 764.028 1896.53 764.028H1893.89C1892.33 764.028 1890.98 763.453 1889.83 762.303C1888.68 761.152 1888.1 759.798 1888.1 758.241V757.632C1888.1 756.075 1888.68 754.721 1889.83 753.57C1890.98 752.42 1892.33 751.844 1893.89 751.844H1896.53ZM808.522 433.85C835.672 433.85 856.307 440.546 870.425 453.94C884.724 467.334 891.873 484.801 891.873 506.34C891.873 519.01 889.158 530.865 883.729 541.906C878.48 552.766 870.515 562.269 859.836 570.414C849.338 578.378 836.216 584.623 820.469 589.147C804.722 593.491 786.35 595.663 765.354 595.663C755.037 595.663 745.082 595.12 735.489 594.034C729.75 593.276 724.691 592.419 720.312 591.467C720.503 607.671 722.937 620.744 727.616 630.688C733.408 642.995 741.553 651.683 752.051 656.751C762.549 661.638 774.042 664.081 786.531 664.081C799.563 664.081 812.957 662.452 826.713 659.194C840.65 655.936 853.411 651.411 864.995 645.619L860.379 692.046C849.881 698.019 837.211 702.997 822.369 706.979C807.708 710.779 791.418 712.68 773.499 712.68C747.616 712.68 726.258 707.521 709.425 697.204C692.773 686.887 680.374 673.041 672.229 655.665C664.085 638.108 660.013 618.47 660.013 596.75C660.013 575.935 663.542 555.844 670.601 536.477C677.66 516.929 687.705 499.462 700.737 484.077C713.95 468.692 729.607 456.475 747.707 447.425C765.988 438.375 786.26 433.85 808.522 433.85ZM1002.29 439.008H1060.31L1051.9 484.349H994.521L966.646 646.977C966.646 656.207 969.361 661.819 974.791 663.81C980.221 665.801 989.905 666.797 1003.84 666.797H1019.59L1006.29 712.68H963.116C942.844 712.68 928.455 707.431 919.948 696.933C911.441 686.254 907.188 673.946 907.188 660.009C907.188 658.923 907.369 656.932 907.73 654.036C908.092 651.14 908.997 645.077 910.445 635.846C912.074 626.434 914.609 611.772 918.048 591.862C921.487 571.771 926.284 544.35 932.438 509.598C933.833 501.679 935.32 493.263 936.901 484.349H899.043L912.074 439.008H944.98C948.445 419.628 952.226 398.54 956.329 375.748L1014.16 369.775L1002.29 439.008ZM1141.5 458.256C1144.48 455.516 1147.62 452.991 1150.92 450.683C1160.15 444.348 1170.01 439.551 1180.51 436.293C1191.19 433.035 1202.05 431.406 1213.09 431.406C1234.63 431.406 1252.73 436.565 1267.39 446.882C1278.5 454.56 1287.52 464.368 1294.47 476.304C1307.74 462.705 1323.16 451.796 1340.76 443.575C1360.12 434.525 1381.39 430 1404.56 430C1429.72 430 1450.62 435.34 1467.28 446.019C1481.19 454.791 1492.13 466.091 1500.11 479.919C1513.84 465.289 1529.97 453.643 1548.5 444.981C1567.87 435.932 1589.14 431.406 1612.3 431.406C1637.46 431.406 1658.37 436.746 1675.02 447.425C1691.67 457.923 1704.07 472.04 1712.22 489.778C1720.54 507.335 1724.71 526.793 1724.71 548.151C1724.71 569.509 1720.81 590.052 1713.03 609.781C1705.25 629.329 1694.3 646.886 1680.18 662.452C1666.06 677.837 1649.32 690.055 1629.95 699.105C1610.59 708.155 1589.32 712.68 1566.15 712.68C1540.99 712.68 1520.09 707.431 1503.43 696.933C1489.57 688.042 1478.59 676.769 1470.5 663.111C1456.79 677.527 1440.7 689.058 1422.21 697.699C1402.84 706.749 1381.57 711.274 1358.41 711.274C1333.25 711.274 1312.34 706.025 1295.69 695.527C1285.01 688.68 1276.04 680.418 1268.79 670.742C1258.72 682.152 1246.94 691.518 1233.45 698.834C1216.62 708.065 1197.34 712.68 1175.62 712.68C1154.27 712.68 1136.35 707.702 1121.87 697.747C1112.83 691.418 1105.06 683.677 1098.55 674.525L1090.37 707.25H1030.1L1101.78 300H1169.65L1141.5 458.256ZM1852.49 431.406C1869.87 431.406 1885.34 433.397 1898.92 437.379C1912.49 441.361 1923.98 446.067 1933.4 451.497L1918.74 505.797C1909.32 498.919 1898.55 492.855 1886.43 487.606C1874.3 482.358 1860.45 479.733 1844.89 479.733C1832.4 479.733 1822.08 482.086 1813.94 486.792C1805.97 491.317 1801.99 498.919 1801.99 509.598C1801.99 521.182 1806.88 529.327 1816.65 534.033C1826.61 538.739 1839.28 543.988 1854.66 549.78C1867.51 554.486 1878.28 560.007 1886.97 566.342C1895.66 572.496 1902.17 580.188 1906.52 589.419C1911.04 598.469 1913.31 609.691 1913.31 623.085C1913.31 635.393 1910.86 646.977 1905.97 657.837C1901.27 668.697 1894.12 678.29 1884.53 686.616C1874.93 694.761 1863.08 701.187 1848.96 705.893C1834.84 710.418 1818.46 712.68 1799.82 712.68C1782.99 712.68 1766.88 710.78 1751.49 706.979C1736.11 702.997 1722.17 698.2 1709.68 692.589L1725.43 635.031C1736.11 641.547 1748.23 647.701 1761.81 653.493C1775.56 659.285 1789.86 662.181 1804.71 662.181C1818.64 662.181 1828.78 659.195 1835.11 653.222C1841.63 647.249 1844.89 639.918 1844.89 631.23C1844.89 620.913 1841.45 613.22 1834.57 608.152C1827.87 603.084 1817.56 598.288 1803.62 593.763C1791.31 589.6 1780.27 584.803 1770.5 579.373C1760.72 573.943 1753.03 566.794 1747.42 557.925C1741.81 549.056 1739 537.472 1739 523.173C1739 505.797 1743.35 490.231 1752.03 476.475C1760.9 462.538 1773.75 451.587 1790.59 443.623C1807.42 435.478 1828.05 431.406 1852.49 431.406ZM2051.53 435.75H2106.89L2097.12 491.136H2042.1L2016.76 639.918C2016.76 648.063 2019.11 653.041 2023.81 654.851C2028.7 656.48 2037.21 657.294 2049.34 657.294H2068.34L2052.05 712.68H2005.35C1984.18 712.68 1968.97 706.978 1959.74 695.575C1950.69 684.172 1946.17 670.869 1946.17 655.665C1946.17 654.579 1946.35 652.588 1946.71 649.692C1947.07 646.796 1947.98 640.823 1949.42 631.773C1950.87 622.542 1953.31 608.152 1956.75 588.604C1960.19 568.875 1964.9 541.906 1970.87 507.697C1971.82 502.402 1972.81 496.882 1973.84 491.136H1938.02L1953.77 435.75H1983.77C1987.07 417.373 1990.64 397.463 1994.49 376.021L2062.91 368.961L2051.53 435.75ZM1193.54 486.792C1176.17 486.792 1161.69 491.951 1150.1 502.268C1138.52 512.584 1129.83 525.888 1124.04 542.178C1118.25 558.468 1115.35 575.663 1115.35 593.763C1115.35 613.311 1119.15 628.786 1126.75 640.189C1134.54 651.592 1147.75 657.294 1166.39 657.294C1181.78 657.294 1195.17 652.588 1206.58 643.176C1217.98 633.583 1226.76 620.913 1232.91 605.166C1239.25 589.419 1242.41 572.224 1242.41 553.581C1242.41 533.671 1238.52 517.562 1230.74 505.254C1223.14 492.946 1210.74 486.792 1193.54 486.792ZM1603.07 486.792C1587.51 486.792 1573.66 491.498 1561.54 500.91C1549.59 510.322 1540.18 522.902 1533.3 538.648C1526.6 554.395 1523.25 571.681 1523.25 590.505C1523.25 611.139 1527.6 627.429 1536.29 639.375C1544.97 651.321 1558 657.294 1575.38 657.294C1591.13 657.294 1604.97 652.497 1616.92 642.904C1629.05 633.311 1638.46 620.641 1645.16 604.895C1651.85 588.967 1655.2 571.681 1655.2 553.038C1655.2 532.404 1650.77 516.204 1641.9 504.439C1633.21 492.675 1620.27 486.792 1603.07 486.792ZM1395.33 485.386C1379.76 485.386 1365.92 490.092 1353.79 499.504C1341.84 508.916 1332.43 521.495 1325.55 537.242C1318.86 552.989 1315.51 570.275 1315.51 589.099C1315.51 609.733 1319.85 626.023 1328.54 637.969C1337.23 649.915 1350.26 655.888 1367.64 655.888C1383.38 655.888 1397.23 651.091 1409.18 641.498C1421.3 631.905 1430.71 619.235 1437.41 603.488C1444.11 587.56 1447.46 570.275 1447.46 551.632C1447.46 530.998 1443.02 514.798 1434.15 503.033C1425.47 491.268 1412.52 485.386 1395.33 485.386ZM553.202 477.289C540.17 477.289 529.039 480.909 519.808 488.149C510.577 495.208 503.518 504.53 498.631 516.114C493.744 527.517 491.301 540.006 491.301 553.581C491.301 569.328 494.83 581.545 501.889 590.233C508.948 598.74 519.174 602.994 532.568 602.994C545.419 602.994 556.46 599.374 565.691 592.134C575.103 584.894 582.253 575.392 587.14 563.627C592.208 551.862 594.742 539.282 594.742 525.888C594.742 510.141 591.212 498.104 584.153 489.778C577.094 481.452 566.777 477.289 553.202 477.289ZM804.722 482.448C791.509 482.448 779.472 485.977 768.612 493.036C757.933 500.095 748.702 509.779 740.919 522.087C734.791 531.634 729.73 542.248 725.734 553.927C729.395 554.908 732.918 555.698 736.304 556.296C742.639 557.382 749.969 557.925 758.295 557.925C780.196 557.925 797.21 555.572 809.337 550.866C821.464 545.979 829.881 539.916 834.587 532.676C839.474 525.436 841.917 518.286 841.917 511.227C841.917 503.625 839.926 497.742 835.944 493.579C832.143 489.416 827.347 486.521 821.555 484.892C815.763 483.263 810.152 482.448 804.722 482.448Z" fill="#131426"/>
<path d="M365.106 518.168C371.088 534.814 393.716 536.894 402.558 521.81L449.114 443.004L527.919 396.709C543.004 387.606 540.923 364.979 524.278 358.997L277.978 271.869L365.106 518.168Z" fill="#FF4F00" fill-opacity="0.8"/>
<path d="M88.2126 303.738C88.2298 421.575 183.392 517.875 301.629 518.787L228.905 224.727L518.765 295.883C514.792 180.629 419.953 88.1543 303.392 88.0636C184.28 88.1887 88.0875 184.626 88.2126 303.738Z" fill="#FF4F00"/>
</svg>
