<svg width="2542" height="986" viewBox="0 0 2542 986" fill="none" xmlns="http://www.w3.org/2000/svg">
<g clip-path="url(#clip0_1167_15239)">
<path d="M669.801 418.85C692.928 418.85 711.826 424.88 726.497 436.94C732.445 433.658 739.971 430.704 749.078 428.08C759.757 424.822 771.523 423.193 784.374 423.193H796.591L785.731 459.846H766.454C764.644 459.846 761.205 460.117 756.138 460.66C752.862 461.024 749.708 461.593 746.676 462.363C752.801 474.921 755.866 489.828 755.866 507.087C755.866 522.472 752.97 537.495 747.178 552.156C741.567 566.817 733.422 580.121 722.743 592.066C712.245 603.831 699.575 613.244 684.733 620.303C669.891 627.181 653.239 630.619 634.777 630.619C623.977 630.619 614.123 629.431 605.217 627.057C603.176 628.449 601.354 629.998 599.754 631.705C597.039 634.42 595.681 637.678 595.681 641.479C595.681 647.633 600.839 652.249 611.156 655.326C621.473 658.222 637.221 661.57 658.397 665.371C666.723 667 675.955 669.173 686.091 671.888C696.227 674.422 705.91 678.132 715.141 683.019C724.372 687.906 731.884 694.422 737.676 702.567C743.649 710.712 746.635 721.21 746.635 734.061C746.635 750.351 741.114 765.645 730.073 779.944C719.213 794.243 703.557 805.827 683.104 814.696C662.832 823.565 638.578 828 610.342 828C584.459 828 563.825 824.47 548.44 817.411C533.056 810.352 522.014 801.393 515.317 790.533C508.439 779.854 505 769.085 505 758.225C505 749.718 506.991 740.939 510.973 731.889C514.955 722.839 521.29 714.151 529.978 705.825C537.465 698.806 546.97 692.661 558.491 687.389C556.151 685.869 553.977 684.232 551.97 682.476C544.73 676.141 541.109 667.363 541.109 656.141C541.109 648.539 544.187 640.484 550.341 631.977C555.981 624.403 564.491 617.836 575.869 612.271C574.174 610.865 572.541 609.38 570.975 607.813C555.771 592.609 548.169 570.889 548.169 542.653C548.169 521.477 553.146 501.476 563.101 482.652C573.056 463.828 587.084 448.534 605.184 436.769C623.465 424.823 645.004 418.85 669.801 418.85ZM598.466 701.57C592.056 703.714 585.879 706.67 579.934 710.44C572.694 715.327 566.63 721.029 561.743 727.545C557.037 734.061 554.685 741.21 554.685 748.993C554.685 759.672 559.934 768.451 570.432 775.329C580.93 782.388 595.953 785.918 615.501 785.918C630.705 785.918 644.099 783.836 655.683 779.673C667.267 775.691 676.317 770.442 682.833 763.926C689.53 757.41 692.878 750.351 692.878 742.749C692.878 733.88 689.258 727.093 682.018 722.387C674.778 717.862 665.366 714.332 653.782 711.798C642.198 709.445 629.89 707.183 616.858 705.011C610.576 704.037 604.445 702.89 598.466 701.57ZM917.519 418.85C944.669 418.85 965.303 425.546 979.421 438.94C993.72 452.334 1000.87 469.801 1000.87 491.34C1000.87 504.01 998.155 515.865 992.725 526.906C987.476 537.766 979.511 547.269 968.832 555.414C958.334 563.378 945.212 569.622 929.465 574.147C913.718 578.491 895.346 580.663 874.351 580.663C864.034 580.663 854.078 580.12 844.485 579.034C838.746 578.276 833.687 577.419 829.309 576.467C829.499 592.671 831.933 605.744 836.612 615.688C842.404 627.995 850.549 636.683 861.047 641.751C871.545 646.638 883.038 649.081 895.527 649.081C908.559 649.081 921.953 647.452 935.709 644.194C949.646 640.936 962.407 636.411 973.991 630.619L969.375 677.046C958.877 683.019 946.207 687.997 931.365 691.979C916.704 695.779 900.414 697.68 882.495 697.68C856.612 697.68 835.254 692.521 818.421 682.204C801.769 671.887 789.371 658.041 781.226 640.665C773.081 623.108 769.009 603.47 769.009 581.75C769.009 560.935 772.538 540.844 779.597 521.477C786.656 501.929 796.701 484.462 809.733 469.077C822.946 453.692 838.603 441.475 856.703 432.425C874.984 423.375 895.256 418.85 917.519 418.85ZM1111.29 424.008H1169.31L1160.89 469.349H1103.52L1075.64 631.977C1075.64 641.207 1078.36 646.819 1083.79 648.81C1089.22 650.801 1098.9 651.797 1112.84 651.797H1128.58L1115.28 697.68H1072.11C1051.84 697.68 1037.45 692.431 1028.94 681.933C1020.44 671.254 1016.18 658.946 1016.18 645.009C1016.18 643.923 1016.36 641.932 1016.73 639.036C1017.09 636.14 1017.99 630.077 1019.44 620.846C1021.07 611.434 1023.6 596.772 1027.04 576.862C1030.48 556.771 1035.28 529.35 1041.43 494.598C1042.83 486.679 1044.32 478.263 1045.9 469.349H1008.04L1021.07 424.008H1053.98C1057.44 404.628 1061.22 383.54 1065.33 360.748L1123.15 354.775L1111.29 424.008ZM1250.49 443.256C1253.48 440.516 1256.62 437.991 1259.91 435.683C1269.15 429.348 1279.01 424.551 1289.51 421.293C1300.19 418.035 1311.05 416.406 1322.09 416.406C1343.63 416.406 1361.73 421.565 1376.39 431.882C1391.05 442.018 1402.09 455.864 1409.51 473.421C1417.11 490.797 1420.91 510.345 1420.91 532.065C1420.91 552.88 1417.84 573.152 1411.68 592.881C1405.71 612.61 1396.93 630.438 1385.35 646.366C1373.76 662.113 1359.46 674.603 1342.45 683.834C1325.62 693.065 1306.34 697.68 1284.62 697.68C1263.26 697.68 1245.34 692.702 1230.86 682.747C1221.82 676.418 1214.05 668.677 1207.55 659.525L1199.37 692.25H1139.1L1210.77 285H1278.65L1250.49 443.256ZM1721.3 416.406C1746.46 416.406 1767.37 421.746 1784.02 432.425C1800.67 442.923 1813.07 457.04 1821.21 474.778C1829.54 492.335 1833.7 511.793 1833.7 533.151C1833.7 554.509 1829.81 575.052 1822.03 594.781C1814.24 614.329 1803.29 631.886 1789.18 647.452C1775.06 662.837 1758.32 675.055 1738.95 684.105C1719.58 693.155 1698.31 697.68 1675.15 697.68C1649.99 697.68 1629.08 692.431 1612.43 681.933C1595.78 671.254 1583.29 657.136 1574.96 639.579C1566.82 621.841 1562.75 602.293 1562.75 580.935C1562.75 559.577 1566.64 539.124 1574.42 519.576C1582.2 499.847 1593.15 482.29 1607.27 466.905C1621.39 451.339 1638.13 439.031 1657.5 429.981C1676.87 420.932 1698.13 416.406 1721.3 416.406ZM1961.49 416.406C1978.86 416.406 1994.34 418.397 2007.91 422.379C2021.49 426.361 2032.98 431.067 2042.39 436.497L2027.73 490.797C2018.32 483.919 2007.55 477.855 1995.42 472.606C1983.3 467.358 1969.45 464.733 1953.88 464.733C1941.39 464.733 1931.08 467.086 1922.93 471.792C1914.97 476.317 1910.99 483.919 1910.99 494.598C1910.99 506.182 1915.87 514.327 1925.65 519.033C1935.6 523.739 1948.27 528.988 1963.66 534.78C1976.51 539.486 1987.28 545.007 1995.97 551.342C2004.65 557.496 2011.17 565.188 2015.51 574.419C2020.04 583.469 2022.3 594.691 2022.3 608.085C2022.3 620.393 2019.86 631.977 2014.97 642.837C2010.26 653.697 2003.12 663.29 1993.52 671.616C1983.93 679.761 1972.07 686.187 1957.96 690.893C1943.84 695.418 1927.46 697.68 1908.81 697.68C1891.98 697.68 1875.87 695.78 1860.49 691.979C1845.1 687.997 1831.17 683.2 1818.68 677.589L1834.42 620.031C1845.1 626.547 1857.23 632.701 1870.8 638.493C1884.56 644.285 1898.86 647.181 1913.7 647.181C1927.64 647.181 1937.77 644.195 1944.11 638.222C1950.63 632.249 1953.88 624.918 1953.88 616.23C1953.88 605.913 1950.44 598.22 1943.57 593.152C1936.87 588.084 1926.55 583.288 1912.62 578.763C1900.31 574.6 1889.27 569.803 1879.49 564.373C1869.72 558.943 1862.03 551.794 1856.42 542.925C1850.8 534.056 1848 522.472 1848 508.173C1848 490.797 1852.34 475.231 1861.03 461.475C1869.9 447.538 1882.75 436.587 1899.58 428.623C1916.42 420.478 1937.05 416.406 1961.49 416.406ZM2160.53 420.75H2215.89L2206.12 476.136H2151.1L2125.75 624.918C2125.75 633.063 2128.1 638.041 2132.81 639.851C2137.7 641.48 2146.21 642.294 2158.33 642.294H2177.34L2161.05 697.68H2114.35C2093.17 697.68 2077.97 691.978 2068.74 680.575C2059.69 669.172 2055.16 655.869 2055.16 640.665C2055.16 639.579 2055.34 637.588 2055.7 634.692C2056.07 631.796 2056.97 625.823 2058.42 616.773C2059.87 607.542 2062.31 593.152 2065.75 573.604C2069.19 553.875 2073.9 526.906 2079.87 492.697C2080.82 487.402 2081.81 481.882 2082.84 476.136H2047.02L2062.76 420.75H2092.76C2096.06 402.373 2099.64 382.463 2103.49 361.021L2171.91 353.961L2160.53 420.75ZM1302.54 471.792C1285.16 471.792 1270.68 476.951 1259.1 487.268C1247.52 497.584 1238.83 510.888 1233.04 527.178C1227.24 543.468 1224.35 560.663 1224.35 578.763C1224.35 598.311 1228.15 613.786 1235.75 625.189C1243.53 636.592 1256.75 642.294 1275.39 642.294C1290.77 642.294 1304.17 637.588 1315.57 628.176C1326.98 618.583 1335.75 605.913 1341.91 590.166C1348.24 574.419 1351.41 557.224 1351.41 538.581C1351.41 518.671 1347.52 502.562 1339.74 490.254C1332.13 477.946 1319.73 471.792 1302.54 471.792ZM1712.07 471.792C1696.5 471.792 1682.66 476.498 1670.53 485.91C1658.59 495.322 1649.17 507.902 1642.29 523.648C1635.6 539.395 1632.25 556.681 1632.25 575.505C1632.25 596.139 1636.59 612.429 1645.28 624.375C1653.97 636.321 1667 642.294 1684.38 642.294C1700.12 642.294 1713.97 637.497 1725.92 627.904C1738.04 618.311 1747.46 605.641 1754.15 589.895C1760.85 573.967 1764.2 556.681 1764.2 538.038C1764.2 517.404 1759.76 501.204 1750.89 489.439C1742.21 477.675 1729.27 471.792 1712.07 471.792ZM662.198 462.289C649.166 462.289 638.035 465.909 628.804 473.149C619.573 480.208 612.514 489.53 607.627 501.114C602.74 512.517 600.297 525.006 600.297 538.581C600.297 554.328 603.826 566.545 610.885 575.233C617.944 583.74 628.17 587.994 641.564 587.994C654.415 587.994 665.456 584.374 674.688 577.134C684.099 569.894 691.249 560.392 696.136 548.627C701.204 536.862 703.738 524.282 703.738 510.888C703.738 495.141 700.208 483.104 693.149 474.778C686.09 466.452 675.773 462.289 662.198 462.289ZM913.718 467.448C900.505 467.448 888.468 470.977 877.608 478.036C866.929 485.095 857.698 494.779 849.915 507.087C843.788 516.634 838.726 527.248 834.73 538.927C838.391 539.908 841.914 540.698 845.3 541.296C851.635 542.382 858.965 542.925 867.291 542.925C889.192 542.925 906.206 540.572 918.333 535.866C930.46 530.979 938.877 524.916 943.583 517.676C948.47 510.436 950.913 503.286 950.913 496.227C950.913 488.625 948.922 482.742 944.94 478.579C941.139 474.416 936.343 471.521 930.551 469.892C924.759 468.263 919.148 467.448 913.718 467.448Z" fill="#131426"/>
<path d="M1467.4 696.274C1442.24 696.274 1421.34 691.025 1404.68 680.527C1388.03 669.848 1375.54 655.73 1367.22 638.173C1359.07 620.435 1355 600.887 1355 579.529C1355 558.171 1358.89 537.718 1366.67 518.17C1374.46 498.441 1385.41 480.884 1399.53 465.499C1413.64 449.933 1430.39 437.625 1449.75 428.575C1469.12 419.525 1490.39 415 1513.56 415C1538.71 415 1559.62 420.34 1576.27 431.019C1592.92 441.517 1605.32 455.634 1613.47 473.372C1621.79 490.929 1625.96 510.387 1625.96 531.745C1625.96 553.103 1622.07 573.646 1614.28 593.375C1606.5 612.923 1595.55 630.48 1581.43 646.046C1567.31 661.431 1550.57 673.649 1531.2 682.699C1511.84 691.749 1490.57 696.274 1467.4 696.274ZM1476.63 640.888C1492.38 640.888 1506.23 636.092 1518.17 626.499C1530.3 616.906 1539.71 604.235 1546.41 588.488C1553.1 572.56 1556.45 555.275 1556.45 536.632C1556.45 515.998 1552.02 499.798 1543.15 488.033C1534.46 476.268 1521.52 470.386 1504.32 470.386C1488.76 470.386 1474.91 475.092 1462.79 484.504C1450.84 493.916 1441.43 506.495 1434.55 522.242C1427.85 537.989 1424.5 555.275 1424.5 574.099C1424.5 594.733 1428.85 611.023 1437.54 622.969C1446.22 634.915 1459.26 640.888 1476.63 640.888Z" fill="#131426"/>
<path d="M474.102 503.168C480.084 519.814 502.712 521.894 511.555 506.81L558.11 428.004L636.915 381.709C652 372.606 649.919 349.979 633.274 343.997L386.974 256.869L474.102 503.168Z" fill="#FF4F00" fill-opacity="0.8"/>
<path d="M197.209 288.738C197.226 406.575 292.388 502.875 410.625 503.787L337.901 209.727L627.761 280.883C623.788 165.629 528.949 73.1543 412.388 73.0636C293.276 73.1887 197.084 169.626 197.209 288.738Z" fill="#FF4F00"/>
</g>
<defs>
<clipPath id="clip0_1167_15239">
<rect width="2542" height="986" fill="white"/>
</clipPath>
</defs>
</svg>
